{"glyphs":{"0":{"ha":793,"x_min":60,"x_max":733,"o":"m 733 496 q 650 112 733 237 q 396 -14 567 -14 q 145 116 231 -14 q 60 496 60 245 q 143 883 60 758 q 396 1007 226 1007 q 648 877 562 1007 q 733 496 733 747 m 221 496 q 263 206 221 293 q 396 119 304 119 q 530 208 488 119 q 572 496 572 296 q 530 784 572 695 q 396 873 488 873 q 263 786 304 873 q 221 496 221 699 z "},"1":{"ha":793,"x_min":104,"x_max":529,"o":"m 529 0 l 370 0 l 370 640 q 375 822 370 755 q 337 786 359 806 q 184 661 314 766 l 104 762 l 396 991 l 529 991 l 529 0 z "},"2":{"ha":793,"x_min":61,"x_max":733,"o":"m 733 0 l 61 0 l 61 121 l 317 378 q 467 542 430 494 q 521 633 504 591 q 538 725 538 676 q 497 831 538 792 q 386 869 457 869 q 276 848 329 869 q 153 772 222 827 l 66 878 q 227 977 149 947 q 393 1006 305 1006 q 615 933 532 1006 q 699 739 699 861 q 674 612 699 672 q 601 487 650 551 q 435 314 551 423 l 262 147 l 262 140 l 733 140 l 733 0 z "},"3":{"ha":793,"x_min":58,"x_max":725,"o":"m 696 764 q 641 607 696 669 q 486 522 586 544 l 486 517 q 665 443 606 502 q 725 285 725 383 q 624 64 725 142 q 336 -14 523 -14 q 58 40 172 -14 l 58 182 q 192 134 121 151 q 328 117 262 117 q 500 159 443 117 q 557 292 557 202 q 494 408 557 371 q 296 446 431 446 l 210 446 l 210 575 l 297 575 q 534 739 534 575 q 493 838 534 803 q 371 872 452 872 q 262 856 315 872 q 139 794 210 840 l 61 905 q 378 1006 197 1006 q 612 941 528 1006 q 696 764 696 877 z "},"4":{"ha":793,"x_min":26,"x_max":768,"o":"m 768 216 l 635 216 l 635 0 l 479 0 l 479 216 l 26 216 l 26 339 l 479 994 l 635 994 l 635 349 l 768 349 l 768 216 m 479 349 l 479 597 q 486 815 479 730 l 481 815 q 421 707 462 770 l 175 349 l 479 349 z "},"5":{"ha":793,"x_min":79,"x_max":722,"o":"m 397 619 q 635 540 547 619 q 722 323 722 460 q 623 76 722 165 q 340 -14 524 -14 q 79 40 174 -14 l 79 184 q 205 136 134 153 q 338 119 277 119 q 502 168 446 119 q 558 309 558 216 q 332 486 558 486 q 253 480 300 486 q 171 465 206 473 l 100 507 l 138 991 l 653 991 l 653 850 l 278 850 l 256 604 q 314 614 279 608 q 397 619 348 619 z "},"6":{"ha":793,"x_min":64,"x_max":737,"o":"m 64 422 q 538 1004 64 1004 q 664 993 612 1004 l 664 860 q 545 875 612 875 q 305 789 385 875 q 218 515 225 704 l 227 515 q 316 601 258 570 q 452 631 374 631 q 662 548 587 631 q 737 323 737 465 q 650 77 737 168 q 412 -14 563 -14 q 227 38 306 -14 q 106 187 149 89 q 64 422 64 285 m 410 118 q 536 171 492 118 q 581 322 581 224 q 539 456 581 408 q 414 505 497 505 q 319 483 362 505 q 250 423 275 461 q 225 345 225 385 q 277 183 225 249 q 410 118 329 118 z "},"7":{"ha":793,"x_min":50,"x_max":736,"o":"m 174 0 l 566 850 l 50 850 l 50 990 l 736 990 l 736 879 l 346 0 l 174 0 z "},"8":{"ha":793,"x_min":60,"x_max":733,"o":"m 396 1004 q 619 940 537 1004 q 701 766 701 875 q 518 524 701 614 q 684 401 635 465 q 733 257 733 336 q 643 60 733 134 q 399 -14 553 -14 q 149 56 237 -14 q 60 252 60 125 q 106 400 60 334 q 258 518 153 467 q 129 633 168 572 q 90 768 90 693 q 175 940 90 876 q 396 1004 260 1004 m 212 257 q 262 148 212 186 q 396 109 311 109 q 532 149 484 109 q 581 258 581 189 q 536 359 581 313 q 400 443 491 404 l 380 452 q 252 365 291 412 q 212 257 212 318 m 395 882 q 286 848 327 882 q 244 757 244 814 q 259 694 244 722 q 302 643 274 666 q 399 589 331 621 q 514 664 480 625 q 547 757 547 704 q 506 848 547 814 q 395 882 464 882 z "},"9":{"ha":793,"x_min":58,"x_max":732,"o":"m 732 568 q 614 131 732 275 q 258 -14 496 -14 q 129 -3 168 -14 l 129 131 q 250 114 189 114 q 491 201 412 114 q 578 473 570 288 l 570 473 q 473 385 530 412 q 340 358 416 358 q 134 440 209 358 q 58 665 58 522 q 145 912 58 821 q 383 1004 233 1004 q 568 953 489 1004 q 689 803 646 901 q 732 568 732 705 m 386 872 q 259 818 303 872 q 215 667 215 764 q 256 533 215 582 q 380 485 297 485 q 516 533 461 485 q 571 646 571 581 q 548 759 571 706 q 482 842 524 811 q 386 872 440 872 z "}," ":{"ha":361,"x_min":0,"x_max":0,"o":""},"!":{"ha":383,"x_min":90,"x_max":292,"o":"m 252 301 l 134 301 l 98 991 l 286 991 l 252 301 m 90 85 q 117 161 90 135 q 192 187 143 187 q 266 160 240 187 q 292 85 292 133 q 266 8 292 37 q 192 -20 239 -20 q 117 7 144 -20 q 90 85 90 35 z "},"\"":{"ha":606,"x_min":90,"x_max":515,"o":"m 248 991 l 220 633 l 118 633 l 90 991 l 248 991 m 515 991 l 488 633 l 386 633 l 358 991 l 515 991 z "},"#":{"ha":897,"x_min":32,"x_max":864,"o":"m 671 590 l 633 397 l 817 397 l 817 283 l 611 283 l 557 0 l 436 0 l 490 283 l 322 283 l 268 0 l 150 0 l 201 283 l 32 283 l 32 397 l 224 397 l 262 590 l 83 590 l 83 704 l 282 704 l 336 990 l 458 990 l 404 704 l 575 704 l 629 990 l 747 990 l 693 704 l 864 704 l 864 590 l 671 590 m 343 397 l 513 397 l 551 590 l 382 590 l 343 397 z "},"$":{"ha":793,"x_min":75,"x_max":721,"o":"m 721 307 q 649 145 721 209 q 441 66 577 81 l 441 -81 l 351 -81 l 351 62 q 75 114 183 65 l 75 257 q 212 209 134 229 q 351 189 290 190 l 351 443 l 294 464 q 132 566 183 507 q 81 713 81 625 q 154 867 81 806 q 351 940 227 927 l 351 1054 l 441 1054 l 441 942 q 703 886 579 937 l 653 762 q 441 812 547 804 l 441 566 l 493 546 q 671 441 622 496 q 721 307 721 387 m 561 297 q 533 362 561 336 q 441 411 506 387 l 441 195 q 561 297 561 213 m 240 714 q 264 650 240 675 q 351 599 288 624 l 351 810 q 269 777 297 802 q 240 714 240 751 z "},"%":{"ha":1197,"x_min":57,"x_max":1140,"o":"m 189 694 q 209 544 189 593 q 273 494 229 494 q 363 694 363 494 q 273 895 363 895 q 209 845 229 895 q 189 694 189 795 m 494 696 q 438 461 494 540 q 273 383 382 383 q 114 464 170 383 q 57 696 57 545 q 273 1006 57 1006 q 437 925 380 1006 q 494 696 494 845 m 835 298 q 855 147 835 197 q 920 97 875 97 q 1008 298 1008 97 q 920 497 1008 497 q 855 448 875 497 q 835 298 835 399 m 1140 298 q 1084 64 1140 142 q 920 -14 1027 -14 q 760 67 817 -14 q 703 298 703 147 q 920 608 703 608 q 1082 528 1024 608 q 1140 298 1140 448 m 939 991 l 389 0 l 257 0 l 807 991 l 939 991 z "},"&":{"ha":1028,"x_min":65,"x_max":1026,"o":"m 306 778 q 329 697 306 735 q 392 616 351 659 q 499 697 469 660 q 530 782 530 735 q 501 852 530 826 q 422 879 471 879 q 337 851 369 879 q 306 778 306 824 m 407 123 q 619 196 531 123 l 359 452 q 260 365 288 406 q 233 273 233 325 q 280 165 233 207 q 407 123 328 123 m 65 262 q 109 417 65 351 q 265 549 152 484 q 177 676 201 624 q 154 783 154 728 q 228 946 154 886 q 425 1006 301 1006 q 614 948 545 1006 q 682 791 682 890 q 636 651 682 714 q 484 525 591 588 l 718 298 q 810 511 773 371 l 974 511 q 822 197 926 319 l 1026 0 l 821 0 l 720 98 q 572 15 650 43 q 399 -14 494 -14 q 154 60 243 -14 q 65 262 65 134 z "},"'":{"ha":338,"x_min":90,"x_max":248,"o":"m 248 991 l 220 633 l 118 633 l 90 991 l 248 991 z "},"(":{"ha":440,"x_min":56,"x_max":399,"o":"m 56 380 q 108 717 56 560 q 260 991 161 873 l 399 991 q 254 706 304 864 q 204 382 204 547 q 254 61 204 216 q 397 -220 304 -94 l 260 -220 q 108 50 160 -104 q 56 380 56 203 z "},")":{"ha":440,"x_min":41,"x_max":385,"o":"m 385 380 q 332 48 385 202 q 180 -220 279 -106 l 43 -220 q 186 62 136 -93 q 236 382 236 216 q 186 706 236 548 q 41 991 136 863 l 180 991 q 332 716 280 873 q 385 380 385 559 z "},"*":{"ha":761,"x_min":50,"x_max":708,"o":"m 456 1055 l 428 796 l 689 869 l 708 722 l 464 703 l 624 492 l 489 419 l 376 648 l 275 419 l 136 492 l 293 703 l 50 722 l 74 869 l 329 796 l 301 1055 l 456 1055 z "},"+":{"ha":793,"x_min":65,"x_max":728,"o":"m 335 429 l 65 429 l 65 550 l 335 550 l 335 827 l 457 827 l 457 550 l 728 550 l 728 429 l 457 429 l 457 154 l 335 154 l 335 429 z "},",":{"ha":371,"x_min":43,"x_max":279,"o":"m 279 146 q 160 -179 247 20 l 43 -179 q 113 161 90 4 l 269 161 l 279 146 z "},"-":{"ha":447,"x_min":49,"x_max":397,"o":"m 49 304 l 49 440 l 397 440 l 397 304 l 49 304 z "},".":{"ha":382,"x_min":90,"x_max":292,"o":"m 90 85 q 116 161 90 134 q 191 187 142 187 q 266 160 240 187 q 292 85 292 132 q 266 8 292 37 q 191 -20 239 -20 q 116 8 142 -20 q 90 85 90 36 z "},"/":{"ha":542,"x_min":11,"x_max":530,"o":"m 530 991 l 161 0 l 11 0 l 380 991 l 530 991 z "},":":{"ha":382,"x_min":90,"x_max":292,"o":"m 90 85 q 116 161 90 134 q 191 187 142 187 q 266 160 240 187 q 292 85 292 132 q 266 8 292 37 q 191 -20 239 -20 q 116 8 142 -20 q 90 85 90 36 m 90 664 q 191 766 90 766 q 267 739 241 766 q 292 664 292 712 q 266 588 292 616 q 191 559 239 559 q 116 587 142 559 q 90 664 90 615 z "},";":{"ha":386,"x_min":43,"x_max":290,"o":"m 269 161 l 279 146 q 160 -179 247 20 l 43 -179 q 113 161 90 4 l 269 161 m 89 664 q 189 766 89 766 q 265 739 240 766 q 290 664 290 712 q 264 588 290 616 q 189 559 238 559 q 115 587 140 559 q 89 664 89 615 z "},"<":{"ha":793,"x_min":65,"x_max":728,"o":"m 728 150 l 65 441 l 65 524 l 728 854 l 728 722 l 231 489 l 728 283 l 728 150 z "},"=":{"ha":793,"x_min":69,"x_max":722,"o":"m 69 564 l 69 685 l 722 685 l 722 564 l 69 564 m 69 293 l 69 414 l 722 414 l 722 293 l 69 293 z "},">":{"ha":793,"x_min":65,"x_max":728,"o":"m 65 283 l 562 489 l 65 722 l 65 854 l 728 524 l 728 441 l 65 150 l 65 283 z "},"?":{"ha":629,"x_min":11,"x_max":595,"o":"m 192 301 l 192 345 q 219 469 192 419 q 314 571 246 518 q 418 670 395 635 q 441 754 441 705 q 404 842 441 811 q 294 872 366 872 q 175 854 230 872 q 68 810 120 836 l 11 929 q 306 1006 149 1006 q 517 941 439 1006 q 595 761 595 876 q 580 670 595 710 q 535 595 565 631 q 431 501 505 559 q 346 419 368 452 q 325 332 325 387 l 325 301 l 192 301 m 164 85 q 264 187 164 187 q 338 160 313 187 q 364 85 364 134 q 338 8 364 37 q 264 -20 312 -20 q 190 8 216 -20 q 164 85 164 35 z "},"@":{"ha":1247,"x_min":75,"x_max":1171,"o":"m 1171 501 q 1140 324 1171 404 q 1054 199 1109 243 q 926 154 999 154 q 833 182 873 154 q 781 260 794 211 l 772 260 q 690 180 739 207 q 581 154 642 154 q 407 225 470 154 q 343 418 343 296 q 427 645 343 557 q 653 732 511 732 q 767 723 705 732 q 879 697 830 713 l 864 382 l 864 366 q 935 257 864 257 q 1020 326 988 257 q 1051 503 1051 395 q 1004 706 1051 618 q 869 842 956 794 q 668 889 781 889 q 417 829 524 889 q 254 659 310 770 q 197 401 197 548 q 302 99 197 205 q 604 -7 408 -7 q 917 54 754 -7 l 917 -57 q 607 -115 774 -115 q 216 20 356 -115 q 75 397 75 155 q 151 712 75 574 q 362 924 227 850 q 667 997 496 997 q 929 936 814 997 q 1107 762 1044 875 q 1171 501 1171 649 m 473 415 q 597 257 473 257 q 741 456 728 257 l 749 618 q 657 629 706 629 q 522 572 570 629 q 473 415 473 514 z "},"A":{"ha":918,"x_min":0,"x_max":918,"o":"m 746 0 l 647 275 l 268 275 l 171 0 l 0 0 l 371 996 l 547 996 l 918 0 l 746 0 m 604 415 l 511 685 q 483 770 501 712 q 458 856 465 829 q 405 673 440 772 l 315 415 l 604 415 z "},"B":{"ha":917,"x_min":131,"x_max":842,"o":"m 131 991 l 425 991 q 721 932 630 991 q 812 743 812 872 q 768 599 812 656 q 639 526 723 541 l 639 519 q 792 442 743 500 q 842 285 842 384 q 748 76 842 151 q 489 0 655 0 l 131 0 l 131 991 m 293 582 l 449 582 q 597 614 551 582 q 644 724 644 646 q 594 825 644 793 q 433 856 543 856 l 293 856 l 293 582 m 293 450 l 293 136 l 465 136 q 619 175 567 136 q 671 298 671 214 q 618 413 671 376 q 457 450 565 450 l 293 450 z "},"C":{"ha":880,"x_min":82,"x_max":835,"o":"m 553 867 q 333 768 413 867 q 253 494 253 669 q 330 218 253 312 q 553 125 407 125 q 675 137 616 125 q 798 170 734 150 l 798 31 q 533 -14 681 -14 q 199 118 315 -14 q 82 496 82 250 q 139 766 82 650 q 302 944 195 882 q 554 1006 410 1006 q 835 942 706 1006 l 777 807 q 670 849 726 831 q 553 867 614 867 z "},"D":{"ha":1019,"x_min":131,"x_max":937,"o":"m 937 505 q 801 130 937 260 q 408 0 665 0 l 131 0 l 131 991 l 437 991 q 806 864 674 991 q 937 505 937 736 m 766 500 q 433 856 766 856 l 293 856 l 293 136 l 408 136 q 766 500 766 136 z "},"E":{"ha":775,"x_min":131,"x_max":692,"o":"m 692 0 l 131 0 l 131 991 l 692 991 l 692 854 l 293 854 l 293 585 l 667 585 l 667 449 l 293 449 l 293 138 l 692 138 l 692 0 z "},"F":{"ha":739,"x_min":131,"x_max":690,"o":"m 292 0 l 131 0 l 131 991 l 690 991 l 690 854 l 292 854 l 292 545 l 665 545 l 665 407 l 292 407 l 292 0 z "},"G":{"ha":1008,"x_min":82,"x_max":901,"o":"m 536 538 l 901 538 l 901 40 q 729 -1 812 11 q 551 -14 647 -14 q 204 120 326 -14 q 82 496 82 253 q 220 870 82 735 q 599 1006 357 1006 q 893 946 754 1006 l 836 811 q 595 867 715 867 q 344 767 436 867 q 252 494 252 667 q 335 218 252 313 q 574 123 418 123 q 742 143 652 123 l 742 399 l 536 399 l 536 538 z "},"H":{"ha":1043,"x_min":131,"x_max":913,"o":"m 913 0 l 750 0 l 750 447 l 293 447 l 293 0 l 131 0 l 131 991 l 293 991 l 293 586 l 750 586 l 750 991 l 913 991 l 913 0 z "},"J":{"ha":415,"x_min":-106,"x_max":289,"o":"m 5 -277 q -106 -260 -61 -277 l -106 -123 q -7 -138 -49 -138 q 126 31 126 -138 l 126 991 l 289 991 l 289 36 q 217 -196 289 -116 q 5 -277 144 -277 z "},"K":{"ha":888,"x_min":131,"x_max":888,"o":"m 888 0 l 700 0 l 389 449 l 293 371 l 293 0 l 131 0 l 131 991 l 293 991 l 293 518 q 425 675 359 600 l 693 991 l 878 991 q 505 557 618 686 l 888 0 z "},"L":{"ha":753,"x_min":131,"x_max":713,"o":"m 131 0 l 131 991 l 293 991 l 293 139 l 713 139 l 713 0 l 131 0 z "},"M":{"ha":1282,"x_min":131,"x_max":1152,"o":"m 559 0 l 272 828 l 267 828 q 278 482 278 644 l 278 0 l 131 0 l 131 991 l 359 991 l 635 203 l 639 203 l 922 991 l 1152 991 l 1152 0 l 996 0 l 996 490 q 999 683 996 564 q 1006 827 1003 802 l 1000 827 l 703 0 l 559 0 z "},"N":{"ha":1088,"x_min":131,"x_max":957,"o":"m 957 0 l 758 0 l 271 790 l 265 790 l 269 746 q 278 515 278 620 l 278 0 l 131 0 l 131 991 l 328 991 l 814 205 l 818 205 q 812 319 817 221 q 808 472 808 417 l 808 991 l 957 991 l 957 0 z "},"O":{"ha":1093,"x_min":82,"x_max":1011,"o":"m 1011 497 q 890 121 1011 255 q 547 -14 769 -14 q 202 120 323 -14 q 82 498 82 253 q 203 876 82 744 q 549 1007 324 1007 q 890 873 770 1007 q 1011 497 1011 740 m 254 497 q 328 219 254 314 q 547 125 402 125 q 765 218 692 125 q 839 497 839 312 q 766 774 839 680 q 549 868 693 868 q 329 774 403 868 q 254 497 254 680 z "},"P":{"ha":854,"x_min":131,"x_max":787,"o":"m 787 692 q 686 454 787 536 q 396 371 584 371 l 293 371 l 293 0 l 131 0 l 131 991 l 416 991 q 695 916 602 991 q 787 692 787 840 m 293 507 l 379 507 q 562 551 504 507 q 621 686 621 594 q 568 814 621 772 q 406 856 516 856 l 293 856 l 293 507 z "},"Q":{"ha":1093,"x_min":82,"x_max":1011,"o":"m 1011 497 q 942 193 1011 317 q 742 20 873 70 l 979 -236 l 761 -236 l 574 -14 l 547 -14 q 202 120 323 -14 q 82 498 82 253 q 203 876 82 744 q 549 1007 324 1007 q 890 873 770 1007 q 1011 497 1011 740 m 254 497 q 328 219 254 314 q 547 125 402 125 q 765 218 692 125 q 839 497 839 312 q 766 774 839 680 q 549 868 693 868 q 329 774 403 868 q 254 497 254 680 z "},"R":{"ha":888,"x_min":131,"x_max":875,"o":"m 293 530 l 406 530 q 570 572 519 530 q 621 697 621 614 q 566 818 621 781 q 400 854 511 854 l 293 854 l 293 530 m 293 396 l 293 0 l 131 0 l 131 991 l 411 991 q 695 920 603 991 q 787 703 787 848 q 595 439 787 517 l 875 0 l 690 0 l 453 396 l 293 396 z "},"S":{"ha":764,"x_min":68,"x_max":703,"o":"m 703 269 q 607 62 703 137 q 343 -14 511 -14 q 68 39 175 -14 l 68 192 q 212 142 136 160 q 354 123 288 123 q 496 160 450 123 q 542 258 542 197 q 500 353 542 314 q 326 444 458 391 q 135 570 191 499 q 79 739 79 640 q 168 935 79 863 q 404 1006 256 1006 q 688 943 547 1006 l 636 811 q 400 867 504 867 q 281 832 321 867 q 240 742 240 798 q 256 676 240 703 q 310 624 273 648 q 444 559 347 600 q 604 475 553 514 q 679 386 655 435 q 703 269 703 336 z "},"T":{"ha":786,"x_min":20,"x_max":765,"o":"m 473 0 l 311 0 l 311 852 l 20 852 l 20 991 l 765 991 l 765 852 l 473 852 l 473 0 z "},"U":{"ha":1031,"x_min":122,"x_max":908,"o":"m 908 991 l 908 350 q 861 158 908 240 q 725 31 814 75 q 511 -14 635 -14 q 224 84 327 -14 q 122 353 122 182 l 122 991 l 285 991 l 285 364 q 342 183 285 241 q 517 125 399 125 q 746 366 746 125 l 746 991 l 908 991 z "},"V":{"ha":864,"x_min":0,"x_max":864,"o":"m 696 991 l 864 991 l 517 0 l 346 0 l 0 991 l 167 991 l 374 375 q 408 261 390 331 q 432 158 427 192 q 459 277 441 210 q 489 378 477 345 l 696 991 z "},"W":{"ha":1314,"x_min":8,"x_max":1304,"o":"m 1046 0 l 869 0 l 701 591 q 674 703 690 630 q 654 804 658 776 q 632 692 648 761 q 607 589 617 623 l 443 0 l 267 0 l 138 496 l 8 991 l 174 991 l 315 414 q 363 168 349 275 q 385 297 370 226 q 412 412 400 368 l 574 991 l 734 991 l 900 410 q 950 168 924 329 q 999 415 960 265 l 1140 991 l 1304 991 l 1046 0 z "},"X":{"ha":864,"x_min":3,"x_max":861,"o":"m 861 0 l 675 0 l 427 406 l 176 0 l 3 0 l 332 514 l 24 991 l 204 991 l 433 616 l 663 991 l 838 991 l 528 511 l 861 0 z "},"Y":{"ha":822,"x_min":0,"x_max":822,"o":"m 411 539 l 646 991 l 822 991 l 492 385 l 492 0 l 329 0 l 329 379 l 0 991 l 176 991 l 411 539 z "},"Z":{"ha":799,"x_min":45,"x_max":754,"o":"m 754 0 l 45 0 l 45 113 l 545 852 l 58 852 l 58 991 l 741 991 l 741 878 l 239 139 l 754 139 l 754 0 z "},"[":{"ha":458,"x_min":104,"x_max":424,"o":"m 424 -220 l 104 -220 l 104 991 l 424 991 l 424 872 l 250 872 l 250 -100 l 424 -100 l 424 -220 z "},"\\":{"ha":542,"x_min":11,"x_max":530,"o":"m 161 991 l 530 0 l 380 0 l 11 991 l 161 991 z "},"]":{"ha":458,"x_min":35,"x_max":353,"o":"m 35 -100 l 208 -100 l 208 872 l 35 872 l 35 991 l 353 991 l 353 -220 l 35 -220 l 35 -100 z "},"^":{"ha":746,"x_min":20,"x_max":726,"o":"m 20 363 l 315 997 l 397 997 l 726 363 l 595 363 l 358 833 l 150 363 l 20 363 z "},"_":{"ha":596,"x_min":-3,"x_max":599,"o":"m 599 -216 l -3 -216 l -3 -125 l 599 -125 l 599 -216 z "},"`":{"ha":822,"x_min":245,"x_max":575,"o":"m 468 842 q 350 944 421 877 q 245 1050 278 1010 l 245 1064 l 431 1064 q 501 955 456 1017 q 575 859 545 893 l 575 842 l 468 842 z "},"a":{"ha":806,"x_min":61,"x_max":697,"o":"m 583 0 l 551 104 l 546 104 q 437 11 492 36 q 296 -14 382 -14 q 123 46 185 -14 q 61 215 61 106 q 147 390 61 331 q 410 454 233 449 l 539 458 l 539 498 q 506 606 539 570 q 401 642 472 642 q 291 625 344 642 q 189 585 238 608 l 138 699 q 271 747 199 730 q 408 764 344 764 q 624 701 551 764 q 697 505 697 639 l 697 0 l 583 0 m 346 109 q 485 157 433 109 q 538 293 538 205 l 538 358 l 441 354 q 278 316 329 350 q 227 214 227 283 q 256 136 227 163 q 346 109 286 109 z "},"b":{"ha":865,"x_min":114,"x_max":794,"o":"m 497 764 q 716 662 637 764 q 794 376 794 560 q 715 89 794 192 q 494 -14 635 -14 q 273 89 352 -14 l 262 89 l 233 0 l 114 0 l 114 1055 l 273 1055 l 273 804 q 271 722 273 777 q 267 652 268 667 l 273 652 q 497 764 349 764 m 456 633 q 317 577 359 633 q 273 387 275 520 l 273 376 q 317 178 273 239 q 458 117 360 117 q 587 184 543 117 q 631 378 631 251 q 456 633 631 633 z "},"c":{"ha":688,"x_min":69,"x_max":643,"o":"m 416 -14 q 158 86 246 -14 q 69 371 69 185 q 162 662 69 560 q 429 764 254 764 q 643 720 548 764 l 595 591 q 428 631 494 631 q 233 372 233 631 q 282 183 233 246 q 424 119 330 119 q 625 172 530 119 l 625 33 q 534 -3 583 8 q 416 -14 486 -14 z "},"d":{"ha":865,"x_min":69,"x_max":751,"o":"m 367 -14 q 148 88 227 -14 q 69 374 69 190 q 149 661 69 558 q 370 764 229 764 q 595 654 517 764 l 603 654 q 591 782 591 735 l 591 1055 l 751 1055 l 751 0 l 627 0 l 599 98 l 591 98 q 367 -14 515 -14 m 410 115 q 553 171 508 115 q 599 350 597 226 l 599 372 q 553 574 599 514 q 408 633 507 633 q 279 565 324 633 q 233 371 233 497 q 277 181 233 246 q 410 115 321 115 z "},"e":{"ha":800,"x_min":69,"x_max":733,"o":"m 441 -14 q 168 89 267 -14 q 69 370 69 191 q 161 659 69 553 q 412 764 252 764 q 647 673 561 764 q 733 425 733 583 l 733 339 l 233 339 q 292 171 237 230 q 449 113 348 113 q 573 125 515 113 q 696 167 630 138 l 696 37 q 578 -2 637 9 q 441 -14 518 -14 m 412 643 q 291 595 336 643 q 236 454 245 547 l 576 454 q 532 595 575 547 q 412 643 488 643 z "},"f":{"ha":504,"x_min":24,"x_max":566,"o":"m 490 629 l 307 629 l 307 0 l 147 0 l 147 629 l 24 629 l 24 704 l 147 753 l 147 802 q 210 999 147 935 q 400 1063 272 1063 q 566 1035 484 1063 l 524 914 q 411 933 465 933 q 332 900 357 933 q 307 799 307 866 l 307 750 l 490 750 l 490 629 z "},"g":{"ha":772,"x_min":16,"x_max":747,"o":"m 747 750 l 747 663 l 619 639 q 648 581 637 615 q 660 507 660 546 q 580 325 660 391 q 359 258 500 258 q 294 264 323 258 q 243 189 243 232 q 267 151 243 163 q 355 138 291 138 l 486 138 q 675 85 610 138 q 739 -68 739 32 q 634 -264 739 -195 q 330 -334 529 -334 q 96 -279 177 -334 q 16 -125 16 -225 q 59 -8 16 -56 q 182 57 103 39 q 129 101 150 71 q 109 164 109 131 q 132 235 109 206 q 203 293 156 264 q 108 375 144 318 q 72 507 72 431 q 149 696 72 629 q 368 764 226 764 q 435 759 400 764 q 488 750 470 755 l 747 750 m 158 -117 q 204 -196 158 -168 q 335 -224 251 -224 q 529 -186 465 -224 q 593 -87 593 -149 q 558 -18 593 -39 q 428 3 523 3 l 307 3 q 198 -30 239 3 q 158 -117 158 -62 m 227 507 q 263 399 227 437 q 367 361 299 361 q 505 509 505 361 q 471 622 505 582 q 367 661 437 661 q 262 622 298 661 q 227 507 227 583 z "},"h":{"ha":882,"x_min":114,"x_max":774,"o":"m 774 0 l 614 0 l 614 461 q 579 591 614 548 q 468 633 544 633 q 320 573 368 633 q 273 372 273 513 l 273 0 l 114 0 l 114 1055 l 273 1055 l 273 787 q 265 650 273 723 l 275 650 q 366 734 308 704 q 501 764 424 764 q 774 489 774 764 l 774 0 z "},"i":{"ha":387,"x_min":104,"x_max":283,"o":"m 273 0 l 114 0 l 114 750 l 273 750 l 273 0 m 104 949 q 128 1015 104 991 q 195 1038 151 1038 q 260 1015 237 1038 q 283 949 283 991 q 260 885 283 908 q 195 861 237 861 q 128 885 151 861 q 104 949 104 908 z "},"j":{"ha":387,"x_min":-82,"x_max":283,"o":"m 37 -334 q -82 -317 -35 -334 l -82 -191 q 12 -203 -36 -203 q 114 -87 114 -203 l 114 750 l 273 750 l 273 -98 q 213 -274 273 -214 q 37 -334 152 -334 m 104 949 q 128 1015 104 991 q 195 1038 151 1038 q 260 1015 237 1038 q 283 949 283 991 q 260 885 283 908 q 195 861 237 861 q 128 885 151 861 q 104 949 104 908 z "},"k":{"ha":794,"x_min":114,"x_max":787,"o":"m 268 396 l 358 509 l 585 750 l 768 750 l 467 428 l 787 0 l 600 0 l 359 329 l 272 257 l 272 0 l 114 0 l 114 1055 l 272 1055 l 272 541 l 264 396 l 268 396 z "},"l":{"ha":387,"x_min":114,"x_max":273,"o":"m 273 0 l 114 0 l 114 1055 l 273 1055 l 273 0 z "},"m":{"ha":1328,"x_min":114,"x_max":1219,"o":"m 746 0 l 586 0 l 586 463 q 553 591 586 549 q 452 633 521 633 q 316 573 359 633 q 273 374 273 513 l 273 0 l 114 0 l 114 750 l 239 750 l 261 652 l 269 652 q 360 734 300 705 q 490 764 419 764 q 720 646 663 764 l 730 646 q 824 732 764 701 q 962 764 884 764 q 1158 696 1097 764 q 1219 489 1219 628 l 1219 0 l 1060 0 l 1060 463 q 1027 591 1060 549 q 925 633 994 633 q 789 575 832 633 q 746 397 746 517 l 746 0 z "},"n":{"ha":882,"x_min":114,"x_max":774,"o":"m 774 0 l 614 0 l 614 461 q 579 591 614 548 q 468 633 544 633 q 320 574 367 633 q 273 374 273 514 l 273 0 l 114 0 l 114 750 l 239 750 l 261 652 l 269 652 q 366 734 303 705 q 504 764 428 764 q 774 489 774 764 l 774 0 z "},"o":{"ha":848,"x_min":69,"x_max":779,"o":"m 779 376 q 685 90 779 193 q 422 -14 591 -14 q 237 34 317 -14 q 113 170 156 81 q 69 376 69 259 q 163 661 69 559 q 427 764 256 764 q 684 659 589 764 q 779 376 779 554 m 233 376 q 425 117 233 117 q 615 376 615 117 q 424 633 615 633 q 278 567 323 633 q 233 376 233 500 z "},"p":{"ha":865,"x_min":114,"x_max":794,"o":"m 494 -14 q 273 89 352 -14 l 264 89 q 273 -26 273 -6 l 273 -334 l 114 -334 l 114 750 l 243 750 q 265 650 248 729 l 273 650 q 497 764 348 764 q 716 662 637 764 q 794 376 794 560 q 714 90 794 193 q 494 -14 635 -14 m 456 633 q 317 578 361 633 q 273 400 273 522 l 273 376 q 317 178 273 239 q 458 117 360 117 q 586 184 541 117 q 631 378 631 252 q 586 569 631 504 q 456 633 542 633 z "},"q":{"ha":865,"x_min":69,"x_max":751,"o":"m 411 114 q 555 172 511 114 q 599 347 599 230 l 599 372 q 554 572 599 511 q 408 633 509 633 q 278 566 323 633 q 233 371 233 498 q 411 114 233 114 m 366 -14 q 148 89 227 -14 q 69 374 69 191 q 149 660 69 557 q 370 764 229 764 q 496 738 440 764 q 596 652 552 711 l 602 652 l 619 750 l 751 750 l 751 -334 l 591 -334 l 591 -16 q 594 47 591 14 q 599 98 597 81 l 590 98 q 366 -14 519 -14 z "},"r":{"ha":599,"x_min":114,"x_max":574,"o":"m 494 764 q 574 757 543 764 l 558 608 q 488 616 524 616 q 333 554 392 616 q 273 392 273 492 l 273 0 l 114 0 l 114 750 l 239 750 l 260 618 l 268 618 q 365 724 305 685 q 494 764 425 764 z "},"s":{"ha":676,"x_min":66,"x_max":618,"o":"m 618 214 q 538 45 618 104 q 309 -14 458 -14 q 68 32 159 -14 l 68 170 q 314 109 200 109 q 461 197 461 109 q 445 245 461 226 q 391 284 429 264 q 288 330 354 304 q 112 431 158 380 q 66 561 66 481 q 144 710 66 657 q 355 764 222 764 q 606 710 488 764 l 554 590 q 350 640 433 640 q 224 568 224 640 q 257 509 224 533 q 400 441 290 484 q 535 376 493 406 q 597 307 577 346 q 618 214 618 268 z "},"t":{"ha":546,"x_min":26,"x_max":510,"o":"m 393 115 q 510 134 452 115 l 510 14 q 442 -6 484 2 q 355 -14 400 -14 q 129 225 129 -14 l 129 629 l 26 629 l 26 700 l 136 758 l 191 917 l 289 917 l 289 750 l 503 750 l 503 629 l 289 629 l 289 228 q 318 143 289 170 q 393 115 347 115 z "},"u":{"ha":882,"x_min":107,"x_max":768,"o":"m 643 0 l 621 98 l 612 98 q 518 16 579 46 q 378 -14 456 -14 q 174 54 241 -14 q 107 260 107 122 l 107 750 l 268 750 l 268 288 q 303 158 268 201 q 414 115 338 115 q 561 175 514 115 q 608 376 608 235 l 608 750 l 768 750 l 768 0 l 643 0 z "},"v":{"ha":743,"x_min":0,"x_max":743,"o":"m 285 0 l 0 750 l 168 750 l 321 314 q 368 136 360 204 l 374 136 q 421 314 380 185 l 574 750 l 743 750 l 457 0 l 285 0 z "},"w":{"ha":1135,"x_min":14,"x_max":1120,"o":"m 729 0 l 632 350 q 568 608 614 406 l 562 608 q 500 349 523 425 l 400 0 l 224 0 l 14 750 l 176 750 l 272 380 q 318 146 304 243 l 322 146 q 343 259 329 195 q 367 355 357 323 l 481 750 l 656 750 l 766 355 q 792 254 777 322 q 810 147 807 185 l 815 147 q 863 380 825 231 l 960 750 l 1120 750 l 908 0 l 729 0 z "},"x":{"ha":765,"x_min":17,"x_max":747,"o":"m 281 383 l 29 750 l 211 750 l 382 488 l 554 750 l 734 750 l 482 383 l 747 0 l 567 0 l 382 281 l 197 0 l 17 0 l 281 383 z "},"y":{"ha":745,"x_min":0,"x_max":745,"o":"m 0 750 l 174 750 l 326 325 q 372 154 361 234 l 378 154 q 400 244 384 191 q 572 750 416 298 l 745 750 l 424 -100 q 132 -334 336 -334 q 29 -322 79 -334 l 29 -196 q 111 -204 65 -204 q 273 -71 227 -204 l 301 0 l 0 750 z "},"z":{"ha":664,"x_min":46,"x_max":615,"o":"m 615 0 l 46 0 l 46 98 l 425 628 l 69 628 l 69 750 l 604 750 l 604 639 l 233 122 l 615 122 l 615 0 z "},"{":{"ha":536,"x_min":31,"x_max":505,"o":"m 211 195 q 31 321 211 321 l 31 450 q 166 481 122 450 q 211 575 211 512 l 211 786 q 284 942 211 892 q 505 991 358 991 l 505 868 q 393 837 428 865 q 358 753 358 808 l 358 551 q 203 390 358 416 l 203 382 q 358 221 358 357 l 358 18 q 393 -66 358 -37 q 505 -96 427 -94 l 505 -220 q 280 -166 349 -218 q 211 1 211 -115 l 211 195 z "},"|":{"ha":765,"x_min":321,"x_max":443,"o":"m 321 1053 l 443 1053 l 443 -326 l 321 -326 l 321 1053 z "},"}":{"ha":515,"x_min":31,"x_max":485,"o":"m 314 -14 q 247 -169 314 -119 q 31 -220 179 -218 l 31 -96 q 131 -70 95 -95 q 167 18 167 -44 l 167 196 q 203 323 167 278 q 322 382 239 368 l 322 390 q 167 551 167 416 l 167 753 q 136 837 167 808 q 31 868 105 865 l 31 991 q 248 940 182 991 q 314 770 314 888 l 314 575 q 357 479 314 507 q 485 450 400 450 l 485 321 q 358 292 401 321 q 314 195 314 263 l 314 -14 z "},"~":{"ha":793,"x_min":65,"x_max":728,"o":"m 224 469 q 148 449 190 469 q 65 387 106 429 l 65 517 q 235 590 132 590 q 319 581 279 590 q 419 547 359 572 q 568 510 508 510 q 646 531 604 510 q 728 591 688 552 l 728 463 q 558 387 656 387 q 472 398 514 387 q 372 432 429 408 q 224 469 286 469 z "}," ":{"ha":361,"x_min":0,"x_max":0,"o":""},"¡":{"ha":383,"x_min":90,"x_max":292,"o":"m 131 437 l 249 437 l 283 -252 l 96 -252 l 131 437 m 292 654 q 266 578 292 604 q 191 551 241 551 q 116 578 142 551 q 90 654 90 605 q 116 730 90 701 q 191 758 142 758 q 266 731 239 758 q 292 654 292 703 z "},"¢":{"ha":793,"x_min":113,"x_max":688,"o":"m 669 161 q 494 118 589 121 l 494 -14 l 389 -14 l 389 122 q 180 238 248 143 q 113 503 113 333 q 181 772 113 675 q 389 890 249 869 l 389 1006 l 496 1006 l 496 896 q 688 851 599 892 l 640 724 q 471 764 541 764 q 324 699 372 764 q 277 504 277 635 q 326 312 277 372 q 468 252 374 252 q 565 262 519 252 q 669 297 610 272 l 669 161 z "},"£":{"ha":793,"x_min":49,"x_max":753,"o":"m 468 1004 q 722 949 600 1004 l 671 825 q 478 873 561 873 q 339 725 339 873 l 339 559 l 608 559 l 608 443 l 339 443 l 339 319 q 317 214 339 258 q 240 140 294 171 l 753 140 l 753 0 l 49 0 l 49 132 q 147 197 115 153 q 179 318 179 242 l 179 443 l 52 443 l 52 559 l 179 559 l 179 733 q 256 932 179 861 q 468 1004 333 1004 z "},"¤":{"ha":793,"x_min":79,"x_max":713,"o":"m 126 490 q 170 635 126 564 l 79 725 l 161 806 l 250 718 q 396 761 318 761 q 541 717 474 761 l 631 806 l 713 726 l 624 636 q 667 490 667 568 q 624 343 667 410 l 711 256 l 631 175 l 541 262 q 396 221 473 221 q 250 262 311 221 l 161 176 l 81 257 l 170 345 q 126 490 126 412 m 240 490 q 286 379 240 424 q 396 334 332 334 q 508 379 462 334 q 554 490 554 424 q 508 602 554 556 q 396 648 462 648 q 287 602 333 648 q 240 490 240 556 z "},"¥":{"ha":793,"x_min":12,"x_max":779,"o":"m 396 541 l 614 991 l 779 991 l 509 476 l 663 476 l 663 374 l 472 374 l 472 269 l 663 269 l 663 165 l 472 165 l 472 0 l 319 0 l 319 165 l 127 165 l 127 269 l 319 269 l 319 374 l 127 374 l 127 476 l 279 476 l 12 991 l 179 991 l 396 541 z "},"¦":{"ha":765,"x_min":321,"x_max":443,"o":"m 321 1053 l 443 1053 l 443 514 l 321 514 l 321 1053 m 321 214 l 443 214 l 443 -326 l 321 -326 l 321 214 z "},"§":{"ha":696,"x_min":78,"x_max":614,"o":"m 87 547 q 114 646 87 602 q 189 720 140 690 q 90 879 90 776 q 164 1016 90 966 q 364 1065 239 1065 q 482 1054 426 1065 q 606 1014 538 1042 l 559 904 q 440 947 481 938 q 358 956 399 956 q 227 882 227 956 q 264 818 227 845 q 393 757 301 791 q 563 657 512 711 q 614 530 614 604 q 519 350 614 410 q 614 199 614 296 q 534 46 614 102 q 313 -9 454 -9 q 78 39 169 -9 l 78 160 q 195 116 130 133 q 315 98 260 98 q 475 187 475 98 q 460 235 475 216 q 412 271 446 253 q 313 315 378 290 q 173 384 217 353 q 108 455 129 416 q 87 547 87 495 m 212 561 q 229 507 212 530 q 282 460 245 483 q 414 399 319 437 q 488 513 488 443 q 446 598 488 564 q 296 669 404 633 q 236 628 259 659 q 212 561 212 597 z "},"¨":{"ha":822,"x_min":199,"x_max":623,"o":"m 199 949 q 221 1009 199 991 q 277 1028 244 1028 q 334 1007 313 1028 q 355 949 355 986 q 334 891 355 913 q 277 869 312 869 q 221 889 244 869 q 199 949 199 909 m 465 949 q 488 1009 465 991 q 543 1028 511 1028 q 601 1007 579 1028 q 623 949 623 986 q 600 891 623 912 q 543 869 578 869 q 488 889 511 869 q 465 949 465 909 z "},"©":{"ha":1156,"x_min":68,"x_max":1088,"o":"m 606 701 q 490 647 530 701 q 449 496 449 592 q 486 342 449 396 q 606 289 522 289 q 686 299 643 289 q 760 323 728 309 l 760 216 q 600 182 682 182 q 393 263 467 182 q 319 496 319 345 q 394 725 319 641 q 602 808 469 808 q 787 761 695 808 l 743 664 q 606 701 671 701 m 68 496 q 136 750 68 631 q 322 937 203 869 q 578 1006 441 1006 q 832 938 713 1006 q 1019 751 951 870 q 1088 496 1088 633 q 1022 245 1088 362 q 838 57 956 127 q 578 -14 719 -14 q 319 57 437 -14 q 134 244 200 127 q 68 496 68 361 m 151 496 q 209 282 151 380 q 365 126 266 183 q 578 69 464 69 q 792 127 693 69 q 948 283 891 185 q 1004 496 1004 381 q 947 709 1004 610 q 790 865 890 808 q 578 922 691 922 q 366 866 464 922 q 210 711 268 810 q 151 496 151 612 z "},"ª":{"ha":511,"x_min":39,"x_max":447,"o":"m 371 530 l 351 596 q 280 541 320 559 q 192 522 240 522 q 77 558 115 522 q 39 665 39 593 q 96 773 39 736 q 267 815 153 811 l 339 818 q 316 891 339 867 q 245 916 292 916 q 103 878 184 916 l 66 956 q 260 1003 164 1003 q 400 961 353 1003 q 447 833 447 918 l 447 530 l 371 530 m 272 745 q 187 722 224 743 q 150 667 150 700 q 215 607 150 607 q 308 635 277 607 q 339 718 339 663 l 339 747 l 272 745 z "},"«":{"ha":772,"x_min":56,"x_max":717,"o":"m 56 380 l 297 673 l 411 610 l 220 372 l 411 136 l 297 71 l 56 363 l 56 380 m 361 380 l 603 673 l 717 610 l 525 372 l 717 136 l 603 71 l 361 363 l 361 380 z "},"¬":{"ha":793,"x_min":65,"x_max":728,"o":"m 728 174 l 607 174 l 607 429 l 65 429 l 65 550 l 728 550 l 728 174 z "},"­":{"ha":447,"x_min":49,"x_max":397,"o":"m 49 304 l 49 440 l 397 440 l 397 304 l 49 304 z "},"®":{"ha":1156,"x_min":68,"x_max":1088,"o":"m 507 522 l 554 522 q 630 546 604 522 q 656 614 656 570 q 631 682 656 663 q 553 701 606 701 l 507 701 l 507 522 m 785 616 q 681 458 785 500 l 842 189 l 699 189 l 568 424 l 507 424 l 507 189 l 379 189 l 379 802 l 557 802 q 730 755 675 802 q 785 616 785 709 m 68 496 q 136 750 68 631 q 322 937 203 869 q 578 1006 441 1006 q 832 938 713 1006 q 1019 751 951 870 q 1088 496 1088 633 q 1022 245 1088 362 q 838 57 956 127 q 578 -14 719 -14 q 319 57 437 -14 q 134 244 200 127 q 68 496 68 361 m 151 496 q 209 282 151 380 q 365 126 266 183 q 578 69 464 69 q 792 127 693 69 q 948 283 891 185 q 1004 496 1004 381 q 947 709 1004 610 q 790 865 890 808 q 578 922 691 922 q 366 866 464 922 q 210 711 268 810 q 151 496 151 612 z "},"¯":{"ha":694,"x_min":-4,"x_max":699,"o":"m 699 1055 l -4 1055 l -4 1166 l 699 1166 l 699 1055 z "},"°":{"ha":595,"x_min":74,"x_max":519,"o":"m 74 782 q 138 940 74 873 q 297 1006 203 1006 q 455 941 391 1006 q 519 782 519 876 q 454 624 519 688 q 297 559 389 559 q 185 589 237 559 q 104 670 134 618 q 74 782 74 722 m 178 782 q 212 699 178 734 q 297 664 247 664 q 382 699 347 664 q 416 782 416 734 q 381 868 416 833 q 297 903 346 903 q 213 867 248 903 q 178 782 178 832 z "},"±":{"ha":793,"x_min":65,"x_max":728,"o":"m 335 450 l 65 450 l 65 571 l 335 571 l 335 847 l 457 847 l 457 571 l 728 571 l 728 450 l 457 450 l 457 175 l 335 175 l 335 450 m 65 0 l 65 121 l 728 121 l 728 0 l 65 0 z "},"²":{"ha":504,"x_min":35,"x_max":460,"o":"m 460 397 l 35 397 l 35 489 l 191 642 q 292 753 270 718 q 314 829 314 789 q 292 883 314 865 q 236 901 271 901 q 100 842 173 901 l 36 924 q 245 1004 130 1004 q 389 960 338 1004 q 440 838 440 915 q 409 730 440 781 q 285 593 378 679 l 191 505 l 460 505 l 460 397 z "},"³":{"ha":504,"x_min":31,"x_max":457,"o":"m 437 848 q 410 765 437 798 q 329 707 382 733 q 425 655 393 692 q 457 566 457 618 q 394 433 457 479 q 214 386 331 386 q 31 428 113 386 l 31 534 q 214 481 129 481 q 335 572 335 481 q 200 657 335 657 l 122 657 l 122 747 l 193 747 q 318 835 318 747 q 295 889 318 870 q 233 908 271 908 q 162 895 195 908 q 90 856 129 881 l 33 933 q 124 984 75 964 q 240 1004 174 1004 q 384 963 331 1004 q 437 848 437 921 z "},"´":{"ha":822,"x_min":245,"x_max":575,"o":"m 245 842 l 245 859 q 325 964 284 906 q 390 1064 366 1023 l 575 1064 l 575 1050 q 470 943 540 1008 q 351 842 399 878 l 245 842 z "},"µ":{"ha":888,"x_min":114,"x_max":774,"o":"m 273 286 q 421 115 273 115 q 567 175 520 115 q 614 376 614 235 l 614 750 l 774 750 l 774 0 l 650 0 l 627 100 l 618 100 q 537 15 585 43 q 418 -14 488 -14 q 269 47 323 -14 l 267 47 q 271 -32 269 28 q 273 -117 273 -92 l 273 -334 l 114 -334 l 114 750 l 273 750 l 273 286 z "},"¶":{"ha":909,"x_min":77,"x_max":775,"o":"m 775 -176 l 682 -176 l 682 951 l 553 951 l 553 -176 l 460 -176 l 460 379 q 361 367 418 367 q 145 452 214 367 q 77 707 77 536 q 151 969 77 883 q 382 1055 224 1055 l 775 1055 l 775 -176 z "},"·":{"ha":382,"x_min":90,"x_max":292,"o":"m 90 490 q 116 566 90 540 q 191 593 142 593 q 266 565 240 593 q 292 490 292 538 q 266 414 292 442 q 191 386 239 386 q 116 414 142 386 q 90 490 90 441 z "},"¸":{"ha":300,"x_min":0,"x_max":289,"o":"m 289 -183 q 82 -334 289 -334 q 0 -323 37 -334 l 0 -231 q 83 -240 37 -240 q 141 -229 120 -240 q 163 -187 163 -218 q 41 -113 163 -130 l 98 0 l 201 0 l 174 -60 q 258 -106 228 -74 q 289 -183 289 -138 z "},"¹":{"ha":504,"x_min":57,"x_max":361,"o":"m 361 397 l 235 397 l 235 745 l 237 814 l 240 876 q 213 849 229 864 q 117 774 197 834 l 57 850 l 248 991 l 361 991 l 361 397 z "},"º":{"ha":529,"x_min":41,"x_max":488,"o":"m 488 762 q 428 587 488 651 q 262 522 369 522 q 101 587 161 522 q 41 762 41 652 q 101 940 41 877 q 265 1003 161 1003 q 428 939 368 1003 q 488 762 488 875 m 151 762 q 178 650 151 687 q 264 612 204 612 q 350 650 323 612 q 376 762 376 687 q 350 876 376 839 q 264 913 323 913 q 178 876 204 913 q 151 762 151 839 z "},"»":{"ha":772,"x_min":54,"x_max":717,"o":"m 717 363 l 473 71 l 359 136 l 551 372 l 359 610 l 473 673 l 717 380 l 717 363 m 411 363 l 168 71 l 54 136 l 245 372 l 54 610 l 168 673 l 411 380 l 411 363 z "},"¼":{"ha":1153,"x_min":41,"x_max":1075,"o":"m 904 991 l 323 0 l 193 0 l 775 991 l 904 991 m 345 397 l 218 397 l 218 745 l 220 814 l 224 876 q 196 849 212 864 q 100 774 180 834 l 41 850 l 231 991 l 345 991 l 345 397 m 1075 120 l 990 120 l 990 1 l 860 1 l 860 120 l 594 120 l 594 206 l 863 599 l 990 599 l 990 217 l 1075 217 l 1075 120 m 860 217 l 860 338 q 864 471 860 404 q 804 364 829 401 l 704 217 l 860 217 z "},"½":{"ha":1153,"x_min":31,"x_max":1090,"o":"m 880 991 l 300 0 l 170 0 l 751 991 l 880 991 m 335 397 l 209 397 l 209 745 l 211 814 l 214 876 q 187 849 203 864 q 91 774 171 834 l 31 850 l 222 991 l 335 991 l 335 397 m 1090 1 l 665 1 l 665 92 l 821 245 q 923 357 901 321 q 945 433 945 393 q 923 486 945 468 q 867 505 901 505 q 730 445 804 505 l 667 527 q 876 608 761 608 q 1020 563 968 608 q 1071 441 1071 518 q 1040 333 1071 385 q 916 196 1008 282 l 821 109 l 1090 109 l 1090 1 z "},"¾":{"ha":1153,"x_min":37,"x_max":1112,"o":"m 960 991 l 379 0 l 249 0 l 831 991 l 960 991 m 1112 120 l 1027 120 l 1027 1 l 897 1 l 897 120 l 631 120 l 631 206 l 900 599 l 1027 599 l 1027 217 l 1112 217 l 1112 120 m 897 217 l 897 338 q 901 471 897 404 q 842 364 866 401 l 741 217 l 897 217 m 444 848 q 417 765 444 798 q 336 707 389 733 q 432 655 399 692 q 464 566 464 618 q 401 433 464 479 q 220 386 338 386 q 37 428 120 386 l 37 534 q 220 481 136 481 q 342 572 342 481 q 207 657 342 657 l 129 657 l 129 747 l 200 747 q 325 835 325 747 q 301 889 325 870 q 240 908 278 908 q 169 895 201 908 q 97 856 136 881 l 40 933 q 131 984 81 964 q 247 1004 180 1004 q 391 963 338 1004 q 444 848 444 921 z "},"¿":{"ha":629,"x_min":37,"x_max":623,"o":"m 441 437 l 441 395 q 414 272 441 323 q 317 167 386 221 q 212 67 233 100 q 191 -17 191 34 q 227 -102 191 -70 q 336 -134 264 -134 q 454 -115 397 -134 q 567 -71 511 -96 l 623 -192 q 335 -267 473 -267 q 116 -202 195 -267 q 37 -22 37 -137 q 52 66 37 27 q 95 140 66 104 q 201 236 124 175 q 286 320 265 288 q 307 407 307 353 l 307 437 l 441 437 m 469 654 q 444 578 469 604 q 368 551 418 551 q 294 578 319 551 q 268 654 268 605 q 294 730 268 701 q 368 758 319 758 q 443 731 417 758 q 469 654 469 703 z "},"À":{"ha":918,"x_min":0,"x_max":918,"o":"m 746 0 l 647 275 l 268 275 l 171 0 l 0 0 l 371 996 l 547 996 l 918 0 l 746 0 m 604 415 l 511 685 q 483 770 501 712 q 458 856 465 829 q 405 673 440 772 l 315 415 l 604 415 m 449 1071 q 331 1173 402 1106 q 227 1279 259 1240 l 227 1293 l 412 1293 q 482 1184 437 1246 q 556 1088 526 1122 l 556 1071 l 449 1071 z "},"Á":{"ha":918,"x_min":0,"x_max":918,"o":"m 746 0 l 647 275 l 268 275 l 171 0 l 0 0 l 371 996 l 547 996 l 918 0 l 746 0 m 604 415 l 511 685 q 483 770 501 712 q 458 856 465 829 q 405 673 440 772 l 315 415 l 604 415 m 361 1071 l 361 1088 q 440 1194 399 1135 q 505 1293 481 1252 l 690 1293 l 690 1279 q 585 1172 655 1238 q 467 1071 515 1107 l 361 1071 z "},"Â":{"ha":918,"x_min":0,"x_max":918,"o":"m 746 0 l 647 275 l 268 275 l 171 0 l 0 0 l 371 996 l 547 996 l 918 0 l 746 0 m 604 415 l 511 685 q 483 770 501 712 q 458 856 465 829 q 405 673 440 772 l 315 415 l 604 415 m 608 1071 q 454 1193 525 1120 q 301 1071 384 1123 l 194 1071 l 194 1088 q 366 1293 323 1222 l 543 1293 q 716 1088 585 1219 l 716 1071 l 608 1071 z "},"Ã":{"ha":918,"x_min":0,"x_max":918,"o":"m 746 0 l 647 275 l 268 275 l 171 0 l 0 0 l 371 996 l 547 996 l 918 0 l 746 0 m 604 415 l 511 685 q 483 770 501 712 q 458 856 465 829 q 405 673 440 772 l 315 415 l 604 415 m 557 1071 q 501 1083 528 1071 q 447 1109 473 1095 q 395 1136 420 1124 q 347 1147 370 1147 q 273 1069 292 1147 l 191 1069 q 243 1213 199 1164 q 357 1263 288 1263 q 414 1251 386 1263 q 468 1224 441 1239 q 519 1198 494 1210 q 567 1186 544 1186 q 639 1264 621 1186 l 724 1264 q 671 1122 715 1173 q 557 1071 627 1071 z "},"Ä":{"ha":918,"x_min":0,"x_max":918,"o":"m 746 0 l 647 275 l 268 275 l 171 0 l 0 0 l 371 996 l 547 996 l 918 0 l 746 0 m 604 415 l 511 685 q 483 770 501 712 q 458 856 465 829 q 405 673 440 772 l 315 415 l 604 415 m 246 1178 q 269 1239 246 1220 q 324 1257 292 1257 q 381 1236 360 1257 q 403 1178 403 1215 q 381 1120 403 1142 q 324 1099 359 1099 q 269 1118 292 1099 q 246 1178 246 1138 m 513 1178 q 535 1239 513 1220 q 591 1257 558 1257 q 648 1236 627 1257 q 670 1178 670 1215 q 648 1120 670 1141 q 591 1099 625 1099 q 535 1118 558 1099 q 513 1178 513 1138 z "},"Å":{"ha":918,"x_min":0,"x_max":918,"o":"m 746 0 l 647 275 l 268 275 l 171 0 l 0 0 l 371 996 l 547 996 l 918 0 l 746 0 m 604 415 l 511 685 q 483 770 501 712 q 458 856 465 829 q 405 673 440 772 l 315 415 l 604 415 m 619 1069 q 575 957 619 1000 q 457 914 530 914 q 340 957 384 914 q 297 1068 297 999 q 340 1179 297 1137 q 457 1221 383 1221 q 573 1179 528 1221 q 619 1069 619 1137 m 529 1068 q 509 1121 529 1102 q 457 1141 488 1141 q 405 1121 425 1141 q 385 1068 385 1102 q 457 996 385 996 q 509 1015 488 996 q 529 1068 529 1034 z "},"Æ":{"ha":1267,"x_min":-1,"x_max":1185,"o":"m 1185 0 l 635 0 l 635 275 l 293 275 l 165 0 l -1 0 l 458 991 l 1185 991 l 1185 854 l 798 854 l 798 585 l 1158 585 l 1158 449 l 798 449 l 798 138 l 1185 138 l 1185 0 m 354 415 l 635 415 l 635 850 l 551 850 l 354 415 z "},"Ç":{"ha":880,"x_min":82,"x_max":835,"o":"m 553 867 q 333 768 413 867 q 253 494 253 669 q 330 218 253 312 q 553 125 407 125 q 675 137 616 125 q 798 170 734 150 l 798 31 q 533 -14 681 -14 q 199 118 315 -14 q 82 496 82 250 q 139 766 82 650 q 302 944 195 882 q 554 1006 410 1006 q 835 942 706 1006 l 777 807 q 670 849 726 831 q 553 867 614 867 m 646 -183 q 439 -334 646 -334 q 357 -323 394 -334 l 357 -231 q 440 -240 393 -240 q 498 -229 477 -240 q 519 -187 519 -218 q 398 -113 519 -130 l 455 0 l 558 0 l 530 -60 q 615 -106 585 -74 q 646 -183 646 -138 z "},"È":{"ha":775,"x_min":131,"x_max":692,"o":"m 692 0 l 131 0 l 131 991 l 692 991 l 692 854 l 293 854 l 293 585 l 667 585 l 667 449 l 293 449 l 293 138 l 692 138 l 692 0 m 418 1071 q 300 1173 372 1106 q 196 1279 229 1240 l 196 1293 l 381 1293 q 451 1184 407 1246 q 526 1088 496 1122 l 526 1071 l 418 1071 z "},"É":{"ha":775,"x_min":131,"x_max":692,"o":"m 692 0 l 131 0 l 131 991 l 692 991 l 692 854 l 293 854 l 293 585 l 667 585 l 667 449 l 293 449 l 293 138 l 692 138 l 692 0 m 298 1071 l 298 1088 q 378 1194 337 1135 q 443 1293 419 1252 l 628 1293 l 628 1279 q 523 1172 593 1238 q 404 1071 452 1107 l 298 1071 z "},"Ê":{"ha":775,"x_min":131,"x_max":692,"o":"m 692 0 l 131 0 l 131 991 l 692 991 l 692 854 l 293 854 l 293 585 l 667 585 l 667 449 l 293 449 l 293 138 l 692 138 l 692 0 m 564 1071 q 409 1193 480 1120 q 256 1071 339 1123 l 149 1071 l 149 1088 q 321 1293 279 1222 l 498 1293 q 671 1088 541 1219 l 671 1071 l 564 1071 z "},"Ë":{"ha":775,"x_min":131,"x_max":692,"o":"m 692 0 l 131 0 l 131 991 l 692 991 l 692 854 l 293 854 l 293 585 l 667 585 l 667 449 l 293 449 l 293 138 l 692 138 l 692 0 m 201 1178 q 224 1239 201 1220 q 279 1257 247 1257 q 337 1236 315 1257 q 358 1178 358 1215 q 336 1120 358 1142 q 279 1099 315 1099 q 224 1118 247 1099 q 201 1178 201 1138 m 468 1178 q 491 1239 468 1220 q 546 1257 513 1257 q 604 1236 582 1257 q 625 1178 625 1215 q 603 1120 625 1141 q 546 1099 581 1099 q 491 1118 513 1099 q 468 1178 468 1138 z "},"Ð":{"ha":1015,"x_min":32,"x_max":932,"o":"m 932 505 q 795 131 932 261 q 403 0 659 0 l 131 0 l 131 422 l 32 422 l 32 558 l 131 558 l 131 991 l 433 991 q 800 864 669 991 q 932 505 932 736 m 761 500 q 676 766 761 676 q 427 856 592 856 l 293 856 l 293 558 l 501 558 l 501 422 l 293 422 l 293 136 l 401 136 q 761 500 761 136 z "},"Ñ":{"ha":1088,"x_min":131,"x_max":957,"o":"m 957 0 l 758 0 l 271 790 l 265 790 l 269 746 q 278 515 278 620 l 278 0 l 131 0 l 131 991 l 328 991 l 814 205 l 818 205 q 812 319 817 221 q 808 472 808 417 l 808 991 l 957 991 l 957 0 m 647 1071 q 591 1083 618 1071 q 537 1109 564 1095 q 486 1136 511 1124 q 437 1147 460 1147 q 363 1069 382 1147 l 281 1069 q 333 1213 289 1164 q 447 1263 378 1263 q 504 1251 476 1263 q 558 1224 532 1239 q 609 1198 585 1210 q 657 1186 634 1186 q 729 1264 711 1186 l 814 1264 q 762 1122 806 1173 q 647 1071 718 1071 z "},"Ò":{"ha":1093,"x_min":82,"x_max":1011,"o":"m 1011 497 q 890 121 1011 255 q 547 -14 769 -14 q 202 120 323 -14 q 82 498 82 253 q 203 876 82 744 q 549 1007 324 1007 q 890 873 770 1007 q 1011 497 1011 740 m 254 497 q 328 219 254 314 q 547 125 402 125 q 765 218 692 125 q 839 497 839 312 q 766 774 839 680 q 549 868 693 868 q 329 774 403 868 q 254 497 254 680 m 549 1071 q 430 1173 502 1106 q 326 1279 359 1240 l 326 1293 l 511 1293 q 582 1184 537 1246 q 656 1088 626 1122 l 656 1071 l 549 1071 z "},"Ó":{"ha":1093,"x_min":82,"x_max":1011,"o":"m 1011 497 q 890 121 1011 255 q 547 -14 769 -14 q 202 120 323 -14 q 82 498 82 253 q 203 876 82 744 q 549 1007 324 1007 q 890 873 770 1007 q 1011 497 1011 740 m 254 497 q 328 219 254 314 q 547 125 402 125 q 765 218 692 125 q 839 497 839 312 q 766 774 839 680 q 549 868 693 868 q 329 774 403 868 q 254 497 254 680 m 446 1071 l 446 1088 q 525 1194 484 1135 q 590 1293 566 1252 l 775 1293 l 775 1279 q 670 1172 740 1238 q 551 1071 600 1107 l 446 1071 z "},"Ô":{"ha":1093,"x_min":82,"x_max":1011,"o":"m 1011 497 q 890 121 1011 255 q 547 -14 769 -14 q 202 120 323 -14 q 82 498 82 253 q 203 876 82 744 q 549 1007 324 1007 q 890 873 770 1007 q 1011 497 1011 740 m 254 497 q 328 219 254 314 q 547 125 402 125 q 765 218 692 125 q 839 497 839 312 q 766 774 839 680 q 549 868 693 868 q 329 774 403 868 q 254 497 254 680 m 694 1071 q 540 1193 611 1120 q 387 1071 470 1123 l 280 1071 l 280 1088 q 452 1293 410 1222 l 629 1293 q 802 1088 671 1219 l 802 1071 l 694 1071 z "},"Õ":{"ha":1093,"x_min":82,"x_max":1011,"o":"m 1011 497 q 890 121 1011 255 q 547 -14 769 -14 q 202 120 323 -14 q 82 498 82 253 q 203 876 82 744 q 549 1007 324 1007 q 890 873 770 1007 q 1011 497 1011 740 m 254 497 q 328 219 254 314 q 547 125 402 125 q 765 218 692 125 q 839 497 839 312 q 766 774 839 680 q 549 868 693 868 q 329 774 403 868 q 254 497 254 680 m 644 1071 q 588 1083 616 1071 q 534 1109 561 1095 q 483 1136 508 1124 q 435 1147 458 1147 q 361 1069 380 1147 l 278 1069 q 331 1213 286 1164 q 444 1263 375 1263 q 501 1251 473 1263 q 555 1224 529 1239 q 607 1198 582 1210 q 654 1186 631 1186 q 726 1264 708 1186 l 811 1264 q 759 1122 803 1173 q 644 1071 715 1071 z "},"Ö":{"ha":1093,"x_min":82,"x_max":1011,"o":"m 1011 497 q 890 121 1011 255 q 547 -14 769 -14 q 202 120 323 -14 q 82 498 82 253 q 203 876 82 744 q 549 1007 324 1007 q 890 873 770 1007 q 1011 497 1011 740 m 254 497 q 328 219 254 314 q 547 125 402 125 q 765 218 692 125 q 839 497 839 312 q 766 774 839 680 q 549 868 693 868 q 329 774 403 868 q 254 497 254 680 m 336 1178 q 359 1239 336 1220 q 414 1257 382 1257 q 472 1236 450 1257 q 493 1178 493 1215 q 471 1120 493 1142 q 414 1099 450 1099 q 359 1118 382 1099 q 336 1178 336 1138 m 603 1178 q 626 1239 603 1220 q 681 1257 648 1257 q 739 1236 717 1257 q 760 1178 760 1215 q 738 1120 760 1141 q 681 1099 715 1099 q 626 1118 648 1099 q 603 1178 603 1138 z "},"×":{"ha":793,"x_min":89,"x_max":704,"o":"m 310 490 l 89 711 l 174 798 l 396 576 l 619 798 l 704 714 l 481 490 l 701 268 l 618 183 l 395 404 l 175 183 l 90 268 l 310 490 z "},"Ø":{"ha":1093,"x_min":82,"x_max":1011,"o":"m 1011 497 q 890 121 1011 255 q 547 -14 769 -14 q 302 41 403 -14 l 239 -52 l 143 12 l 210 110 q 82 498 82 243 q 203 876 82 744 q 549 1007 324 1007 q 789 951 684 1007 l 850 1039 l 946 977 l 879 882 q 1011 497 1011 747 m 839 497 q 785 742 839 650 l 387 165 q 547 125 453 125 q 765 218 692 125 q 839 497 839 312 m 254 497 q 307 252 254 340 l 705 828 q 549 868 643 868 q 329 774 403 868 q 254 497 254 680 z "},"Ù":{"ha":1031,"x_min":122,"x_max":908,"o":"m 908 991 l 908 350 q 861 158 908 240 q 725 31 814 75 q 511 -14 635 -14 q 224 84 327 -14 q 122 353 122 182 l 122 991 l 285 991 l 285 364 q 342 183 285 241 q 517 125 399 125 q 746 366 746 125 l 746 991 l 908 991 m 505 1071 q 387 1173 458 1106 q 283 1279 315 1240 l 283 1293 l 468 1293 q 538 1184 494 1246 q 612 1088 583 1122 l 612 1071 l 505 1071 z "},"Ú":{"ha":1031,"x_min":122,"x_max":908,"o":"m 908 991 l 908 350 q 861 158 908 240 q 725 31 814 75 q 511 -14 635 -14 q 224 84 327 -14 q 122 353 122 182 l 122 991 l 285 991 l 285 364 q 342 183 285 241 q 517 125 399 125 q 746 366 746 125 l 746 991 l 908 991 m 407 1071 l 407 1088 q 487 1194 446 1135 q 551 1293 528 1252 l 736 1293 l 736 1279 q 631 1172 701 1238 q 513 1071 561 1107 l 407 1071 z "},"Û":{"ha":1031,"x_min":122,"x_max":908,"o":"m 908 991 l 908 350 q 861 158 908 240 q 725 31 814 75 q 511 -14 635 -14 q 224 84 327 -14 q 122 353 122 182 l 122 991 l 285 991 l 285 364 q 342 183 285 241 q 517 125 399 125 q 746 366 746 125 l 746 991 l 908 991 m 663 1071 q 508 1193 579 1120 q 355 1071 438 1123 l 248 1071 l 248 1088 q 420 1293 378 1222 l 597 1293 q 770 1088 640 1219 l 770 1071 l 663 1071 z "},"Ü":{"ha":1031,"x_min":122,"x_max":908,"o":"m 908 991 l 908 350 q 861 158 908 240 q 725 31 814 75 q 511 -14 635 -14 q 224 84 327 -14 q 122 353 122 182 l 122 991 l 285 991 l 285 364 q 342 183 285 241 q 517 125 399 125 q 746 366 746 125 l 746 991 l 908 991 m 302 1178 q 325 1239 302 1220 q 380 1257 347 1257 q 437 1236 416 1257 q 458 1178 458 1215 q 437 1120 458 1142 q 380 1099 415 1099 q 325 1118 347 1099 q 302 1178 302 1138 m 568 1178 q 591 1239 568 1220 q 646 1257 614 1257 q 704 1236 682 1257 q 726 1178 726 1215 q 703 1120 726 1141 q 646 1099 681 1099 q 591 1118 614 1099 q 568 1178 568 1138 z "},"Ý":{"ha":822,"x_min":0,"x_max":822,"o":"m 411 539 l 646 991 l 822 991 l 492 385 l 492 0 l 329 0 l 329 379 l 0 991 l 176 991 l 411 539 m 305 1071 l 305 1088 q 385 1194 344 1135 q 450 1293 426 1252 l 635 1293 l 635 1279 q 529 1172 600 1238 q 411 1071 459 1107 l 305 1071 z "},"Þ":{"ha":860,"x_min":131,"x_max":793,"o":"m 793 526 q 694 290 793 372 q 407 207 595 207 l 293 207 l 293 0 l 131 0 l 131 991 l 293 991 l 293 827 l 427 827 q 701 751 608 827 q 793 526 793 675 m 293 342 l 383 342 q 568 385 510 342 q 627 522 627 427 q 574 650 627 608 q 404 692 521 692 l 293 692 l 293 342 z "},"ß":{"ha":925,"x_min":114,"x_max":869,"o":"m 779 850 q 753 754 779 800 q 682 675 727 709 q 603 608 621 628 q 585 570 585 589 q 600 532 585 549 q 654 489 615 515 l 718 446 q 810 371 781 404 q 854 301 840 339 q 869 215 869 263 q 797 45 869 103 q 586 -14 724 -14 q 383 31 457 -14 l 383 165 q 477 124 422 140 q 578 107 532 107 q 708 210 708 107 q 685 281 708 251 q 579 361 661 311 q 463 452 498 410 q 428 551 428 494 q 451 630 428 594 q 522 701 474 665 q 595 767 573 739 q 616 831 616 796 q 571 907 616 880 q 450 935 526 935 q 319 898 364 935 q 273 790 273 861 l 273 0 l 114 0 l 114 793 q 201 993 114 924 q 450 1063 288 1063 q 691 1006 603 1063 q 779 850 779 949 z "},"à":{"ha":806,"x_min":61,"x_max":697,"o":"m 583 0 l 551 104 l 546 104 q 437 11 492 36 q 296 -14 382 -14 q 123 46 185 -14 q 61 215 61 106 q 147 390 61 331 q 410 454 233 449 l 539 458 l 539 498 q 506 606 539 570 q 401 642 472 642 q 291 625 344 642 q 189 585 238 608 l 138 699 q 271 747 199 730 q 408 764 344 764 q 624 701 551 764 q 697 505 697 639 l 697 0 l 583 0 m 346 109 q 485 157 433 109 q 538 293 538 205 l 538 358 l 441 354 q 278 316 329 350 q 227 214 227 283 q 256 136 227 163 q 346 109 286 109 m 398 842 q 280 944 351 877 q 176 1050 208 1010 l 176 1064 l 361 1064 q 431 955 387 1017 q 505 859 475 893 l 505 842 l 398 842 z "},"á":{"ha":806,"x_min":61,"x_max":697,"o":"m 583 0 l 551 104 l 546 104 q 437 11 492 36 q 296 -14 382 -14 q 123 46 185 -14 q 61 215 61 106 q 147 390 61 331 q 410 454 233 449 l 539 458 l 539 498 q 506 606 539 570 q 401 642 472 642 q 291 625 344 642 q 189 585 238 608 l 138 699 q 271 747 199 730 q 408 764 344 764 q 624 701 551 764 q 697 505 697 639 l 697 0 l 583 0 m 346 109 q 485 157 433 109 q 538 293 538 205 l 538 358 l 441 354 q 278 316 329 350 q 227 214 227 283 q 256 136 227 163 q 346 109 286 109 m 297 842 l 297 859 q 377 964 336 906 q 441 1064 418 1023 l 627 1064 l 627 1050 q 521 943 591 1008 q 403 842 451 878 l 297 842 z "},"â":{"ha":806,"x_min":61,"x_max":697,"o":"m 583 0 l 551 104 l 546 104 q 437 11 492 36 q 296 -14 382 -14 q 123 46 185 -14 q 61 215 61 106 q 147 390 61 331 q 410 454 233 449 l 539 458 l 539 498 q 506 606 539 570 q 401 642 472 642 q 291 625 344 642 q 189 585 238 608 l 138 699 q 271 747 199 730 q 408 764 344 764 q 624 701 551 764 q 697 505 697 639 l 697 0 l 583 0 m 346 109 q 485 157 433 109 q 538 293 538 205 l 538 358 l 441 354 q 278 316 329 350 q 227 214 227 283 q 256 136 227 163 q 346 109 286 109 m 552 842 q 397 964 469 891 q 245 842 328 894 l 138 842 l 138 859 q 310 1064 267 993 l 486 1064 q 660 859 529 989 l 660 842 l 552 842 z "},"ã":{"ha":806,"x_min":61,"x_max":697,"o":"m 583 0 l 551 104 l 546 104 q 437 11 492 36 q 296 -14 382 -14 q 123 46 185 -14 q 61 215 61 106 q 147 390 61 331 q 410 454 233 449 l 539 458 l 539 498 q 506 606 539 570 q 401 642 472 642 q 291 625 344 642 q 189 585 238 608 l 138 699 q 271 747 199 730 q 408 764 344 764 q 624 701 551 764 q 697 505 697 639 l 697 0 l 583 0 m 346 109 q 485 157 433 109 q 538 293 538 205 l 538 358 l 441 354 q 278 316 329 350 q 227 214 227 283 q 256 136 227 163 q 346 109 286 109 m 507 842 q 451 853 479 842 q 397 880 424 865 q 346 906 371 895 q 298 918 321 918 q 224 840 243 918 l 141 840 q 194 984 149 935 q 307 1034 238 1034 q 364 1022 336 1034 q 418 995 392 1010 q 470 969 445 981 q 517 957 494 957 q 589 1035 571 957 l 674 1035 q 622 893 666 944 q 507 842 578 842 z "},"ä":{"ha":806,"x_min":61,"x_max":697,"o":"m 583 0 l 551 104 l 546 104 q 437 11 492 36 q 296 -14 382 -14 q 123 46 185 -14 q 61 215 61 106 q 147 390 61 331 q 410 454 233 449 l 539 458 l 539 498 q 506 606 539 570 q 401 642 472 642 q 291 625 344 642 q 189 585 238 608 l 138 699 q 271 747 199 730 q 408 764 344 764 q 624 701 551 764 q 697 505 697 639 l 697 0 l 583 0 m 346 109 q 485 157 433 109 q 538 293 538 205 l 538 358 l 441 354 q 278 316 329 350 q 227 214 227 283 q 256 136 227 163 q 346 109 286 109 m 191 949 q 214 1009 191 991 q 269 1028 237 1028 q 327 1007 305 1028 q 348 949 348 986 q 326 891 348 913 q 269 869 304 869 q 214 889 237 869 q 191 949 191 909 m 458 949 q 480 1009 458 991 q 536 1028 503 1028 q 593 1007 572 1028 q 615 949 615 986 q 593 891 615 912 q 536 869 570 869 q 480 889 503 869 q 458 949 458 909 z "},"å":{"ha":806,"x_min":61,"x_max":697,"o":"m 583 0 l 551 104 l 546 104 q 437 11 492 36 q 296 -14 382 -14 q 123 46 185 -14 q 61 215 61 106 q 147 390 61 331 q 410 454 233 449 l 539 458 l 539 498 q 506 606 539 570 q 401 642 472 642 q 291 625 344 642 q 189 585 238 608 l 138 699 q 271 747 199 730 q 408 764 344 764 q 624 701 551 764 q 697 505 697 639 l 697 0 l 583 0 m 346 109 q 485 157 433 109 q 538 293 538 205 l 538 358 l 441 354 q 278 316 329 350 q 227 214 227 283 q 256 136 227 163 q 346 109 286 109 m 570 996 q 526 883 570 926 q 408 840 481 840 q 292 883 335 840 q 248 994 248 925 q 291 1105 248 1063 q 408 1147 334 1147 q 525 1105 479 1147 q 570 996 570 1063 m 480 994 q 460 1047 480 1028 q 408 1067 439 1067 q 356 1047 376 1067 q 336 994 336 1028 q 408 922 336 922 q 460 941 439 922 q 480 994 480 960 z "},"æ":{"ha":1232,"x_min":61,"x_max":1166,"o":"m 61 215 q 143 390 61 332 q 395 454 226 449 l 522 458 l 522 510 q 386 642 522 642 q 178 586 290 642 l 127 699 q 258 747 187 730 q 396 764 329 764 q 627 659 559 764 q 861 764 708 764 q 1084 672 1001 764 q 1166 427 1166 581 l 1166 340 l 684 340 q 888 113 690 113 q 1129 167 1013 113 l 1129 37 q 1013 -2 1071 9 q 880 -14 955 -14 q 712 23 785 -14 q 593 135 638 60 q 464 18 529 50 q 300 -14 398 -14 q 124 47 188 -14 q 61 215 61 109 m 227 214 q 339 109 227 109 q 472 158 423 109 q 521 293 521 207 l 521 358 l 429 354 q 275 317 324 350 q 227 214 227 284 m 859 643 q 738 596 783 643 q 688 454 694 549 l 1008 454 q 969 593 1008 543 q 859 643 929 643 z "},"ç":{"ha":688,"x_min":69,"x_max":643,"o":"m 416 -14 q 158 86 246 -14 q 69 371 69 185 q 162 662 69 560 q 429 764 254 764 q 643 720 548 764 l 595 591 q 428 631 494 631 q 233 372 233 631 q 282 183 233 246 q 424 119 330 119 q 625 172 530 119 l 625 33 q 534 -3 583 8 q 416 -14 486 -14 m 530 -183 q 323 -334 530 -334 q 241 -323 279 -334 l 241 -231 q 325 -240 278 -240 q 383 -229 361 -240 q 404 -187 404 -218 q 283 -113 404 -130 l 340 0 l 443 0 l 415 -60 q 500 -106 469 -74 q 530 -183 530 -138 z "},"è":{"ha":800,"x_min":69,"x_max":733,"o":"m 441 -14 q 168 89 267 -14 q 69 370 69 191 q 161 659 69 553 q 412 764 252 764 q 647 673 561 764 q 733 425 733 583 l 733 339 l 233 339 q 292 171 237 230 q 449 113 348 113 q 573 125 515 113 q 696 167 630 138 l 696 37 q 578 -2 637 9 q 441 -14 518 -14 m 412 643 q 291 595 336 643 q 236 454 245 547 l 576 454 q 532 595 575 547 q 412 643 488 643 m 413 842 q 295 944 366 877 q 191 1050 223 1010 l 191 1064 l 376 1064 q 446 955 401 1017 q 520 859 490 893 l 520 842 l 413 842 z "},"é":{"ha":800,"x_min":69,"x_max":733,"o":"m 441 -14 q 168 89 267 -14 q 69 370 69 191 q 161 659 69 553 q 412 764 252 764 q 647 673 561 764 q 733 425 733 583 l 733 339 l 233 339 q 292 171 237 230 q 449 113 348 113 q 573 125 515 113 q 696 167 630 138 l 696 37 q 578 -2 637 9 q 441 -14 518 -14 m 412 643 q 291 595 336 643 q 236 454 245 547 l 576 454 q 532 595 575 547 q 412 643 488 643 m 311 842 l 311 859 q 390 964 349 906 q 455 1064 431 1023 l 640 1064 l 640 1050 q 535 943 605 1008 q 416 842 465 878 l 311 842 z "},"ê":{"ha":800,"x_min":69,"x_max":733,"o":"m 441 -14 q 168 89 267 -14 q 69 370 69 191 q 161 659 69 553 q 412 764 252 764 q 647 673 561 764 q 733 425 733 583 l 733 339 l 233 339 q 292 171 237 230 q 449 113 348 113 q 573 125 515 113 q 696 167 630 138 l 696 37 q 578 -2 637 9 q 441 -14 518 -14 m 412 643 q 291 595 336 643 q 236 454 245 547 l 576 454 q 532 595 575 547 q 412 643 488 643 m 568 842 q 414 964 485 891 q 261 842 344 894 l 154 842 l 154 859 q 326 1064 283 993 l 503 1064 q 676 859 545 989 l 676 842 l 568 842 z "},"ë":{"ha":800,"x_min":69,"x_max":733,"o":"m 441 -14 q 168 89 267 -14 q 69 370 69 191 q 161 659 69 553 q 412 764 252 764 q 647 673 561 764 q 733 425 733 583 l 733 339 l 233 339 q 292 171 237 230 q 449 113 348 113 q 573 125 515 113 q 696 167 630 138 l 696 37 q 578 -2 637 9 q 441 -14 518 -14 m 412 643 q 291 595 336 643 q 236 454 245 547 l 576 454 q 532 595 575 547 q 412 643 488 643 m 208 949 q 231 1009 208 991 q 286 1028 254 1028 q 343 1007 322 1028 q 365 949 365 986 q 343 891 365 913 q 286 869 321 869 q 231 889 254 869 q 208 949 208 909 m 475 949 q 497 1009 475 991 q 553 1028 520 1028 q 610 1007 589 1028 q 632 949 632 986 q 610 891 632 912 q 553 869 587 869 q 497 889 520 869 q 475 949 475 909 z "},"ì":{"ha":387,"x_min":-47,"x_max":283,"o":"m 273 0 l 114 0 l 114 750 l 273 750 l 273 0 m 176 842 q 57 944 129 877 q -47 1050 -14 1010 l -47 1064 l 138 1064 q 209 955 164 1017 q 283 859 253 893 l 283 842 l 176 842 z "},"í":{"ha":387,"x_min":106,"x_max":435,"o":"m 273 0 l 114 0 l 114 750 l 273 750 l 273 0 m 106 842 l 106 859 q 185 964 144 906 q 250 1064 227 1023 l 435 1064 l 435 1050 q 330 943 400 1008 q 212 842 260 878 l 106 842 z "},"î":{"ha":387,"x_min":-68,"x_max":454,"o":"m 273 0 l 114 0 l 114 750 l 273 750 l 273 0 m 347 842 q 192 964 263 891 q 39 842 122 894 l -68 842 l -68 859 q 104 1064 62 993 l 281 1064 q 454 859 323 989 l 454 842 l 347 842 z "},"ï":{"ha":387,"x_min":-17,"x_max":407,"o":"m 273 0 l 114 0 l 114 750 l 273 750 l 273 0 m -17 949 q 6 1009 -17 991 q 61 1028 28 1028 q 118 1007 97 1028 q 140 949 140 986 q 118 891 140 913 q 61 869 96 869 q 6 889 28 869 q -17 949 -17 909 m 250 949 q 272 1009 250 991 q 328 1028 295 1028 q 385 1007 363 1028 q 407 949 407 986 q 385 891 407 912 q 328 869 362 869 q 272 889 295 869 q 250 949 250 909 z "},"ð":{"ha":843,"x_min":69,"x_max":779,"o":"m 779 385 q 686 91 779 195 q 422 -14 593 -14 q 166 79 263 -14 q 69 326 69 171 q 158 574 69 483 q 396 665 247 665 q 600 590 541 665 l 606 593 q 452 827 564 721 l 282 725 l 222 815 l 361 896 q 248 965 302 936 l 304 1064 q 479 966 399 1021 l 636 1060 l 696 972 l 568 896 q 725 672 671 801 q 779 385 779 543 m 616 354 q 565 491 616 440 q 425 542 514 542 q 277 486 323 542 q 232 323 232 431 q 282 165 232 220 q 425 110 332 110 q 571 172 526 110 q 616 354 616 233 z "},"ñ":{"ha":882,"x_min":114,"x_max":774,"o":"m 774 0 l 614 0 l 614 461 q 579 591 614 548 q 468 633 544 633 q 320 574 367 633 q 273 374 273 514 l 273 0 l 114 0 l 114 750 l 239 750 l 261 652 l 269 652 q 366 734 303 705 q 504 764 428 764 q 774 489 774 764 l 774 0 m 549 842 q 493 853 520 842 q 439 880 465 865 q 387 906 412 895 q 339 918 362 918 q 265 840 284 918 l 182 840 q 235 984 191 935 q 349 1034 279 1034 q 406 1022 378 1034 q 460 995 433 1010 q 511 969 486 981 q 559 957 536 957 q 631 1035 612 957 l 715 1035 q 663 893 707 944 q 549 842 619 842 z "},"ò":{"ha":848,"x_min":69,"x_max":779,"o":"m 779 376 q 685 90 779 193 q 422 -14 591 -14 q 237 34 317 -14 q 113 170 156 81 q 69 376 69 259 q 163 661 69 559 q 427 764 256 764 q 684 659 589 764 q 779 376 779 554 m 233 376 q 425 117 233 117 q 615 376 615 117 q 424 633 615 633 q 278 567 323 633 q 233 376 233 500 m 421 842 q 303 944 374 877 q 199 1050 231 1010 l 199 1064 l 384 1064 q 454 955 410 1017 q 528 859 498 893 l 528 842 l 421 842 z "},"ó":{"ha":848,"x_min":69,"x_max":779,"o":"m 779 376 q 685 90 779 193 q 422 -14 591 -14 q 237 34 317 -14 q 113 170 156 81 q 69 376 69 259 q 163 661 69 559 q 427 764 256 764 q 684 659 589 764 q 779 376 779 554 m 233 376 q 425 117 233 117 q 615 376 615 117 q 424 633 615 633 q 278 567 323 633 q 233 376 233 500 m 321 842 l 321 859 q 400 964 359 906 q 465 1064 441 1023 l 650 1064 l 650 1050 q 545 943 615 1008 q 427 842 475 878 l 321 842 z "},"ô":{"ha":848,"x_min":69,"x_max":779,"o":"m 779 376 q 685 90 779 193 q 422 -14 591 -14 q 237 34 317 -14 q 113 170 156 81 q 69 376 69 259 q 163 661 69 559 q 427 764 256 764 q 684 659 589 764 q 779 376 779 554 m 233 376 q 425 117 233 117 q 615 376 615 117 q 424 633 615 633 q 278 567 323 633 q 233 376 233 500 m 576 842 q 422 964 493 891 q 269 842 352 894 l 162 842 l 162 859 q 334 1064 292 993 l 511 1064 q 684 859 553 989 l 684 842 l 576 842 z "},"õ":{"ha":848,"x_min":69,"x_max":779,"o":"m 779 376 q 685 90 779 193 q 422 -14 591 -14 q 237 34 317 -14 q 113 170 156 81 q 69 376 69 259 q 163 661 69 559 q 427 764 256 764 q 684 659 589 764 q 779 376 779 554 m 233 376 q 425 117 233 117 q 615 376 615 117 q 424 633 615 633 q 278 567 323 633 q 233 376 233 500 m 526 842 q 470 853 497 842 q 416 880 442 865 q 364 906 389 895 q 316 918 339 918 q 242 840 261 918 l 159 840 q 212 984 168 935 q 326 1034 256 1034 q 382 1022 355 1034 q 437 995 410 1010 q 488 969 463 981 q 536 957 513 957 q 608 1035 589 957 l 692 1035 q 640 893 684 944 q 526 842 596 842 z "},"ö":{"ha":848,"x_min":69,"x_max":779,"o":"m 779 376 q 685 90 779 193 q 422 -14 591 -14 q 237 34 317 -14 q 113 170 156 81 q 69 376 69 259 q 163 661 69 559 q 427 764 256 764 q 684 659 589 764 q 779 376 779 554 m 233 376 q 425 117 233 117 q 615 376 615 117 q 424 633 615 633 q 278 567 323 633 q 233 376 233 500 m 211 949 q 234 1009 211 991 q 289 1028 256 1028 q 346 1007 325 1028 q 368 949 368 986 q 346 891 368 913 q 289 869 324 869 q 234 889 256 869 q 211 949 211 909 m 477 949 q 500 1009 477 991 q 555 1028 523 1028 q 613 1007 591 1028 q 635 949 635 986 q 612 891 635 912 q 555 869 590 869 q 500 889 523 869 q 477 949 477 909 z "},"÷":{"ha":793,"x_min":65,"x_max":728,"o":"m 65 429 l 65 550 l 728 550 l 728 429 l 65 429 m 310 253 q 331 320 310 296 q 396 345 353 345 q 459 320 437 345 q 481 253 481 296 q 458 185 481 210 q 396 160 435 160 q 333 184 355 160 q 310 253 310 208 m 310 726 q 331 794 310 770 q 396 818 353 818 q 459 793 437 818 q 481 726 481 769 q 458 659 481 684 q 396 633 435 633 q 333 657 355 633 q 310 726 310 682 z "},"ø":{"ha":848,"x_min":69,"x_max":779,"o":"m 779 376 q 685 90 779 193 q 422 -14 591 -14 q 253 25 325 -14 l 201 -49 l 110 12 l 165 92 q 69 376 69 197 q 163 661 69 559 q 427 764 256 764 q 602 721 524 764 l 648 789 l 741 726 l 688 653 q 779 376 779 550 m 233 376 q 258 228 233 285 l 524 607 q 424 633 483 633 q 278 567 323 633 q 233 376 233 500 m 615 376 q 593 514 615 458 l 330 139 q 425 117 367 117 q 615 376 615 117 z "},"ù":{"ha":882,"x_min":107,"x_max":768,"o":"m 643 0 l 621 98 l 612 98 q 518 16 579 46 q 378 -14 456 -14 q 174 54 241 -14 q 107 260 107 122 l 107 750 l 268 750 l 268 288 q 303 158 268 201 q 414 115 338 115 q 561 175 514 115 q 608 376 608 235 l 608 750 l 768 750 l 768 0 l 643 0 m 418 842 q 300 944 372 877 q 196 1050 229 1010 l 196 1064 l 381 1064 q 451 955 407 1017 q 526 859 496 893 l 526 842 l 418 842 z "},"ú":{"ha":882,"x_min":107,"x_max":768,"o":"m 643 0 l 621 98 l 612 98 q 518 16 579 46 q 378 -14 456 -14 q 174 54 241 -14 q 107 260 107 122 l 107 750 l 268 750 l 268 288 q 303 158 268 201 q 414 115 338 115 q 561 175 514 115 q 608 376 608 235 l 608 750 l 768 750 l 768 0 l 643 0 m 340 842 l 340 859 q 419 964 378 906 q 484 1064 460 1023 l 669 1064 l 669 1050 q 564 943 634 1008 q 446 842 494 878 l 340 842 z "},"û":{"ha":882,"x_min":107,"x_max":768,"o":"m 643 0 l 621 98 l 612 98 q 518 16 579 46 q 378 -14 456 -14 q 174 54 241 -14 q 107 260 107 122 l 107 750 l 268 750 l 268 288 q 303 158 268 201 q 414 115 338 115 q 561 175 514 115 q 608 376 608 235 l 608 750 l 768 750 l 768 0 l 643 0 m 591 842 q 436 964 507 891 q 283 842 366 894 l 176 842 l 176 859 q 349 1064 306 993 l 525 1064 q 699 859 568 989 l 699 842 l 591 842 z "},"ü":{"ha":882,"x_min":107,"x_max":768,"o":"m 643 0 l 621 98 l 612 98 q 518 16 579 46 q 378 -14 456 -14 q 174 54 241 -14 q 107 260 107 122 l 107 750 l 268 750 l 268 288 q 303 158 268 201 q 414 115 338 115 q 561 175 514 115 q 608 376 608 235 l 608 750 l 768 750 l 768 0 l 643 0 m 225 949 q 248 1009 225 991 q 303 1028 271 1028 q 360 1007 339 1028 q 382 949 382 986 q 360 891 382 913 q 303 869 338 869 q 248 889 271 869 q 225 949 225 909 m 492 949 q 514 1009 492 991 q 570 1028 537 1028 q 627 1007 606 1028 q 649 949 649 986 q 627 891 649 912 q 570 869 604 869 q 514 889 537 869 q 492 949 492 909 z "},"ý":{"ha":745,"x_min":0,"x_max":745,"o":"m 0 750 l 174 750 l 326 325 q 372 154 361 234 l 378 154 q 400 244 384 191 q 572 750 416 298 l 745 750 l 424 -100 q 132 -334 336 -334 q 29 -322 79 -334 l 29 -196 q 111 -204 65 -204 q 273 -71 227 -204 l 301 0 l 0 750 m 272 842 l 272 859 q 352 964 311 906 q 416 1064 393 1023 l 602 1064 l 602 1050 q 496 943 566 1008 q 378 842 426 878 l 272 842 z "},"þ":{"ha":865,"x_min":114,"x_max":794,"o":"m 273 652 q 370 737 315 710 q 497 764 425 764 q 715 661 637 764 q 794 376 794 559 q 715 89 794 192 q 497 -14 636 -14 q 273 87 349 -14 l 264 87 l 269 39 l 273 -24 l 273 -334 l 114 -334 l 114 1055 l 273 1055 l 273 764 l 269 670 l 267 652 l 273 652 m 457 633 q 317 578 361 633 q 273 401 273 522 l 273 376 q 317 178 273 239 q 458 117 360 117 q 631 378 631 117 q 589 570 631 507 q 457 633 547 633 z "},"ÿ":{"ha":745,"x_min":0,"x_max":745,"o":"m 0 750 l 174 750 l 326 325 q 372 154 361 234 l 378 154 q 400 244 384 191 q 572 750 416 298 l 745 750 l 424 -100 q 132 -334 336 -334 q 29 -322 79 -334 l 29 -196 q 111 -204 65 -204 q 273 -71 227 -204 l 301 0 l 0 750 m 162 949 q 185 1009 162 991 q 240 1028 208 1028 q 297 1007 276 1028 q 319 949 319 986 q 297 891 319 913 q 240 869 275 869 q 185 889 208 869 q 162 949 162 909 m 429 949 q 451 1009 429 991 q 507 1028 474 1028 q 564 1007 543 1028 q 586 949 586 986 q 564 891 586 912 q 507 869 541 869 q 451 889 474 869 q 429 949 429 909 z "},"Ā":{"ha":918,"x_min":0,"x_max":918,"o":"m 746 0 l 647 275 l 268 275 l 171 0 l 0 0 l 371 996 l 547 996 l 918 0 l 746 0 m 604 415 l 511 685 q 483 770 501 712 q 458 856 465 829 q 405 673 440 772 l 315 415 l 604 415 m 249 1189 l 682 1189 l 682 1071 l 249 1071 l 249 1189 z "},"ā":{"ha":806,"x_min":61,"x_max":697,"o":"m 583 0 l 551 104 l 546 104 q 437 11 492 36 q 296 -14 382 -14 q 123 46 185 -14 q 61 215 61 106 q 147 390 61 331 q 410 454 233 449 l 539 458 l 539 498 q 506 606 539 570 q 401 642 472 642 q 291 625 344 642 q 189 585 238 608 l 138 699 q 271 747 199 730 q 408 764 344 764 q 624 701 551 764 q 697 505 697 639 l 697 0 l 583 0 m 346 109 q 485 157 433 109 q 538 293 538 205 l 538 358 l 441 354 q 278 316 329 350 q 227 214 227 283 q 256 136 227 163 q 346 109 286 109 m 197 960 l 631 960 l 631 842 l 197 842 l 197 960 z "},"Ă":{"ha":918,"x_min":0,"x_max":918,"o":"m 746 0 l 647 275 l 268 275 l 171 0 l 0 0 l 371 996 l 547 996 l 918 0 l 746 0 m 604 415 l 511 685 q 483 770 501 712 q 458 856 465 829 q 405 673 440 772 l 315 415 l 604 415 m 454 1071 q 286 1125 347 1071 q 219 1276 224 1179 l 312 1276 q 330 1224 315 1244 q 373 1197 345 1205 q 456 1189 400 1189 q 562 1211 528 1189 q 601 1276 596 1234 l 696 1276 q 623 1126 688 1181 q 454 1071 557 1071 z "},"ă":{"ha":806,"x_min":61,"x_max":697,"o":"m 583 0 l 551 104 l 546 104 q 437 11 492 36 q 296 -14 382 -14 q 123 46 185 -14 q 61 215 61 106 q 147 390 61 331 q 410 454 233 449 l 539 458 l 539 498 q 506 606 539 570 q 401 642 472 642 q 291 625 344 642 q 189 585 238 608 l 138 699 q 271 747 199 730 q 408 764 344 764 q 624 701 551 764 q 697 505 697 639 l 697 0 l 583 0 m 346 109 q 485 157 433 109 q 538 293 538 205 l 538 358 l 441 354 q 278 316 329 350 q 227 214 227 283 q 256 136 227 163 q 346 109 286 109 m 406 842 q 238 896 300 842 q 172 1047 177 949 l 264 1047 q 283 995 268 1015 q 325 968 298 976 q 409 960 353 960 q 514 982 480 960 q 553 1047 549 1004 l 648 1047 q 575 897 640 951 q 406 842 510 842 z "},"Ą":{"ha":918,"x_min":0,"x_max":918,"o":"m 746 0 l 647 275 l 268 275 l 171 0 l 0 0 l 371 996 l 547 996 l 918 0 l 746 0 m 604 415 l 511 685 q 483 770 501 712 q 458 856 465 829 q 405 673 440 772 l 315 415 l 604 415 m 751 -158 q 811 -218 751 -218 q 882 -207 840 -218 l 882 -304 q 787 -318 835 -318 q 671 -280 711 -318 q 632 -176 632 -241 q 658 -90 632 -132 q 747 0 684 -48 l 848 0 q 777 -82 802 -45 q 751 -158 751 -119 z "},"ą":{"ha":806,"x_min":61,"x_max":720,"o":"m 583 0 l 551 104 l 546 104 q 437 11 492 36 q 296 -14 382 -14 q 123 46 185 -14 q 61 215 61 106 q 147 390 61 331 q 410 454 233 449 l 539 458 l 539 498 q 506 606 539 570 q 401 642 472 642 q 291 625 344 642 q 189 585 238 608 l 138 699 q 271 747 199 730 q 408 764 344 764 q 624 701 551 764 q 697 505 697 639 l 697 0 l 583 0 m 346 109 q 485 157 433 109 q 538 293 538 205 l 538 358 l 441 354 q 278 316 329 350 q 227 214 227 283 q 256 136 227 163 q 346 109 286 109 m 589 -158 q 649 -218 589 -218 q 720 -207 678 -218 l 720 -304 q 625 -318 673 -318 q 509 -280 549 -318 q 470 -176 470 -241 q 496 -90 470 -132 q 585 0 522 -48 l 686 0 q 614 -82 640 -45 q 589 -158 589 -119 z "},"Ć":{"ha":880,"x_min":82,"x_max":835,"o":"m 553 867 q 333 768 413 867 q 253 494 253 669 q 330 218 253 312 q 553 125 407 125 q 675 137 616 125 q 798 170 734 150 l 798 31 q 533 -14 681 -14 q 199 118 315 -14 q 82 496 82 250 q 139 766 82 650 q 302 944 195 882 q 554 1006 410 1006 q 835 942 706 1006 l 777 807 q 670 849 726 831 q 553 867 614 867 m 425 1071 l 425 1088 q 504 1194 463 1135 q 569 1293 545 1252 l 754 1293 l 754 1279 q 649 1172 719 1238 q 530 1071 578 1107 l 425 1071 z "},"ć":{"ha":688,"x_min":69,"x_max":643,"o":"m 416 -14 q 158 86 246 -14 q 69 371 69 185 q 162 662 69 560 q 429 764 254 764 q 643 720 548 764 l 595 591 q 428 631 494 631 q 233 372 233 631 q 282 183 233 246 q 424 119 330 119 q 625 172 530 119 l 625 33 q 534 -3 583 8 q 416 -14 486 -14 m 305 842 l 305 859 q 385 964 344 906 q 450 1064 426 1023 l 635 1064 l 635 1050 q 529 943 600 1008 q 411 842 459 878 l 305 842 z "},"Ĉ":{"ha":880,"x_min":82,"x_max":835,"o":"m 553 867 q 333 768 413 867 q 253 494 253 669 q 330 218 253 312 q 553 125 407 125 q 675 137 616 125 q 798 170 734 150 l 798 31 q 533 -14 681 -14 q 199 118 315 -14 q 82 496 82 250 q 139 766 82 650 q 302 944 195 882 q 554 1006 410 1006 q 835 942 706 1006 l 777 807 q 670 849 726 831 q 553 867 614 867 m 684 1071 q 529 1193 600 1120 q 376 1071 459 1123 l 269 1071 l 269 1088 q 441 1293 399 1222 l 618 1293 q 791 1088 661 1219 l 791 1071 l 684 1071 z "},"ĉ":{"ha":688,"x_min":69,"x_max":656,"o":"m 416 -14 q 158 86 246 -14 q 69 371 69 185 q 162 662 69 560 q 429 764 254 764 q 643 720 548 764 l 595 591 q 428 631 494 631 q 233 372 233 631 q 282 183 233 246 q 424 119 330 119 q 625 172 530 119 l 625 33 q 534 -3 583 8 q 416 -14 486 -14 m 548 842 q 393 964 465 891 q 241 842 323 894 l 134 842 l 134 859 q 306 1064 263 993 l 482 1064 q 656 859 525 989 l 656 842 l 548 842 z "},"Ċ":{"ha":880,"x_min":82,"x_max":835,"o":"m 553 867 q 333 768 413 867 q 253 494 253 669 q 330 218 253 312 q 553 125 407 125 q 675 137 616 125 q 798 170 734 150 l 798 31 q 533 -14 681 -14 q 199 118 315 -14 q 82 496 82 250 q 139 766 82 650 q 302 944 195 882 q 554 1006 410 1006 q 835 942 706 1006 l 777 807 q 670 849 726 831 q 553 867 614 867 m 448 1178 q 471 1244 448 1221 q 538 1267 494 1267 q 603 1244 580 1267 q 627 1178 627 1221 q 603 1114 627 1137 q 538 1090 580 1090 q 471 1114 494 1090 q 448 1178 448 1137 z "},"ċ":{"ha":688,"x_min":69,"x_max":643,"o":"m 416 -14 q 158 86 246 -14 q 69 371 69 185 q 162 662 69 560 q 429 764 254 764 q 643 720 548 764 l 595 591 q 428 631 494 631 q 233 372 233 631 q 282 183 233 246 q 424 119 330 119 q 625 172 530 119 l 625 33 q 534 -3 583 8 q 416 -14 486 -14 m 326 949 q 349 1015 326 991 q 416 1038 372 1038 q 481 1015 458 1038 q 505 949 505 991 q 481 885 505 908 q 416 861 458 861 q 349 885 372 861 q 326 949 326 908 z "},"Č":{"ha":880,"x_min":82,"x_max":835,"o":"m 553 867 q 333 768 413 867 q 253 494 253 669 q 330 218 253 312 q 553 125 407 125 q 675 137 616 125 q 798 170 734 150 l 798 31 q 533 -14 681 -14 q 199 118 315 -14 q 82 496 82 250 q 139 766 82 650 q 302 944 195 882 q 554 1006 410 1006 q 835 942 706 1006 l 777 807 q 670 849 726 831 q 553 867 614 867 m 800 1293 l 800 1275 q 679 1144 714 1186 q 626 1071 644 1102 l 450 1071 q 277 1275 406 1142 l 277 1293 l 385 1293 q 537 1169 478 1232 q 692 1293 603 1237 l 800 1293 z "},"č":{"ha":688,"x_min":69,"x_max":673,"o":"m 416 -14 q 158 86 246 -14 q 69 371 69 185 q 162 662 69 560 q 429 764 254 764 q 643 720 548 764 l 595 591 q 428 631 494 631 q 233 372 233 631 q 282 183 233 246 q 424 119 330 119 q 625 172 530 119 l 625 33 q 534 -3 583 8 q 416 -14 486 -14 m 673 1064 l 673 1046 q 552 915 587 957 q 499 842 517 873 l 323 842 q 151 1046 279 913 l 151 1064 l 258 1064 q 410 940 351 1003 q 565 1064 476 1008 l 673 1064 z "},"Ď":{"ha":1019,"x_min":131,"x_max":937,"o":"m 937 505 q 801 130 937 260 q 408 0 665 0 l 131 0 l 131 991 l 437 991 q 806 864 674 991 q 937 505 937 736 m 766 500 q 433 856 766 856 l 293 856 l 293 136 l 408 136 q 766 500 766 136 m 741 1293 l 741 1275 q 621 1144 656 1186 q 568 1071 586 1102 l 391 1071 q 219 1275 347 1142 l 219 1293 l 326 1293 q 479 1169 420 1232 q 633 1293 545 1237 l 741 1293 z "},"ď":{"ha":865,"x_min":69,"x_max":1011,"o":"m 367 -14 q 148 88 227 -14 q 69 374 69 190 q 149 661 69 558 q 370 764 229 764 q 595 654 517 764 l 603 654 q 591 782 591 735 l 591 1055 l 751 1055 l 751 0 l 627 0 l 599 98 l 591 98 q 367 -14 515 -14 m 410 115 q 553 171 508 115 q 599 350 597 226 l 599 372 q 553 574 599 514 q 408 633 507 633 q 279 565 324 633 q 233 371 233 497 q 277 181 233 246 q 410 115 321 115 m 814 850 q 858 1055 846 957 l 1011 1055 l 1011 1042 q 965 939 996 1000 q 905 833 935 878 l 814 833 l 814 850 z "},"Đ":{"ha":1015,"x_min":32,"x_max":932,"o":"m 932 505 q 795 131 932 261 q 403 0 659 0 l 131 0 l 131 422 l 32 422 l 32 558 l 131 558 l 131 991 l 433 991 q 800 864 669 991 q 932 505 932 736 m 761 500 q 676 766 761 676 q 427 856 592 856 l 293 856 l 293 558 l 501 558 l 501 422 l 293 422 l 293 136 l 401 136 q 761 500 761 136 z "},"đ":{"ha":876,"x_min":69,"x_max":857,"o":"m 364 -14 q 147 86 224 -14 q 69 363 69 186 q 144 647 69 551 q 367 743 219 743 q 595 633 517 743 l 603 633 q 596 687 601 640 q 591 764 591 734 l 591 827 l 332 827 l 332 937 l 591 937 l 591 1055 l 751 1055 l 751 937 l 857 937 l 857 827 l 751 827 l 751 0 l 621 0 l 591 98 l 585 98 q 364 -14 511 -14 m 414 115 q 554 169 510 115 q 599 340 599 223 l 599 363 q 555 557 599 501 q 408 612 511 612 q 282 552 323 612 q 240 361 240 492 q 414 115 240 115 z "},"Ē":{"ha":775,"x_min":131,"x_max":692,"o":"m 692 0 l 131 0 l 131 991 l 692 991 l 692 854 l 293 854 l 293 585 l 667 585 l 667 449 l 293 449 l 293 138 l 692 138 l 692 0 m 200 1189 l 633 1189 l 633 1071 l 200 1071 l 200 1189 z "},"ē":{"ha":800,"x_min":69,"x_max":733,"o":"m 441 -14 q 168 89 267 -14 q 69 370 69 191 q 161 659 69 553 q 412 764 252 764 q 647 673 561 764 q 733 425 733 583 l 733 339 l 233 339 q 292 171 237 230 q 449 113 348 113 q 573 125 515 113 q 696 167 630 138 l 696 37 q 578 -2 637 9 q 441 -14 518 -14 m 412 643 q 291 595 336 643 q 236 454 245 547 l 576 454 q 532 595 575 547 q 412 643 488 643 m 199 960 l 632 960 l 632 842 l 199 842 l 199 960 z "},"Ĕ":{"ha":775,"x_min":131,"x_max":692,"o":"m 692 0 l 131 0 l 131 991 l 692 991 l 692 854 l 293 854 l 293 585 l 667 585 l 667 449 l 293 449 l 293 138 l 692 138 l 692 0 m 410 1071 q 242 1125 304 1071 q 176 1276 181 1179 l 269 1276 q 287 1224 272 1244 q 329 1197 302 1205 q 413 1189 357 1189 q 518 1211 484 1189 q 557 1276 553 1234 l 652 1276 q 579 1126 644 1181 q 410 1071 514 1071 z "},"ĕ":{"ha":800,"x_min":69,"x_max":733,"o":"m 441 -14 q 168 89 267 -14 q 69 370 69 191 q 161 659 69 553 q 412 764 252 764 q 647 673 561 764 q 733 425 733 583 l 733 339 l 233 339 q 292 171 237 230 q 449 113 348 113 q 573 125 515 113 q 696 167 630 138 l 696 37 q 578 -2 637 9 q 441 -14 518 -14 m 412 643 q 291 595 336 643 q 236 454 245 547 l 576 454 q 532 595 575 547 q 412 643 488 643 m 410 842 q 242 896 304 842 q 176 1047 181 949 l 269 1047 q 287 995 272 1015 q 329 968 302 976 q 413 960 357 960 q 518 982 484 960 q 557 1047 553 1004 l 652 1047 q 579 897 644 951 q 410 842 514 842 z "},"Ė":{"ha":775,"x_min":131,"x_max":692,"o":"m 692 0 l 131 0 l 131 991 l 692 991 l 692 854 l 293 854 l 293 585 l 667 585 l 667 449 l 293 449 l 293 138 l 692 138 l 692 0 m 331 1158 q 354 1224 331 1201 q 421 1247 378 1247 q 487 1224 463 1247 q 510 1158 510 1201 q 487 1094 510 1118 q 421 1071 463 1071 q 354 1094 378 1071 q 331 1158 331 1118 z "},"ė":{"ha":800,"x_min":69,"x_max":733,"o":"m 441 -14 q 168 89 267 -14 q 69 370 69 191 q 161 659 69 553 q 412 764 252 764 q 647 673 561 764 q 733 425 733 583 l 733 339 l 233 339 q 292 171 237 230 q 449 113 348 113 q 573 125 515 113 q 696 167 630 138 l 696 37 q 578 -2 637 9 q 441 -14 518 -14 m 412 643 q 291 595 336 643 q 236 454 245 547 l 576 454 q 532 595 575 547 q 412 643 488 643 m 328 949 q 352 1015 328 991 q 418 1038 375 1038 q 484 1015 460 1038 q 507 949 507 991 q 484 885 507 908 q 418 861 460 861 q 352 885 375 861 q 328 949 328 908 z "},"Ę":{"ha":775,"x_min":131,"x_max":692,"o":"m 692 0 l 131 0 l 131 991 l 692 991 l 692 854 l 293 854 l 293 585 l 667 585 l 667 449 l 293 449 l 293 138 l 692 138 l 692 0 m 539 -158 q 599 -218 539 -218 q 669 -207 628 -218 l 669 -304 q 575 -318 623 -318 q 459 -280 498 -318 q 420 -176 420 -241 q 446 -90 420 -132 q 535 0 471 -48 l 636 0 q 564 -82 589 -45 q 539 -158 539 -119 z "},"ę":{"ha":800,"x_min":69,"x_max":733,"o":"m 441 -14 q 168 89 267 -14 q 69 370 69 191 q 161 659 69 553 q 412 764 252 764 q 647 673 561 764 q 733 425 733 583 l 733 339 l 233 339 q 292 171 237 230 q 449 113 348 113 q 573 125 515 113 q 696 167 630 138 l 696 37 q 578 -2 637 9 q 441 -14 518 -14 m 412 643 q 291 595 336 643 q 236 454 245 547 l 576 454 q 532 595 575 547 q 412 643 488 643 m 538 -141 q 597 -201 538 -201 q 668 -190 627 -201 l 668 -288 q 574 -301 621 -301 q 458 -263 497 -301 q 418 -159 418 -224 q 444 -73 418 -115 q 534 17 470 -31 l 635 17 q 563 -65 588 -28 q 538 -141 538 -102 z "},"Ě":{"ha":775,"x_min":131,"x_max":692,"o":"m 692 0 l 131 0 l 131 991 l 692 991 l 692 854 l 293 854 l 293 585 l 667 585 l 667 449 l 293 449 l 293 138 l 692 138 l 692 0 m 677 1293 l 677 1275 q 557 1144 592 1186 q 504 1071 522 1102 l 328 1071 q 155 1275 283 1142 l 155 1293 l 262 1293 q 415 1169 356 1232 q 570 1293 481 1237 l 677 1293 z "},"ě":{"ha":800,"x_min":69,"x_max":733,"o":"m 441 -14 q 168 89 267 -14 q 69 370 69 191 q 161 659 69 553 q 412 764 252 764 q 647 673 561 764 q 733 425 733 583 l 733 339 l 233 339 q 292 171 237 230 q 449 113 348 113 q 573 125 515 113 q 696 167 630 138 l 696 37 q 578 -2 637 9 q 441 -14 518 -14 m 412 643 q 291 595 336 643 q 236 454 245 547 l 576 454 q 532 595 575 547 q 412 643 488 643 m 675 1064 l 675 1046 q 555 915 590 957 q 502 842 520 873 l 326 842 q 153 1046 281 913 l 153 1064 l 260 1064 q 413 940 354 1003 q 568 1064 479 1008 l 675 1064 z "},"Ĝ":{"ha":1008,"x_min":82,"x_max":901,"o":"m 536 538 l 901 538 l 901 40 q 729 -1 812 11 q 551 -14 647 -14 q 204 120 326 -14 q 82 496 82 253 q 220 870 82 735 q 599 1006 357 1006 q 893 946 754 1006 l 836 811 q 595 867 715 867 q 344 767 436 867 q 252 494 252 667 q 335 218 252 313 q 574 123 418 123 q 742 143 652 123 l 742 399 l 536 399 l 536 538 m 710 1071 q 555 1193 627 1120 q 403 1071 486 1123 l 296 1071 l 296 1088 q 468 1293 425 1222 l 644 1293 q 818 1088 687 1219 l 818 1071 l 710 1071 z "},"ĝ":{"ha":772,"x_min":16,"x_max":747,"o":"m 747 750 l 747 663 l 619 639 q 648 581 637 615 q 660 507 660 546 q 580 325 660 391 q 359 258 500 258 q 294 264 323 258 q 243 189 243 232 q 267 151 243 163 q 355 138 291 138 l 486 138 q 675 85 610 138 q 739 -68 739 32 q 634 -264 739 -195 q 330 -334 529 -334 q 96 -279 177 -334 q 16 -125 16 -225 q 59 -8 16 -56 q 182 57 103 39 q 129 101 150 71 q 109 164 109 131 q 132 235 109 206 q 203 293 156 264 q 108 375 144 318 q 72 507 72 431 q 149 696 72 629 q 368 764 226 764 q 435 759 400 764 q 488 750 470 755 l 747 750 m 158 -117 q 204 -196 158 -168 q 335 -224 251 -224 q 529 -186 465 -224 q 593 -87 593 -149 q 558 -18 593 -39 q 428 3 523 3 l 307 3 q 198 -30 239 3 q 158 -117 158 -62 m 227 507 q 263 399 227 437 q 367 361 299 361 q 505 509 505 361 q 471 622 505 582 q 367 661 437 661 q 262 622 298 661 q 227 507 227 583 m 538 842 q 384 964 455 891 q 231 842 314 894 l 124 842 l 124 859 q 296 1064 254 993 l 473 1064 q 646 859 515 989 l 646 842 l 538 842 z "},"Ğ":{"ha":1008,"x_min":82,"x_max":901,"o":"m 536 538 l 901 538 l 901 40 q 729 -1 812 11 q 551 -14 647 -14 q 204 120 326 -14 q 82 496 82 253 q 220 870 82 735 q 599 1006 357 1006 q 893 946 754 1006 l 836 811 q 595 867 715 867 q 344 767 436 867 q 252 494 252 667 q 335 218 252 313 q 574 123 418 123 q 742 143 652 123 l 742 399 l 536 399 l 536 538 m 562 1071 q 394 1125 456 1071 q 328 1276 333 1179 l 420 1276 q 439 1224 424 1244 q 481 1197 454 1205 q 565 1189 509 1189 q 670 1211 636 1189 q 709 1276 705 1234 l 804 1276 q 731 1126 796 1181 q 562 1071 666 1071 z "},"ğ":{"ha":772,"x_min":16,"x_max":747,"o":"m 747 750 l 747 663 l 619 639 q 648 581 637 615 q 660 507 660 546 q 580 325 660 391 q 359 258 500 258 q 294 264 323 258 q 243 189 243 232 q 267 151 243 163 q 355 138 291 138 l 486 138 q 675 85 610 138 q 739 -68 739 32 q 634 -264 739 -195 q 330 -334 529 -334 q 96 -279 177 -334 q 16 -125 16 -225 q 59 -8 16 -56 q 182 57 103 39 q 129 101 150 71 q 109 164 109 131 q 132 235 109 206 q 203 293 156 264 q 108 375 144 318 q 72 507 72 431 q 149 696 72 629 q 368 764 226 764 q 435 759 400 764 q 488 750 470 755 l 747 750 m 158 -117 q 204 -196 158 -168 q 335 -224 251 -224 q 529 -186 465 -224 q 593 -87 593 -149 q 558 -18 593 -39 q 428 3 523 3 l 307 3 q 198 -30 239 3 q 158 -117 158 -62 m 227 507 q 263 399 227 437 q 367 361 299 361 q 505 509 505 361 q 471 622 505 582 q 367 661 437 661 q 262 622 298 661 q 227 507 227 583 m 384 842 q 216 896 277 842 q 149 1047 155 949 l 242 1047 q 260 995 245 1015 q 303 968 275 976 q 387 960 330 960 q 492 982 458 960 q 531 1047 526 1004 l 626 1047 q 553 897 618 951 q 384 842 488 842 z "},"Ġ":{"ha":1008,"x_min":82,"x_max":901,"o":"m 536 538 l 901 538 l 901 40 q 729 -1 812 11 q 551 -14 647 -14 q 204 120 326 -14 q 82 496 82 253 q 220 870 82 735 q 599 1006 357 1006 q 893 946 754 1006 l 836 811 q 595 867 715 867 q 344 767 436 867 q 252 494 252 667 q 335 218 252 313 q 574 123 418 123 q 742 143 652 123 l 742 399 l 536 399 l 536 538 m 484 1178 q 507 1244 484 1221 q 574 1267 530 1267 q 639 1244 616 1267 q 663 1178 663 1221 q 639 1114 663 1137 q 574 1090 616 1090 q 507 1114 530 1090 q 484 1178 484 1137 z "},"ġ":{"ha":772,"x_min":16,"x_max":747,"o":"m 747 750 l 747 663 l 619 639 q 648 581 637 615 q 660 507 660 546 q 580 325 660 391 q 359 258 500 258 q 294 264 323 258 q 243 189 243 232 q 267 151 243 163 q 355 138 291 138 l 486 138 q 675 85 610 138 q 739 -68 739 32 q 634 -264 739 -195 q 330 -334 529 -334 q 96 -279 177 -334 q 16 -125 16 -225 q 59 -8 16 -56 q 182 57 103 39 q 129 101 150 71 q 109 164 109 131 q 132 235 109 206 q 203 293 156 264 q 108 375 144 318 q 72 507 72 431 q 149 696 72 629 q 368 764 226 764 q 435 759 400 764 q 488 750 470 755 l 747 750 m 158 -117 q 204 -196 158 -168 q 335 -224 251 -224 q 529 -186 465 -224 q 593 -87 593 -149 q 558 -18 593 -39 q 428 3 523 3 l 307 3 q 198 -30 239 3 q 158 -117 158 -62 m 227 507 q 263 399 227 437 q 367 361 299 361 q 505 509 505 361 q 471 622 505 582 q 367 661 437 661 q 262 622 298 661 q 227 507 227 583 m 290 949 q 314 1015 290 991 q 380 1038 337 1038 q 446 1015 422 1038 q 469 949 469 991 q 446 885 469 908 q 380 861 422 861 q 314 885 337 861 q 290 949 290 908 z "},"Ģ":{"ha":1008,"x_min":82,"x_max":901,"o":"m 536 538 l 901 538 l 901 40 q 729 -1 812 11 q 551 -14 647 -14 q 204 120 326 -14 q 82 496 82 253 q 220 870 82 735 q 599 1006 357 1006 q 893 946 754 1006 l 836 811 q 595 867 715 867 q 344 767 436 867 q 252 494 252 667 q 335 218 252 313 q 574 123 418 123 q 742 143 652 123 l 742 399 l 536 399 l 536 538 m 437 -290 q 468 -188 453 -247 q 488 -85 482 -130 l 640 -85 l 640 -98 q 589 -211 621 -153 q 530 -307 558 -269 l 437 -307 l 437 -290 z "},"ģ":{"ha":772,"x_min":16,"x_max":747,"o":"m 747 750 l 747 663 l 619 639 q 648 581 637 615 q 660 507 660 546 q 580 325 660 391 q 359 258 500 258 q 294 264 323 258 q 243 189 243 232 q 267 151 243 163 q 355 138 291 138 l 486 138 q 675 85 610 138 q 739 -68 739 32 q 634 -264 739 -195 q 330 -334 529 -334 q 96 -279 177 -334 q 16 -125 16 -225 q 59 -8 16 -56 q 182 57 103 39 q 129 101 150 71 q 109 164 109 131 q 132 235 109 206 q 203 293 156 264 q 108 375 144 318 q 72 507 72 431 q 149 696 72 629 q 368 764 226 764 q 435 759 400 764 q 488 750 470 755 l 747 750 m 158 -117 q 204 -196 158 -168 q 335 -224 251 -224 q 529 -186 465 -224 q 593 -87 593 -149 q 558 -18 593 -39 q 428 3 523 3 l 307 3 q 198 -30 239 3 q 158 -117 158 -62 m 227 507 q 263 399 227 437 q 367 361 299 361 q 505 509 505 361 q 471 622 505 582 q 367 661 437 661 q 262 622 298 661 q 227 507 227 583 m 498 1046 q 470 950 486 1010 q 449 842 455 890 l 296 842 l 296 854 q 346 965 315 907 q 407 1064 378 1024 l 498 1064 l 498 1046 z "},"Ĥ":{"ha":1043,"x_min":131,"x_max":913,"o":"m 913 0 l 750 0 l 750 447 l 293 447 l 293 0 l 131 0 l 131 991 l 293 991 l 293 586 l 750 586 l 750 991 l 913 991 l 913 0 m 673 1071 q 518 1193 589 1120 q 366 1071 448 1123 l 258 1071 l 258 1088 q 431 1293 388 1222 l 607 1293 q 781 1088 650 1219 l 781 1071 l 673 1071 z "},"ĥ":{"ha":882,"x_min":114,"x_max":774,"o":"m 774 0 l 614 0 l 614 461 q 579 591 614 548 q 468 633 544 633 q 320 573 368 633 q 273 372 273 513 l 273 0 l 114 0 l 114 1055 l 273 1055 l 273 787 q 265 650 273 723 l 275 650 q 366 734 308 704 q 501 764 424 764 q 774 489 774 764 l 774 0 m 596 1108 q 441 1230 513 1158 q 289 1108 372 1160 l 182 1108 l 182 1125 q 354 1331 311 1259 l 530 1331 q 704 1125 573 1256 l 704 1108 l 596 1108 z "},"Ħ":{"ha":1043,"x_min":0,"x_max":1043,"o":"m 913 842 l 1043 842 l 1043 726 l 913 726 l 913 0 l 750 0 l 750 447 l 293 447 l 293 0 l 131 0 l 131 726 l 0 726 l 0 842 l 131 842 l 131 991 l 293 991 l 293 842 l 750 842 l 750 991 l 913 991 l 913 842 m 750 586 l 750 726 l 293 726 l 293 586 l 750 586 z "},"ħ":{"ha":882,"x_min":8,"x_max":774,"o":"m 774 0 l 614 0 l 614 428 q 579 557 614 514 q 468 600 544 600 q 320 540 368 600 q 273 339 273 480 l 273 0 l 114 0 l 114 827 l 8 827 l 8 937 l 114 937 l 114 1055 l 273 1055 l 273 937 l 532 937 l 532 827 l 273 827 l 273 754 q 272 707 273 734 q 265 616 271 680 l 275 616 q 371 703 312 675 q 503 730 431 730 q 774 456 774 730 l 774 0 z "},"ĩ":{"ha":387,"x_min":-71,"x_max":462,"o":"m 273 0 l 114 0 l 114 750 l 273 750 l 273 0 m 295 842 q 239 853 267 842 q 185 880 212 865 q 134 906 159 895 q 85 918 109 918 q 12 840 31 918 l -71 840 q -19 984 -63 935 q 95 1034 26 1034 q 152 1022 124 1034 q 206 995 180 1010 q 257 969 233 981 q 305 957 282 957 q 377 1035 359 957 l 462 1035 q 410 893 454 944 q 295 842 366 842 z "},"ī":{"ha":387,"x_min":-22,"x_max":412,"o":"m 273 0 l 114 0 l 114 750 l 273 750 l 273 0 m -22 960 l 412 960 l 412 842 l -22 842 l -22 960 z "},"ĭ":{"ha":387,"x_min":-45,"x_max":431,"o":"m 273 0 l 114 0 l 114 750 l 273 750 l 273 0 m 189 842 q 21 896 83 842 q -45 1047 -40 949 l 47 1047 q 66 995 51 1015 q 108 968 81 976 q 192 960 136 960 q 297 982 263 960 q 336 1047 332 1004 l 431 1047 q 358 897 423 951 q 189 842 293 842 z "},"į":{"ha":387,"x_min":33,"x_max":283,"o":"m 273 0 l 114 0 l 114 750 l 273 750 l 273 0 m 104 949 q 128 1015 104 991 q 195 1038 151 1038 q 260 1015 237 1038 q 283 949 283 991 q 260 885 283 908 q 195 861 237 861 q 128 885 151 861 q 104 949 104 908 m 152 -158 q 212 -218 152 -218 q 282 -207 241 -218 l 282 -304 q 188 -318 235 -318 q 72 -280 111 -318 q 33 -176 33 -241 q 58 -90 33 -132 q 148 0 84 -48 l 249 0 q 177 -82 202 -45 q 152 -158 152 -119 z "},"ı":{"ha":387,"x_min":114,"x_max":273,"o":"m 273 0 l 114 0 l 114 750 l 273 750 l 273 0 z "},"ĳ":{"ha":761,"x_min":104,"x_max":657,"o":"m 273 0 l 114 0 l 114 750 l 273 750 l 273 0 m 104 949 q 128 1015 104 991 q 195 1038 151 1038 q 260 1015 237 1038 q 283 949 283 991 q 260 885 283 908 q 195 861 237 861 q 128 885 151 861 q 104 949 104 908 m 411 -334 q 292 -317 339 -334 l 292 -191 q 386 -203 338 -203 q 488 -87 488 -203 l 488 750 l 647 750 l 647 -98 q 586 -274 647 -214 q 411 -334 526 -334 m 478 949 q 502 1015 478 991 q 568 1038 525 1038 q 634 1015 610 1038 q 657 949 657 991 q 634 885 657 908 q 568 861 610 861 q 502 885 525 861 q 478 949 478 908 z "},"Ĵ":{"ha":415,"x_min":-106,"x_max":471,"o":"m 5 -277 q -106 -260 -61 -277 l -106 -123 q -7 -138 -49 -138 q 126 31 126 -138 l 126 991 l 289 991 l 289 36 q 217 -196 289 -116 q 5 -277 144 -277 m 363 1071 q 209 1193 280 1120 q 56 1071 139 1123 l -51 1071 l -51 1088 q 121 1293 79 1222 l 298 1293 q 471 1088 340 1219 l 471 1071 l 363 1071 z "},"ĵ":{"ha":387,"x_min":-82,"x_max":452,"o":"m 37 -334 q -82 -317 -35 -334 l -82 -191 q 12 -203 -36 -203 q 114 -87 114 -203 l 114 750 l 273 750 l 273 -98 q 213 -274 273 -214 q 37 -334 152 -334 m 344 842 q 189 964 260 891 q 37 842 119 894 l -71 842 l -71 859 q 102 1064 59 993 l 278 1064 q 452 859 321 989 l 452 842 l 344 842 z "},"Ķ":{"ha":888,"x_min":131,"x_max":888,"o":"m 888 0 l 700 0 l 389 449 l 293 371 l 293 0 l 131 0 l 131 991 l 293 991 l 293 518 q 425 675 359 600 l 693 991 l 878 991 q 505 557 618 686 l 888 0 m 341 -290 q 371 -188 357 -247 q 391 -85 386 -130 l 544 -85 l 544 -98 q 493 -211 524 -153 q 433 -307 462 -269 l 341 -307 l 341 -290 z "},"ķ":{"ha":794,"x_min":114,"x_max":787,"o":"m 268 396 l 358 509 l 585 750 l 768 750 l 467 428 l 787 0 l 600 0 l 359 329 l 272 257 l 272 0 l 114 0 l 114 1055 l 272 1055 l 272 541 l 264 396 l 268 396 m 297 -290 q 327 -188 313 -247 q 347 -85 342 -130 l 500 -85 l 500 -98 q 449 -211 480 -153 q 389 -307 418 -269 l 297 -307 l 297 -290 z "},"ĸ":{"ha":790,"x_min":114,"x_max":786,"o":"m 271 378 l 587 750 l 768 750 l 478 412 l 786 0 l 600 0 l 372 315 l 278 245 l 278 0 l 114 0 l 114 750 l 278 750 l 278 554 q 271 378 278 467 z "},"Ĺ":{"ha":753,"x_min":131,"x_max":713,"o":"m 131 0 l 131 991 l 293 991 l 293 139 l 713 139 l 713 0 l 131 0 m 171 1071 l 171 1088 q 251 1194 210 1135 q 315 1293 292 1252 l 500 1293 l 500 1279 q 395 1172 465 1238 q 277 1071 325 1107 l 171 1071 z "},"ĺ":{"ha":387,"x_min":114,"x_max":445,"o":"m 273 0 l 114 0 l 114 1055 l 273 1055 l 273 0 m 115 1109 l 115 1126 q 195 1232 154 1174 q 260 1332 236 1291 l 445 1332 l 445 1318 q 339 1211 410 1276 q 221 1109 269 1145 l 115 1109 z "},"Ļ":{"ha":753,"x_min":131,"x_max":713,"o":"m 131 0 l 131 991 l 293 991 l 293 139 l 713 139 l 713 0 l 131 0 m 284 -290 q 314 -188 300 -247 q 334 -85 329 -130 l 487 -85 l 487 -98 q 436 -211 467 -153 q 376 -307 405 -269 l 284 -307 l 284 -290 z "},"ļ":{"ha":387,"x_min":63,"x_max":273,"o":"m 273 0 l 114 0 l 114 1055 l 273 1055 l 273 0 m 63 -290 q 93 -188 79 -247 q 113 -85 108 -130 l 266 -85 l 266 -98 q 215 -211 246 -153 q 155 -307 184 -269 l 63 -307 l 63 -290 z "},"Ľ":{"ha":753,"x_min":131,"x_max":713,"o":"m 131 0 l 131 991 l 293 991 l 293 139 l 713 139 l 713 0 l 131 0 m 474 787 q 518 992 506 894 l 671 992 l 671 979 q 625 876 656 937 q 566 770 595 815 l 474 770 l 474 787 z "},"ľ":{"ha":387,"x_min":114,"x_max":534,"o":"m 273 0 l 114 0 l 114 1055 l 273 1055 l 273 0 m 336 850 q 380 1055 368 957 l 534 1055 l 534 1042 q 488 939 518 1000 q 428 833 457 878 l 336 833 l 336 850 z "},"Ŀ":{"ha":753,"x_min":131,"x_max":713,"o":"m 131 0 l 131 991 l 293 991 l 293 139 l 713 139 l 713 0 l 131 0 m 469 500 q 492 566 469 543 q 559 589 515 589 q 624 566 601 589 q 648 500 648 543 q 624 436 648 460 q 559 413 601 413 q 492 436 515 413 q 469 500 469 460 z "},"ŀ":{"ha":515,"x_min":114,"x_max":542,"o":"m 273 0 l 114 0 l 114 1055 l 273 1055 l 273 0 m 363 466 q 386 532 363 509 q 453 555 410 555 q 518 532 495 555 q 542 466 542 509 q 518 402 542 425 q 453 378 495 378 q 386 402 410 378 q 363 466 363 425 z "},"Ł":{"ha":755,"x_min":9,"x_max":713,"o":"m 131 0 l 131 339 l 71 304 l 9 410 l 131 482 l 131 991 l 293 991 l 293 579 l 441 668 l 504 561 l 293 436 l 293 139 l 713 139 l 713 0 l 131 0 z "},"ł":{"ha":410,"x_min":-1,"x_max":415,"o":"m 282 608 l 351 654 l 415 550 l 282 464 l 282 0 l 122 0 l 122 364 l 60 325 l -1 429 l 122 509 l 122 1055 l 282 1055 l 282 608 z "},"Ń":{"ha":1088,"x_min":131,"x_max":957,"o":"m 957 0 l 758 0 l 271 790 l 265 790 l 269 746 q 278 515 278 620 l 278 0 l 131 0 l 131 991 l 328 991 l 814 205 l 818 205 q 812 319 817 221 q 808 472 808 417 l 808 991 l 957 991 l 957 0 m 443 1071 l 443 1088 q 523 1194 481 1135 q 587 1293 564 1252 l 772 1293 l 772 1279 q 667 1172 737 1238 q 549 1071 597 1107 l 443 1071 z "},"ń":{"ha":882,"x_min":114,"x_max":774,"o":"m 774 0 l 614 0 l 614 461 q 579 591 614 548 q 468 633 544 633 q 320 574 367 633 q 273 374 273 514 l 273 0 l 114 0 l 114 750 l 239 750 l 261 652 l 269 652 q 366 734 303 705 q 504 764 428 764 q 774 489 774 764 l 774 0 m 344 842 l 344 859 q 424 964 382 906 q 488 1064 465 1023 l 673 1064 l 673 1050 q 568 943 638 1008 q 450 842 498 878 l 344 842 z "},"Ņ":{"ha":1088,"x_min":131,"x_max":957,"o":"m 957 0 l 758 0 l 271 790 l 265 790 l 269 746 q 278 515 278 620 l 278 0 l 131 0 l 131 991 l 328 991 l 814 205 l 818 205 q 812 319 817 221 q 808 472 808 417 l 808 991 l 957 991 l 957 0 m 395 -290 q 426 -188 411 -247 q 446 -85 440 -130 l 598 -85 l 598 -98 q 547 -211 578 -153 q 488 -307 516 -269 l 395 -307 l 395 -290 z "},"ņ":{"ha":882,"x_min":114,"x_max":774,"o":"m 774 0 l 614 0 l 614 461 q 579 591 614 548 q 468 633 544 633 q 320 574 367 633 q 273 374 273 514 l 273 0 l 114 0 l 114 750 l 239 750 l 261 652 l 269 652 q 366 734 303 705 q 504 764 428 764 q 774 489 774 764 l 774 0 m 311 -290 q 341 -188 326 -247 q 361 -85 355 -130 l 513 -85 l 513 -98 q 463 -211 494 -153 q 403 -307 431 -269 l 311 -307 l 311 -290 z "},"Ň":{"ha":1088,"x_min":131,"x_max":957,"o":"m 957 0 l 758 0 l 271 790 l 265 790 l 269 746 q 278 515 278 620 l 278 0 l 131 0 l 131 991 l 328 991 l 814 205 l 818 205 q 812 319 817 221 q 808 472 808 417 l 808 991 l 957 991 l 957 0 m 812 1293 l 812 1275 q 692 1144 727 1186 q 639 1071 657 1102 l 463 1071 q 290 1275 418 1142 l 290 1293 l 397 1293 q 550 1169 491 1232 q 705 1293 616 1237 l 812 1293 z "},"ň":{"ha":882,"x_min":114,"x_max":774,"o":"m 774 0 l 614 0 l 614 461 q 579 591 614 548 q 468 633 544 633 q 320 574 367 633 q 273 374 273 514 l 273 0 l 114 0 l 114 750 l 239 750 l 261 652 l 269 652 q 366 734 303 705 q 504 764 428 764 q 774 489 774 764 l 774 0 m 712 1064 l 712 1046 q 592 915 627 957 q 538 842 557 873 l 362 842 q 190 1046 318 913 l 190 1064 l 297 1064 q 450 940 391 1003 q 604 1064 515 1008 l 712 1064 z "},"ŉ":{"ha":1014,"x_min":2,"x_max":905,"o":"m 905 0 l 745 0 l 745 461 q 710 591 745 548 q 599 633 675 633 q 451 574 498 633 q 404 374 404 514 l 404 0 l 245 0 l 245 750 l 370 750 l 392 652 l 400 652 q 496 734 434 705 q 635 764 559 764 q 905 489 905 764 l 905 0 m 227 991 l 237 977 q 117 652 201 835 l 2 652 q 70 991 49 848 l 227 991 z "},"Ŋ":{"ha":1088,"x_min":131,"x_max":957,"o":"m 672 -277 q 554 -260 602 -277 l 554 -122 q 663 -136 604 -136 q 772 -100 734 -136 q 814 1 810 -64 l 271 790 l 265 790 l 269 748 q 278 505 278 617 l 278 0 l 131 0 l 131 991 l 328 991 l 814 282 l 818 282 q 808 657 808 366 l 808 991 l 957 991 l 957 4 q 883 -204 957 -132 q 672 -277 809 -277 z "},"ŋ":{"ha":882,"x_min":114,"x_max":774,"o":"m 554 -334 q 443 -317 488 -334 l 443 -191 q 525 -203 482 -203 q 614 -87 614 -203 l 614 469 q 578 593 614 552 q 468 633 543 633 q 320 574 367 633 q 273 374 273 514 l 273 0 l 114 0 l 114 750 l 239 750 l 261 652 l 271 652 q 365 734 304 705 q 503 764 425 764 q 707 695 640 764 q 774 489 774 627 l 774 -98 q 718 -273 774 -213 q 554 -334 661 -334 z "},"Ō":{"ha":1093,"x_min":82,"x_max":1011,"o":"m 1011 497 q 890 121 1011 255 q 547 -14 769 -14 q 202 120 323 -14 q 82 498 82 253 q 203 876 82 744 q 549 1007 324 1007 q 890 873 770 1007 q 1011 497 1011 740 m 254 497 q 328 219 254 314 q 547 125 402 125 q 765 218 692 125 q 839 497 839 312 q 766 774 839 680 q 549 868 693 868 q 329 774 403 868 q 254 497 254 680 m 331 1189 l 764 1189 l 764 1071 l 331 1071 l 331 1189 z "},"ō":{"ha":848,"x_min":69,"x_max":779,"o":"m 779 376 q 685 90 779 193 q 422 -14 591 -14 q 237 34 317 -14 q 113 170 156 81 q 69 376 69 259 q 163 661 69 559 q 427 764 256 764 q 684 659 589 764 q 779 376 779 554 m 233 376 q 425 117 233 117 q 615 376 615 117 q 424 633 615 633 q 278 567 323 633 q 233 376 233 500 m 207 960 l 640 960 l 640 842 l 207 842 l 207 960 z "},"Ŏ":{"ha":1093,"x_min":82,"x_max":1011,"o":"m 1011 497 q 890 121 1011 255 q 547 -14 769 -14 q 202 120 323 -14 q 82 498 82 253 q 203 876 82 744 q 549 1007 324 1007 q 890 873 770 1007 q 1011 497 1011 740 m 254 497 q 328 219 254 314 q 547 125 402 125 q 765 218 692 125 q 839 497 839 312 q 766 774 839 680 q 549 868 693 868 q 329 774 403 868 q 254 497 254 680 m 543 1071 q 375 1125 437 1071 q 309 1276 314 1179 l 401 1276 q 420 1224 405 1244 q 462 1197 435 1205 q 546 1189 490 1189 q 651 1211 617 1189 q 690 1276 686 1234 l 785 1276 q 712 1126 777 1181 q 543 1071 647 1071 z "},"ŏ":{"ha":848,"x_min":69,"x_max":779,"o":"m 779 376 q 685 90 779 193 q 422 -14 591 -14 q 237 34 317 -14 q 113 170 156 81 q 69 376 69 259 q 163 661 69 559 q 427 764 256 764 q 684 659 589 764 q 779 376 779 554 m 233 376 q 425 117 233 117 q 615 376 615 117 q 424 633 615 633 q 278 567 323 633 q 233 376 233 500 m 419 842 q 251 896 313 842 q 184 1047 190 949 l 277 1047 q 296 995 281 1015 q 338 968 311 976 q 422 960 366 960 q 527 982 493 960 q 566 1047 562 1004 l 661 1047 q 588 897 653 951 q 419 842 523 842 z "},"Ő":{"ha":1093,"x_min":82,"x_max":1011,"o":"m 1011 497 q 890 121 1011 255 q 547 -14 769 -14 q 202 120 323 -14 q 82 498 82 253 q 203 876 82 744 q 549 1007 324 1007 q 890 873 770 1007 q 1011 497 1011 740 m 254 497 q 328 219 254 314 q 547 125 402 125 q 765 218 692 125 q 839 497 839 312 q 766 774 839 680 q 549 868 693 868 q 329 774 403 868 q 254 497 254 680 m 334 1071 l 334 1088 q 460 1293 404 1185 l 625 1293 l 625 1279 q 540 1179 606 1246 q 421 1071 474 1112 l 334 1071 m 589 1071 l 589 1088 q 656 1188 618 1126 q 715 1293 694 1249 l 880 1293 l 880 1279 q 795 1179 861 1246 q 676 1071 729 1112 l 589 1071 z "},"ő":{"ha":848,"x_min":69,"x_max":779,"o":"m 779 376 q 685 90 779 193 q 422 -14 591 -14 q 237 34 317 -14 q 113 170 156 81 q 69 376 69 259 q 163 661 69 559 q 427 764 256 764 q 684 659 589 764 q 779 376 779 554 m 233 376 q 425 117 233 117 q 615 376 615 117 q 424 633 615 633 q 278 567 323 633 q 233 376 233 500 m 203 842 l 203 859 q 329 1064 273 956 l 494 1064 l 494 1050 q 409 949 475 1017 q 290 842 343 882 l 203 842 m 458 842 l 458 859 q 525 959 487 897 q 585 1064 564 1020 l 749 1064 l 749 1050 q 664 949 730 1017 q 545 842 598 882 l 458 842 z "},"Œ":{"ha":1317,"x_min":82,"x_max":1234,"o":"m 1234 0 l 677 0 q 534 -14 608 -14 q 200 120 317 -14 q 82 498 82 253 q 199 875 82 743 q 532 1007 315 1007 q 673 991 610 1007 l 1234 991 l 1234 854 l 843 854 l 843 585 l 1208 585 l 1208 449 l 843 449 l 843 138 l 1234 138 l 1234 0 m 538 868 q 324 774 397 868 q 252 497 252 680 q 323 220 252 315 q 536 125 395 125 q 681 149 624 125 l 681 843 q 538 868 627 868 z "},"œ":{"ha":1333,"x_min":69,"x_max":1267,"o":"m 975 -14 q 690 118 785 -14 q 419 -14 601 -14 q 164 92 259 -14 q 69 376 69 197 q 162 662 69 561 q 421 764 255 764 q 572 730 503 764 q 686 632 642 697 q 943 764 775 764 q 1180 673 1093 764 q 1267 425 1267 583 l 1267 339 l 766 339 q 824 170 774 228 q 979 113 875 113 q 1106 125 1048 113 q 1229 167 1164 138 l 1229 37 q 1113 -2 1172 10 q 975 -14 1053 -14 m 233 376 q 278 182 233 248 q 421 117 322 117 q 561 181 517 117 q 606 374 606 246 q 561 569 606 504 q 418 633 516 633 q 277 569 321 633 q 233 376 233 505 m 945 643 q 824 596 870 643 q 771 454 779 549 l 1108 454 q 1065 594 1108 545 q 945 643 1023 643 z "},"Ŕ":{"ha":888,"x_min":131,"x_max":875,"o":"m 293 530 l 406 530 q 570 572 519 530 q 621 697 621 614 q 566 818 621 781 q 400 854 511 854 l 293 854 l 293 530 m 293 396 l 293 0 l 131 0 l 131 991 l 411 991 q 695 920 603 991 q 787 703 787 848 q 595 439 787 517 l 875 0 l 690 0 l 453 396 l 293 396 m 336 1071 l 336 1088 q 415 1194 374 1135 q 480 1293 456 1252 l 665 1293 l 665 1279 q 560 1172 630 1238 q 441 1071 490 1107 l 336 1071 z "},"ŕ":{"ha":599,"x_min":114,"x_max":574,"o":"m 494 764 q 574 757 543 764 l 558 608 q 488 616 524 616 q 333 554 392 616 q 273 392 273 492 l 273 0 l 114 0 l 114 750 l 239 750 l 260 618 l 268 618 q 365 724 305 685 q 494 764 425 764 m 237 842 l 237 859 q 316 964 275 906 q 381 1064 357 1023 l 566 1064 l 566 1050 q 461 943 531 1008 q 342 842 391 878 l 237 842 z "},"Ŗ":{"ha":888,"x_min":131,"x_max":875,"o":"m 293 530 l 406 530 q 570 572 519 530 q 621 697 621 614 q 566 818 621 781 q 400 854 511 854 l 293 854 l 293 530 m 293 396 l 293 0 l 131 0 l 131 991 l 411 991 q 695 920 603 991 q 787 703 787 848 q 595 439 787 517 l 875 0 l 690 0 l 453 396 l 293 396 m 346 -290 q 376 -188 361 -247 q 396 -85 391 -130 l 549 -85 l 549 -98 q 498 -211 529 -153 q 438 -307 467 -269 l 346 -307 l 346 -290 z "},"ŗ":{"ha":599,"x_min":66,"x_max":574,"o":"m 494 764 q 574 757 543 764 l 558 608 q 488 616 524 616 q 333 554 392 616 q 273 392 273 492 l 273 0 l 114 0 l 114 750 l 239 750 l 260 618 l 268 618 q 365 724 305 685 q 494 764 425 764 m 66 -290 q 96 -188 81 -247 q 116 -85 111 -130 l 269 -85 l 269 -98 q 218 -211 249 -153 q 158 -307 186 -269 l 66 -307 l 66 -290 z "},"Ř":{"ha":888,"x_min":131,"x_max":875,"o":"m 293 530 l 406 530 q 570 572 519 530 q 621 697 621 614 q 566 818 621 781 q 400 854 511 854 l 293 854 l 293 530 m 293 396 l 293 0 l 131 0 l 131 991 l 411 991 q 695 920 603 991 q 787 703 787 848 q 595 439 787 517 l 875 0 l 690 0 l 453 396 l 293 396 m 703 1293 l 703 1275 q 582 1144 617 1186 q 529 1071 547 1102 l 353 1071 q 180 1275 309 1142 l 180 1293 l 288 1293 q 440 1169 381 1232 q 595 1293 506 1237 l 703 1293 z "},"ř":{"ha":599,"x_min":73,"x_max":595,"o":"m 494 764 q 574 757 543 764 l 558 608 q 488 616 524 616 q 333 554 392 616 q 273 392 273 492 l 273 0 l 114 0 l 114 750 l 239 750 l 260 618 l 268 618 q 365 724 305 685 q 494 764 425 764 m 595 1064 l 595 1046 q 474 915 509 957 q 421 842 439 873 l 245 842 q 73 1046 201 913 l 73 1064 l 180 1064 q 332 940 273 1003 q 487 1064 398 1008 l 595 1064 z "},"Ś":{"ha":764,"x_min":68,"x_max":703,"o":"m 703 269 q 607 62 703 137 q 343 -14 511 -14 q 68 39 175 -14 l 68 192 q 212 142 136 160 q 354 123 288 123 q 496 160 450 123 q 542 258 542 197 q 500 353 542 314 q 326 444 458 391 q 135 570 191 499 q 79 739 79 640 q 168 935 79 863 q 404 1006 256 1006 q 688 943 547 1006 l 636 811 q 400 867 504 867 q 281 832 321 867 q 240 742 240 798 q 256 676 240 703 q 310 624 273 648 q 444 559 347 600 q 604 475 553 514 q 679 386 655 435 q 703 269 703 336 m 298 1071 l 298 1088 q 378 1194 337 1135 q 443 1293 419 1252 l 628 1293 l 628 1279 q 523 1172 593 1238 q 404 1071 452 1107 l 298 1071 z "},"ś":{"ha":676,"x_min":66,"x_max":618,"o":"m 618 214 q 538 45 618 104 q 309 -14 458 -14 q 68 32 159 -14 l 68 170 q 314 109 200 109 q 461 197 461 109 q 445 245 461 226 q 391 284 429 264 q 288 330 354 304 q 112 431 158 380 q 66 561 66 481 q 144 710 66 657 q 355 764 222 764 q 606 710 488 764 l 554 590 q 350 640 433 640 q 224 568 224 640 q 257 509 224 533 q 400 441 290 484 q 535 376 493 406 q 597 307 577 346 q 618 214 618 268 m 242 842 l 242 859 q 322 964 281 906 q 387 1064 363 1023 l 572 1064 l 572 1050 q 466 943 536 1008 q 348 842 396 878 l 242 842 z "},"Ŝ":{"ha":764,"x_min":68,"x_max":703,"o":"m 703 269 q 607 62 703 137 q 343 -14 511 -14 q 68 39 175 -14 l 68 192 q 212 142 136 160 q 354 123 288 123 q 496 160 450 123 q 542 258 542 197 q 500 353 542 314 q 326 444 458 391 q 135 570 191 499 q 79 739 79 640 q 168 935 79 863 q 404 1006 256 1006 q 688 943 547 1006 l 636 811 q 400 867 504 867 q 281 832 321 867 q 240 742 240 798 q 256 676 240 703 q 310 624 273 648 q 444 559 347 600 q 604 475 553 514 q 679 386 655 435 q 703 269 703 336 m 553 1071 q 399 1193 470 1120 q 246 1071 329 1123 l 139 1071 l 139 1088 q 311 1293 269 1222 l 488 1293 q 661 1088 530 1219 l 661 1071 l 553 1071 z "},"ŝ":{"ha":676,"x_min":66,"x_max":618,"o":"m 618 214 q 538 45 618 104 q 309 -14 458 -14 q 68 32 159 -14 l 68 170 q 314 109 200 109 q 461 197 461 109 q 445 245 461 226 q 391 284 429 264 q 288 330 354 304 q 112 431 158 380 q 66 561 66 481 q 144 710 66 657 q 355 764 222 764 q 606 710 488 764 l 554 590 q 350 640 433 640 q 224 568 224 640 q 257 509 224 533 q 400 441 290 484 q 535 376 493 406 q 597 307 577 346 q 618 214 618 268 m 501 842 q 347 964 418 891 q 194 842 277 894 l 87 842 l 87 859 q 259 1064 216 993 l 435 1064 q 609 859 478 989 l 609 842 l 501 842 z "},"Ş":{"ha":764,"x_min":68,"x_max":703,"o":"m 703 269 q 607 62 703 137 q 343 -14 511 -14 q 68 39 175 -14 l 68 192 q 212 142 136 160 q 354 123 288 123 q 496 160 450 123 q 542 258 542 197 q 500 353 542 314 q 326 444 458 391 q 135 570 191 499 q 79 739 79 640 q 168 935 79 863 q 404 1006 256 1006 q 688 943 547 1006 l 636 811 q 400 867 504 867 q 281 832 321 867 q 240 742 240 798 q 256 676 240 703 q 310 624 273 648 q 444 559 347 600 q 604 475 553 514 q 679 386 655 435 q 703 269 703 336 m 509 -183 q 302 -334 509 -334 q 220 -323 257 -334 l 220 -231 q 303 -240 256 -240 q 361 -229 340 -240 q 382 -187 382 -218 q 261 -113 382 -130 l 318 0 l 421 0 l 393 -60 q 478 -106 448 -74 q 509 -183 509 -138 z "},"ş":{"ha":676,"x_min":66,"x_max":618,"o":"m 618 214 q 538 45 618 104 q 309 -14 458 -14 q 68 32 159 -14 l 68 170 q 314 109 200 109 q 461 197 461 109 q 445 245 461 226 q 391 284 429 264 q 288 330 354 304 q 112 431 158 380 q 66 561 66 481 q 144 710 66 657 q 355 764 222 764 q 606 710 488 764 l 554 590 q 350 640 433 640 q 224 568 224 640 q 257 509 224 533 q 400 441 290 484 q 535 376 493 406 q 597 307 577 346 q 618 214 618 268 m 463 -183 q 256 -334 463 -334 q 174 -323 211 -334 l 174 -231 q 257 -240 210 -240 q 315 -229 294 -240 q 336 -187 336 -218 q 215 -113 336 -130 l 272 0 l 375 0 l 347 -60 q 432 -106 401 -74 q 463 -183 463 -138 z "},"Š":{"ha":764,"x_min":68,"x_max":703,"o":"m 703 269 q 607 62 703 137 q 343 -14 511 -14 q 68 39 175 -14 l 68 192 q 212 142 136 160 q 354 123 288 123 q 496 160 450 123 q 542 258 542 197 q 500 353 542 314 q 326 444 458 391 q 135 570 191 499 q 79 739 79 640 q 168 935 79 863 q 404 1006 256 1006 q 688 943 547 1006 l 636 811 q 400 867 504 867 q 281 832 321 867 q 240 742 240 798 q 256 676 240 703 q 310 624 273 648 q 444 559 347 600 q 604 475 553 514 q 679 386 655 435 q 703 269 703 336 m 660 1293 l 660 1275 q 539 1144 574 1186 q 486 1071 505 1102 l 310 1071 q 138 1275 266 1142 l 138 1293 l 245 1293 q 397 1169 338 1232 q 552 1293 463 1237 l 660 1293 z "},"š":{"ha":676,"x_min":66,"x_max":618,"o":"m 618 214 q 538 45 618 104 q 309 -14 458 -14 q 68 32 159 -14 l 68 170 q 314 109 200 109 q 461 197 461 109 q 445 245 461 226 q 391 284 429 264 q 288 330 354 304 q 112 431 158 380 q 66 561 66 481 q 144 710 66 657 q 355 764 222 764 q 606 710 488 764 l 554 590 q 350 640 433 640 q 224 568 224 640 q 257 509 224 533 q 400 441 290 484 q 535 376 493 406 q 597 307 577 346 q 618 214 618 268 m 613 1064 l 613 1046 q 493 915 528 957 q 439 842 458 873 l 263 842 q 91 1046 219 913 l 91 1064 l 198 1064 q 351 940 292 1003 q 505 1064 416 1008 l 613 1064 z "},"Ț":{"ha":786,"x_min":20,"x_max":765,"o":"m 473 0 l 311 0 l 311 852 l 20 852 l 20 991 l 765 991 l 765 852 l 473 852 l 473 0 m 265 -290 q 295 -188 281 -247 q 315 -85 310 -130 l 468 -85 l 468 -98 q 417 -211 448 -153 q 357 -307 386 -269 l 265 -307 l 265 -290 z "},"ț":{"ha":546,"x_min":26,"x_max":510,"o":"m 393 115 q 510 134 452 115 l 510 14 q 442 -6 484 2 q 355 -14 400 -14 q 129 225 129 -14 l 129 629 l 26 629 l 26 700 l 136 758 l 191 917 l 289 917 l 289 750 l 503 750 l 503 629 l 289 629 l 289 228 q 318 143 289 170 q 393 115 347 115 m 184 -290 q 214 -188 199 -247 q 234 -85 229 -130 l 387 -85 l 387 -98 q 336 -211 367 -153 q 276 -307 304 -269 l 184 -307 l 184 -290 z "},"Ť":{"ha":786,"x_min":20,"x_max":765,"o":"m 473 0 l 311 0 l 311 852 l 20 852 l 20 991 l 765 991 l 765 852 l 473 852 l 473 0 m 656 1293 l 656 1275 q 535 1144 570 1186 q 482 1071 500 1102 l 306 1071 q 134 1275 262 1142 l 134 1293 l 241 1293 q 393 1169 334 1232 q 548 1293 459 1237 l 656 1293 z "},"ť":{"ha":546,"x_min":26,"x_max":574,"o":"m 393 115 q 510 134 452 115 l 510 14 q 442 -6 484 2 q 355 -14 400 -14 q 129 225 129 -14 l 129 629 l 26 629 l 26 700 l 136 758 l 191 917 l 289 917 l 289 750 l 503 750 l 503 629 l 289 629 l 289 228 q 318 143 289 170 q 393 115 347 115 m 376 857 q 420 1062 408 964 l 574 1062 l 574 1048 q 528 946 558 1006 q 468 840 497 885 l 376 840 l 376 857 z "},"Ŧ":{"ha":786,"x_min":20,"x_max":765,"o":"m 473 0 l 311 0 l 311 431 l 121 431 l 121 564 l 311 564 l 311 852 l 20 852 l 20 991 l 765 991 l 765 852 l 473 852 l 473 564 l 663 564 l 663 431 l 473 431 l 473 0 z "},"ŧ":{"ha":546,"x_min":26,"x_max":510,"o":"m 395 115 q 510 134 447 115 l 510 14 q 442 -6 484 2 q 355 -14 399 -14 q 184 47 239 -14 q 129 229 129 107 l 129 366 l 37 366 l 37 476 l 129 476 l 129 629 l 26 629 l 26 700 l 136 758 l 191 917 l 289 917 l 289 750 l 503 750 l 503 629 l 289 629 l 289 476 l 485 476 l 485 366 l 289 366 l 289 233 q 395 115 289 115 z "},"Ũ":{"ha":1031,"x_min":122,"x_max":908,"o":"m 908 991 l 908 350 q 861 158 908 240 q 725 31 814 75 q 511 -14 635 -14 q 224 84 327 -14 q 122 353 122 182 l 122 991 l 285 991 l 285 364 q 342 183 285 241 q 517 125 399 125 q 746 366 746 125 l 746 991 l 908 991 m 616 1071 q 561 1083 588 1071 q 507 1109 533 1095 q 455 1136 480 1124 q 407 1147 430 1147 q 333 1069 352 1147 l 250 1069 q 303 1213 258 1164 q 416 1263 347 1263 q 473 1251 446 1263 q 528 1224 501 1239 q 579 1198 554 1210 q 627 1186 604 1186 q 699 1264 680 1186 l 783 1264 q 731 1122 775 1173 q 616 1071 687 1071 z "},"ũ":{"ha":882,"x_min":107,"x_max":768,"o":"m 643 0 l 621 98 l 612 98 q 518 16 579 46 q 378 -14 456 -14 q 174 54 241 -14 q 107 260 107 122 l 107 750 l 268 750 l 268 288 q 303 158 268 201 q 414 115 338 115 q 561 175 514 115 q 608 376 608 235 l 608 750 l 768 750 l 768 0 l 643 0 m 538 842 q 483 853 510 842 q 429 880 455 865 q 377 906 402 895 q 329 918 352 918 q 255 840 274 918 l 172 840 q 225 984 180 935 q 338 1034 269 1034 q 395 1022 368 1034 q 450 995 423 1010 q 501 969 476 981 q 549 957 526 957 q 621 1035 602 957 l 705 1035 q 653 893 697 944 q 538 842 609 842 z "},"Ū":{"ha":1031,"x_min":122,"x_max":908,"o":"m 908 991 l 908 350 q 861 158 908 240 q 725 31 814 75 q 511 -14 635 -14 q 224 84 327 -14 q 122 353 122 182 l 122 991 l 285 991 l 285 364 q 342 183 285 241 q 517 125 399 125 q 746 366 746 125 l 746 991 l 908 991 m 299 1189 l 732 1189 l 732 1071 l 299 1071 l 299 1189 z "},"ū":{"ha":882,"x_min":107,"x_max":768,"o":"m 643 0 l 621 98 l 612 98 q 518 16 579 46 q 378 -14 456 -14 q 174 54 241 -14 q 107 260 107 122 l 107 750 l 268 750 l 268 288 q 303 158 268 201 q 414 115 338 115 q 561 175 514 115 q 608 376 608 235 l 608 750 l 768 750 l 768 0 l 643 0 m 221 960 l 654 960 l 654 842 l 221 842 l 221 960 z "},"Ŭ":{"ha":1031,"x_min":122,"x_max":908,"o":"m 908 991 l 908 350 q 861 158 908 240 q 725 31 814 75 q 511 -14 635 -14 q 224 84 327 -14 q 122 353 122 182 l 122 991 l 285 991 l 285 364 q 342 183 285 241 q 517 125 399 125 q 746 366 746 125 l 746 991 l 908 991 m 509 1071 q 341 1125 403 1071 q 275 1276 280 1179 l 368 1276 q 386 1224 371 1244 q 428 1197 401 1205 q 512 1189 456 1189 q 617 1211 583 1189 q 656 1276 652 1234 l 751 1276 q 678 1126 743 1181 q 509 1071 613 1071 z "},"ŭ":{"ha":882,"x_min":107,"x_max":768,"o":"m 643 0 l 621 98 l 612 98 q 518 16 579 46 q 378 -14 456 -14 q 174 54 241 -14 q 107 260 107 122 l 107 750 l 268 750 l 268 288 q 303 158 268 201 q 414 115 338 115 q 561 175 514 115 q 608 376 608 235 l 608 750 l 768 750 l 768 0 l 643 0 m 433 842 q 266 896 327 842 q 199 1047 204 949 l 292 1047 q 310 995 295 1015 q 352 968 325 976 q 436 960 380 960 q 542 982 507 960 q 581 1047 576 1004 l 675 1047 q 602 897 667 951 q 433 842 537 842 z "},"Ů":{"ha":1031,"x_min":122,"x_max":908,"o":"m 908 991 l 908 350 q 861 158 908 240 q 725 31 814 75 q 511 -14 635 -14 q 224 84 327 -14 q 122 353 122 182 l 122 991 l 285 991 l 285 364 q 342 183 285 241 q 517 125 399 125 q 746 366 746 125 l 746 991 l 908 991 m 676 1225 q 632 1113 676 1156 q 514 1069 587 1069 q 397 1112 441 1069 q 354 1223 354 1154 q 397 1334 354 1292 q 514 1377 440 1377 q 630 1335 585 1377 q 676 1225 676 1293 m 586 1223 q 566 1277 586 1257 q 514 1296 545 1296 q 462 1277 482 1296 q 441 1223 441 1257 q 514 1152 441 1152 q 566 1170 545 1152 q 586 1223 586 1189 z "},"ů":{"ha":882,"x_min":107,"x_max":768,"o":"m 643 0 l 621 98 l 612 98 q 518 16 579 46 q 378 -14 456 -14 q 174 54 241 -14 q 107 260 107 122 l 107 750 l 268 750 l 268 288 q 303 158 268 201 q 414 115 338 115 q 561 175 514 115 q 608 376 608 235 l 608 750 l 768 750 l 768 0 l 643 0 m 598 996 q 554 883 598 926 q 436 840 509 840 q 319 883 363 840 q 276 994 276 925 q 319 1105 276 1063 q 436 1147 362 1147 q 552 1105 507 1147 q 598 996 598 1063 m 508 994 q 488 1047 508 1028 q 436 1067 467 1067 q 384 1047 404 1067 q 363 994 363 1028 q 436 922 363 922 q 488 941 467 922 q 508 994 508 960 z "},"Ű":{"ha":1031,"x_min":122,"x_max":908,"o":"m 908 991 l 908 350 q 861 158 908 240 q 725 31 814 75 q 511 -14 635 -14 q 224 84 327 -14 q 122 353 122 182 l 122 991 l 285 991 l 285 364 q 342 183 285 241 q 517 125 399 125 q 746 366 746 125 l 746 991 l 908 991 m 303 1071 l 303 1088 q 429 1293 374 1185 l 595 1293 l 595 1279 q 509 1179 575 1246 q 391 1071 444 1112 l 303 1071 m 558 1071 l 558 1088 q 626 1188 587 1126 q 685 1293 664 1249 l 850 1293 l 850 1279 q 764 1179 830 1246 q 646 1071 699 1112 l 558 1071 z "},"ű":{"ha":882,"x_min":107,"x_max":776,"o":"m 643 0 l 621 98 l 612 98 q 518 16 579 46 q 378 -14 456 -14 q 174 54 241 -14 q 107 260 107 122 l 107 750 l 268 750 l 268 288 q 303 158 268 201 q 414 115 338 115 q 561 175 514 115 q 608 376 608 235 l 608 750 l 768 750 l 768 0 l 643 0 m 229 842 l 229 859 q 355 1064 300 956 l 521 1064 l 521 1050 q 435 949 501 1017 q 317 842 370 882 l 229 842 m 484 842 l 484 859 q 552 959 513 897 q 611 1064 590 1020 l 776 1064 l 776 1050 q 690 949 756 1017 q 572 842 625 882 l 484 842 z "},"Ų":{"ha":1031,"x_min":122,"x_max":908,"o":"m 908 991 l 908 350 q 861 158 908 240 q 725 31 814 75 q 511 -14 635 -14 q 224 84 327 -14 q 122 353 122 182 l 122 991 l 285 991 l 285 364 q 342 183 285 241 q 517 125 399 125 q 746 366 746 125 l 746 991 l 908 991 m 517 -158 q 576 -218 517 -218 q 647 -207 606 -218 l 647 -304 q 553 -318 600 -318 q 437 -280 476 -318 q 397 -176 397 -241 q 423 -90 397 -132 q 513 0 449 -48 l 614 0 q 542 -82 567 -45 q 517 -158 517 -119 z "},"ų":{"ha":882,"x_min":107,"x_max":779,"o":"m 643 0 l 621 98 l 612 98 q 518 16 579 46 q 378 -14 456 -14 q 174 54 241 -14 q 107 260 107 122 l 107 750 l 268 750 l 268 288 q 303 158 268 201 q 414 115 338 115 q 561 175 514 115 q 608 376 608 235 l 608 750 l 768 750 l 768 0 l 643 0 m 649 -158 q 709 -218 649 -218 q 779 -207 738 -218 l 779 -304 q 685 -318 732 -318 q 569 -280 608 -318 q 530 -176 530 -241 q 555 -90 530 -132 q 645 0 581 -48 l 746 0 q 674 -82 699 -45 q 649 -158 649 -119 z "},"Ŵ":{"ha":1314,"x_min":8,"x_max":1304,"o":"m 1046 0 l 869 0 l 701 591 q 674 703 690 630 q 654 804 658 776 q 632 692 648 761 q 607 589 617 623 l 443 0 l 267 0 l 138 496 l 8 991 l 174 991 l 315 414 q 363 168 349 275 q 385 297 370 226 q 412 412 400 368 l 574 991 l 734 991 l 900 410 q 950 168 924 329 q 999 415 960 265 l 1140 991 l 1304 991 l 1046 0 m 808 1071 q 654 1193 725 1120 q 501 1071 584 1123 l 394 1071 l 394 1088 q 566 1293 524 1222 l 743 1293 q 916 1088 785 1219 l 916 1071 l 808 1071 z "},"ŵ":{"ha":1135,"x_min":14,"x_max":1120,"o":"m 729 0 l 632 350 q 568 608 614 406 l 562 608 q 500 349 523 425 l 400 0 l 224 0 l 14 750 l 176 750 l 272 380 q 318 146 304 243 l 322 146 q 343 259 329 195 q 367 355 357 323 l 481 750 l 656 750 l 766 355 q 792 254 777 322 q 810 147 807 185 l 815 147 q 863 380 825 231 l 960 750 l 1120 750 l 908 0 l 729 0 m 720 842 q 565 964 636 891 q 412 842 495 894 l 305 842 l 305 859 q 477 1064 435 993 l 654 1064 q 827 859 696 989 l 827 842 l 720 842 z "},"Ŷ":{"ha":822,"x_min":0,"x_max":822,"o":"m 411 539 l 646 991 l 822 991 l 492 385 l 492 0 l 329 0 l 329 379 l 0 991 l 176 991 l 411 539 m 565 1071 q 410 1193 481 1120 q 258 1071 340 1123 l 151 1071 l 151 1088 q 323 1293 280 1222 l 499 1293 q 673 1088 542 1219 l 673 1071 l 565 1071 z "},"ŷ":{"ha":745,"x_min":0,"x_max":745,"o":"m 0 750 l 174 750 l 326 325 q 372 154 361 234 l 378 154 q 400 244 384 191 q 572 750 416 298 l 745 750 l 424 -100 q 132 -334 336 -334 q 29 -322 79 -334 l 29 -196 q 111 -204 65 -204 q 273 -71 227 -204 l 301 0 l 0 750 m 529 842 q 374 964 446 891 q 222 842 304 894 l 115 842 l 115 859 q 287 1064 244 993 l 463 1064 q 637 859 506 989 l 637 842 l 529 842 z "},"Ÿ":{"ha":822,"x_min":0,"x_max":822,"o":"m 411 539 l 646 991 l 822 991 l 492 385 l 492 0 l 329 0 l 329 379 l 0 991 l 176 991 l 411 539 m 199 1178 q 221 1239 199 1220 q 277 1257 244 1257 q 334 1236 313 1257 q 355 1178 355 1215 q 334 1120 355 1142 q 277 1099 312 1099 q 221 1118 244 1099 q 199 1178 199 1138 m 465 1178 q 488 1239 465 1220 q 543 1257 511 1257 q 601 1236 579 1257 q 623 1178 623 1215 q 600 1120 623 1141 q 543 1099 578 1099 q 488 1118 511 1099 q 465 1178 465 1138 z "},"Ź":{"ha":799,"x_min":45,"x_max":754,"o":"m 754 0 l 45 0 l 45 113 l 545 852 l 58 852 l 58 991 l 741 991 l 741 878 l 239 139 l 754 139 l 754 0 m 294 1071 l 294 1088 q 374 1194 333 1135 q 439 1293 415 1252 l 624 1293 l 624 1279 q 518 1172 589 1238 q 400 1071 448 1107 l 294 1071 z "},"ź":{"ha":664,"x_min":46,"x_max":615,"o":"m 615 0 l 46 0 l 46 98 l 425 628 l 69 628 l 69 750 l 604 750 l 604 639 l 233 122 l 615 122 l 615 0 m 245 842 l 245 859 q 325 964 283 906 q 389 1064 366 1023 l 574 1064 l 574 1050 q 469 943 539 1008 q 351 842 399 878 l 245 842 z "},"Ż":{"ha":799,"x_min":45,"x_max":754,"o":"m 754 0 l 45 0 l 45 113 l 545 852 l 58 852 l 58 991 l 741 991 l 741 878 l 239 139 l 754 139 l 754 0 m 309 1178 q 332 1244 309 1221 q 399 1267 355 1267 q 464 1244 441 1267 q 488 1178 488 1221 q 464 1114 488 1137 q 399 1090 441 1090 q 332 1114 355 1090 q 309 1178 309 1137 z "},"ż":{"ha":664,"x_min":46,"x_max":615,"o":"m 615 0 l 46 0 l 46 98 l 425 628 l 69 628 l 69 750 l 604 750 l 604 639 l 233 122 l 615 122 l 615 0 m 242 949 q 266 1015 242 991 q 332 1038 289 1038 q 398 1015 374 1038 q 421 949 421 991 q 398 885 421 908 q 332 861 374 861 q 266 885 289 861 q 242 949 242 908 z "},"Ž":{"ha":799,"x_min":45,"x_max":754,"o":"m 754 0 l 45 0 l 45 113 l 545 852 l 58 852 l 58 991 l 741 991 l 741 878 l 239 139 l 754 139 l 754 0 m 665 1293 l 665 1275 q 544 1144 579 1186 q 491 1071 509 1102 l 315 1071 q 142 1275 271 1142 l 142 1293 l 250 1293 q 402 1169 343 1232 q 557 1293 468 1237 l 665 1293 z "},"ž":{"ha":664,"x_min":46,"x_max":615,"o":"m 615 0 l 46 0 l 46 98 l 425 628 l 69 628 l 69 750 l 604 750 l 604 639 l 233 122 l 615 122 l 615 0 m 600 1064 l 600 1046 q 480 915 515 957 q 427 842 445 873 l 250 842 q 78 1046 206 913 l 78 1064 l 185 1064 q 338 940 279 1003 q 492 1064 404 1008 l 600 1064 z "},"ſ":{"ha":488,"x_min":114,"x_max":529,"o":"m 379 933 q 273 803 273 933 l 273 0 l 114 0 l 114 807 q 175 999 114 936 q 368 1063 237 1063 q 529 1034 457 1063 l 490 913 q 379 933 427 933 z "},"ƒ":{"ha":798,"x_min":132,"x_max":718,"o":"m 240 -334 q 132 -319 181 -334 l 132 -191 q 216 -203 174 -203 q 294 -172 271 -203 q 318 -72 318 -142 l 318 555 l 186 555 l 186 632 l 318 679 l 318 754 q 374 945 318 884 q 559 1006 431 1006 q 651 996 612 1006 q 718 975 690 985 l 679 856 q 575 876 620 876 q 500 847 522 876 q 478 751 478 817 l 478 677 l 650 677 l 650 555 l 479 555 l 479 -86 q 240 -334 479 -334 z "},"Ǻ":{"ha":920,"x_min":0,"x_max":920,"o":"m 621 981 q 570 867 621 909 l 920 0 l 749 0 l 653 248 l 264 248 l 171 0 l 0 0 l 350 865 q 298 979 298 905 q 342 1090 298 1048 q 458 1132 386 1132 q 574 1091 528 1132 q 621 981 621 1050 m 612 387 l 533 596 q 460 803 478 730 q 443 750 452 777 q 309 387 433 723 l 612 387 m 385 1168 l 385 1181 q 443 1247 405 1200 q 503 1331 481 1295 l 688 1331 l 688 1321 q 602 1245 667 1295 q 492 1168 537 1196 l 385 1168 m 530 979 q 510 1033 530 1014 q 458 1051 490 1051 q 406 1033 427 1051 q 386 979 386 1014 q 403 926 386 945 q 454 907 420 907 l 461 907 q 511 926 492 907 q 530 979 530 945 z "},"ǻ":{"ha":806,"x_min":61,"x_max":697,"o":"m 583 0 l 551 104 l 546 104 q 438 16 500 45 q 296 -14 376 -14 q 124 46 187 -14 q 61 215 61 106 q 148 389 61 330 q 410 454 235 449 l 539 458 l 539 498 q 505 606 539 570 q 401 642 470 642 q 300 627 353 642 q 189 585 248 613 l 138 699 q 270 747 203 731 q 408 764 338 764 q 625 699 553 764 q 697 505 697 634 l 697 0 l 583 0 m 346 109 q 485 157 432 109 q 538 293 538 205 l 538 358 l 441 354 q 280 314 334 349 q 227 214 227 279 q 256 135 227 161 q 346 109 286 109 m 319 1189 l 319 1200 q 437 1331 386 1261 l 642 1331 l 642 1322 q 429 1189 602 1279 l 319 1189 m 408 827 q 293 867 338 827 q 249 981 249 908 q 293 1092 249 1051 q 408 1133 338 1133 q 524 1093 476 1133 q 571 982 571 1053 q 525 867 571 908 q 408 827 478 827 m 408 1053 q 354 1035 372 1053 q 336 981 336 1017 q 354 926 336 944 q 408 908 372 908 q 463 926 444 908 q 481 981 481 944 q 463 1035 481 1017 q 408 1053 444 1053 z "},"Ǽ":{"ha":1267,"x_min":-1,"x_max":1185,"o":"m 1185 0 l 635 0 l 635 275 l 293 275 l 165 0 l -1 0 l 458 991 l 1185 991 l 1185 854 l 798 854 l 798 585 l 1158 585 l 1158 449 l 798 449 l 798 138 l 1185 138 l 1185 0 m 354 415 l 635 415 l 635 850 l 551 850 l 354 415 m 672 1071 l 672 1088 q 752 1194 711 1135 q 817 1293 793 1252 l 1002 1293 l 1002 1279 q 896 1172 966 1238 q 778 1071 826 1107 l 672 1071 z "},"ǽ":{"ha":1232,"x_min":61,"x_max":1166,"o":"m 61 215 q 143 390 61 332 q 395 454 226 449 l 522 458 l 522 510 q 386 642 522 642 q 178 586 290 642 l 127 699 q 258 747 187 730 q 396 764 329 764 q 627 659 559 764 q 861 764 708 764 q 1084 672 1001 764 q 1166 427 1166 581 l 1166 340 l 684 340 q 888 113 690 113 q 1129 167 1013 113 l 1129 37 q 1013 -2 1071 9 q 880 -14 955 -14 q 712 23 785 -14 q 593 135 638 60 q 464 18 529 50 q 300 -14 398 -14 q 124 47 188 -14 q 61 215 61 109 m 227 214 q 339 109 227 109 q 472 158 423 109 q 521 293 521 207 l 521 358 l 429 354 q 275 317 324 350 q 227 214 227 284 m 859 643 q 738 596 783 643 q 688 454 694 549 l 1008 454 q 969 593 1008 543 q 859 643 929 643 m 534 842 l 534 859 q 614 964 573 906 q 679 1064 655 1023 l 864 1064 l 864 1050 q 759 943 829 1008 q 640 842 688 878 l 534 842 z "},"Ǿ":{"ha":1093,"x_min":82,"x_max":1011,"o":"m 1011 497 q 890 121 1011 255 q 547 -14 769 -14 q 302 41 403 -14 l 239 -52 l 143 12 l 210 110 q 82 498 82 243 q 203 876 82 744 q 549 1007 324 1007 q 789 951 684 1007 l 850 1039 l 946 977 l 879 882 q 1011 497 1011 747 m 839 497 q 785 742 839 650 l 387 165 q 547 125 453 125 q 765 218 692 125 q 839 497 839 312 m 254 497 q 307 252 254 340 l 705 828 q 549 868 643 868 q 329 774 403 868 q 254 497 254 680 m 444 1071 l 444 1088 q 524 1194 483 1135 q 589 1293 565 1252 l 774 1293 l 774 1279 q 668 1172 739 1238 q 550 1071 598 1107 l 444 1071 z "},"ǿ":{"ha":848,"x_min":69,"x_max":779,"o":"m 779 376 q 685 90 779 193 q 422 -14 591 -14 q 253 25 325 -14 l 201 -49 l 110 12 l 165 92 q 69 376 69 197 q 163 661 69 559 q 427 764 256 764 q 602 721 524 764 l 648 789 l 741 726 l 688 653 q 779 376 779 550 m 233 376 q 258 228 233 285 l 524 607 q 424 633 483 633 q 278 567 323 633 q 233 376 233 500 m 615 376 q 593 514 615 458 l 330 139 q 425 117 367 117 q 615 376 615 117 m 316 842 l 316 859 q 396 964 355 906 q 460 1064 437 1023 l 646 1064 l 646 1050 q 540 943 610 1008 q 422 842 470 878 l 316 842 z "},"Ș":{"ha":764,"x_min":68,"x_max":703,"o":"m 703 269 q 607 62 703 137 q 343 -14 511 -14 q 68 39 175 -14 l 68 192 q 212 142 136 160 q 354 123 288 123 q 496 160 450 123 q 542 258 542 197 q 500 353 542 314 q 326 444 458 391 q 135 570 191 499 q 79 739 79 640 q 168 935 79 863 q 404 1006 256 1006 q 688 943 547 1006 l 636 811 q 400 867 504 867 q 281 832 321 867 q 240 742 240 798 q 256 676 240 703 q 310 624 273 648 q 444 559 347 600 q 604 475 553 514 q 679 386 655 435 q 703 269 703 336 m 243 -290 q 273 -188 258 -247 q 293 -85 288 -130 l 446 -85 l 446 -98 q 395 -211 426 -153 q 335 -307 363 -269 l 243 -307 l 243 -290 z "},"ș":{"ha":676,"x_min":66,"x_max":618,"o":"m 618 214 q 538 45 618 104 q 309 -14 458 -14 q 68 32 159 -14 l 68 170 q 314 109 200 109 q 461 197 461 109 q 445 245 461 226 q 391 284 429 264 q 288 330 354 304 q 112 431 158 380 q 66 561 66 481 q 144 710 66 657 q 355 764 222 764 q 606 710 488 764 l 554 590 q 350 640 433 640 q 224 568 224 640 q 257 509 224 533 q 400 441 290 484 q 535 376 493 406 q 597 307 577 346 q 618 214 618 268 m 201 -290 q 231 -188 216 -247 q 251 -85 245 -130 l 404 -85 l 404 -98 q 353 -211 384 -153 q 293 -307 321 -269 l 201 -307 l 201 -290 z "},"ˆ":{"ha":832,"x_min":154,"x_max":676,"o":"m 568 842 q 414 964 485 891 q 261 842 344 894 l 154 842 l 154 859 q 326 1064 283 993 l 503 1064 q 676 859 545 989 l 676 842 l 568 842 z "},"ˇ":{"ha":832,"x_min":154,"x_max":676,"o":"m 676 1064 l 676 1046 q 556 915 591 957 q 503 842 521 873 l 326 842 q 154 1046 282 913 l 154 1064 l 261 1064 q 414 940 355 1003 q 568 1064 479 1008 l 676 1064 z "},"ˉ":{"ha":829,"x_min":197,"x_max":631,"o":"m 197 960 l 631 960 l 631 842 l 197 842 l 197 960 z "},"˘":{"ha":832,"x_min":176,"x_max":653,"o":"m 411 842 q 243 896 304 842 q 176 1047 182 949 l 269 1047 q 288 995 273 1015 q 330 968 302 976 q 414 960 357 960 q 519 982 485 960 q 558 1047 553 1004 l 653 1047 q 580 897 645 951 q 411 842 515 842 z "},"˙":{"ha":387,"x_min":104,"x_max":283,"o":"m 104 949 q 128 1015 104 991 q 195 1038 151 1038 q 260 1015 237 1038 q 283 949 283 991 q 260 885 283 908 q 195 861 237 861 q 128 885 151 861 q 104 949 104 908 z "},"˚":{"ha":802,"x_min":239,"x_max":561,"o":"m 561 996 q 516 883 561 926 q 399 840 472 840 q 282 883 326 840 q 239 994 239 925 q 282 1105 239 1063 q 399 1147 325 1147 q 515 1105 469 1147 q 561 996 561 1063 m 471 994 q 450 1047 471 1028 q 399 1067 430 1067 q 347 1047 367 1067 q 326 994 326 1028 q 399 922 326 922 q 450 941 430 922 q 471 994 471 960 z "},"˛":{"ha":279,"x_min":16,"x_max":265,"o":"m 135 -158 q 195 -218 135 -218 q 265 -207 224 -218 l 265 -304 q 171 -318 218 -318 q 55 -280 94 -318 q 16 -176 16 -241 q 41 -90 16 -132 q 131 0 67 -48 l 232 0 q 160 -82 185 -45 q 135 -158 135 -119 z "},"˜":{"ha":832,"x_min":160,"x_max":693,"o":"m 526 842 q 470 853 498 842 q 416 880 443 865 q 365 906 390 895 q 317 918 340 918 q 243 840 262 918 l 160 840 q 213 984 168 935 q 326 1034 257 1034 q 383 1022 355 1034 q 437 995 411 1010 q 489 969 464 981 q 536 957 513 957 q 608 1035 590 957 l 693 1035 q 641 893 685 944 q 526 842 597 842 z "},"˝":{"ha":808,"x_min":131,"x_max":677,"o":"m 131 842 l 131 859 q 257 1064 201 956 l 422 1064 l 422 1050 q 337 949 403 1017 q 218 842 271 882 l 131 842 m 386 842 l 386 859 q 453 959 415 897 q 513 1064 492 1020 l 677 1064 l 677 1050 q 592 949 658 1017 q 473 842 526 882 l 386 842 z "},"΄":{"ha":802,"x_min":332,"x_max":549,"o":"m 332 861 q 367 989 350 917 q 390 1112 384 1061 l 549 1112 l 549 1096 q 498 975 532 1048 q 427 842 463 903 l 332 842 l 332 861 z "},"΅":{"ha":802,"x_min":158,"x_max":642,"o":"m 339 958 q 371 1069 355 1008 q 392 1164 387 1131 l 545 1164 l 545 1150 q 490 1053 526 1109 q 412 942 454 996 l 339 942 l 339 958 m 158 949 q 179 1009 158 991 q 233 1028 200 1028 q 288 1008 268 1028 q 309 949 309 987 q 287 889 309 909 q 233 869 265 869 q 179 889 200 869 q 158 949 158 909 m 492 949 q 567 1028 492 1028 q 620 1009 598 1028 q 642 949 642 990 q 620 889 642 909 q 567 869 598 869 q 512 889 533 869 q 492 949 492 909 z "},"Ά":{"ha":918,"x_min":-9,"x_max":918,"o":"m 746 0 l 647 275 l 268 275 l 171 0 l 0 0 l 371 996 l 547 996 l 918 0 l 746 0 m 604 415 l 511 685 q 483 770 501 712 q 458 856 465 829 q 405 673 440 772 l 315 415 l 604 415 m -9 790 q 26 918 9 846 q 49 1041 43 990 l 208 1041 l 208 1025 q 157 904 191 977 q 85 770 122 831 l -9 770 l -9 790 z "},"·":{"ha":382,"x_min":90,"x_max":292,"o":"m 90 489 q 116 566 90 540 q 191 593 141 593 q 266 566 240 593 q 292 489 292 538 q 265 413 292 440 q 191 386 239 386 q 116 412 142 386 q 90 489 90 439 z "},"Έ":{"ha":867,"x_min":-48,"x_max":782,"o":"m 782 0 l 221 0 l 221 991 l 782 991 l 782 854 l 383 854 l 383 585 l 757 585 l 757 449 l 383 449 l 383 138 l 782 138 l 782 0 m -48 790 q -13 918 -30 846 q 10 1041 4 990 l 169 1041 l 169 1025 q 118 904 153 977 q 47 770 83 831 l -48 770 l -48 790 z "},"Ή":{"ha":1143,"x_min":-48,"x_max":1011,"o":"m 1011 0 l 848 0 l 848 447 l 391 447 l 391 0 l 229 0 l 229 991 l 391 991 l 391 586 l 848 586 l 848 991 l 1011 991 l 1011 0 m -48 790 q -13 918 -30 846 q 10 1041 4 990 l 169 1041 l 169 1025 q 118 904 153 977 q 47 770 83 831 l -48 770 l -48 790 z "},"Ό":{"ha":1145,"x_min":-28,"x_max":1061,"o":"m 1061 497 q 940 121 1061 255 q 597 -14 819 -14 q 253 120 373 -14 q 132 498 132 253 q 253 876 132 744 q 599 1007 374 1007 q 941 873 820 1007 q 1061 497 1061 740 m 304 497 q 378 219 304 314 q 597 125 452 125 q 815 218 742 125 q 889 497 889 312 q 816 774 889 680 q 599 868 743 868 q 379 774 453 868 q 304 497 304 680 m -28 790 q 7 918 -10 846 q 30 1041 24 990 l 189 1041 l 189 1025 q 138 904 172 977 q 66 770 103 831 l -28 770 l -28 790 z "},"Ύ":{"ha":1010,"x_min":-55,"x_max":1009,"o":"m 598 539 l 833 991 l 1009 991 l 679 385 l 679 0 l 516 0 l 516 379 l 187 991 l 363 991 l 598 539 m -55 790 q -20 918 -37 846 q 3 1041 -3 990 l 162 1041 l 162 1025 q 111 904 146 977 q 40 770 77 831 l -55 770 l -55 790 z "},"Ώ":{"ha":1109,"x_min":-28,"x_max":1095,"o":"m 596 868 q 378 787 452 868 q 303 553 303 706 q 353 311 303 411 q 513 139 403 211 l 513 0 l 98 0 l 98 139 l 346 139 q 188 326 243 212 q 134 575 134 439 q 257 890 134 773 q 596 1007 380 1007 q 935 891 812 1007 q 1059 575 1059 775 q 1003 324 1059 437 q 844 139 947 211 l 1095 139 l 1095 0 l 678 0 l 678 139 q 837 308 785 207 q 889 553 889 408 q 814 787 889 707 q 596 868 739 868 m -28 790 q 7 918 -10 846 q 30 1041 24 990 l 189 1041 l 189 1025 q 138 904 172 977 q 66 770 103 831 l -28 770 l -28 790 z "},"ΐ":{"ha":518,"x_min":-27,"x_max":492,"o":"m 271 750 l 271 228 q 370 115 271 115 q 492 134 430 115 l 492 14 q 425 -6 467 2 q 339 -14 384 -14 q 166 46 222 -14 q 111 227 111 106 l 111 750 l 271 750 m 154 958 q 185 1069 170 1008 q 207 1164 201 1131 l 359 1164 l 359 1150 q 305 1053 340 1109 q 227 942 269 996 l 154 942 l 154 958 m -27 949 q -6 1009 -27 991 q 48 1028 15 1028 q 103 1008 83 1028 q 123 949 123 987 q 102 889 123 909 q 48 869 80 869 q -6 889 15 869 q -27 949 -27 909 m 307 949 q 382 1028 307 1028 q 435 1009 413 1028 q 456 949 456 990 q 435 889 456 909 q 382 869 413 869 q 327 889 348 869 q 307 949 307 909 z "},"Α":{"ha":918,"x_min":0,"x_max":918,"o":"m 746 0 l 647 275 l 268 275 l 171 0 l 0 0 l 371 996 l 547 996 l 918 0 l 746 0 m 604 415 l 511 685 q 483 770 501 712 q 458 856 465 829 q 405 673 440 772 l 315 415 l 604 415 z "},"Β":{"ha":917,"x_min":131,"x_max":842,"o":"m 131 991 l 425 991 q 721 932 630 991 q 812 743 812 872 q 768 599 812 656 q 639 526 723 541 l 639 519 q 792 442 743 500 q 842 285 842 384 q 748 76 842 151 q 489 0 655 0 l 131 0 l 131 991 m 293 582 l 449 582 q 597 614 551 582 q 644 724 644 646 q 594 825 644 793 q 433 856 543 856 l 293 856 l 293 582 m 293 450 l 293 136 l 465 136 q 619 175 567 136 q 671 298 671 214 q 618 413 671 376 q 457 450 565 450 l 293 450 z "},"Γ":{"ha":750,"x_min":131,"x_max":720,"o":"m 720 991 l 720 852 l 293 852 l 293 0 l 131 0 l 131 991 l 720 991 z "},"Δ":{"ha":854,"x_min":32,"x_max":821,"o":"m 32 96 l 339 993 l 514 993 l 821 94 l 821 0 l 32 0 l 32 96 m 427 842 q 375 660 397 724 l 201 139 l 650 139 l 478 657 q 447 758 463 701 q 427 842 431 814 z "},"Ε":{"ha":775,"x_min":131,"x_max":692,"o":"m 692 0 l 131 0 l 131 991 l 692 991 l 692 854 l 293 854 l 293 585 l 667 585 l 667 449 l 293 449 l 293 138 l 692 138 l 692 0 z "},"Ζ":{"ha":799,"x_min":45,"x_max":754,"o":"m 754 0 l 45 0 l 45 113 l 545 852 l 58 852 l 58 991 l 741 991 l 741 878 l 239 139 l 754 139 l 754 0 z "},"Η":{"ha":1043,"x_min":131,"x_max":913,"o":"m 913 0 l 750 0 l 750 447 l 293 447 l 293 0 l 131 0 l 131 991 l 293 991 l 293 586 l 750 586 l 750 991 l 913 991 l 913 0 z "},"Θ":{"ha":1093,"x_min":82,"x_max":1011,"o":"m 742 572 l 742 436 l 351 436 l 351 572 l 742 572 m 1011 497 q 890 121 1011 255 q 547 -14 769 -14 q 202 120 323 -14 q 82 498 82 253 q 203 876 82 744 q 549 1007 324 1007 q 890 873 770 1007 q 1011 497 1011 740 m 252 497 q 326 220 252 315 q 547 125 401 125 q 767 218 693 125 q 842 497 842 311 q 767 774 842 681 q 549 868 693 868 q 327 773 401 868 q 252 497 252 679 z "},"Κ":{"ha":888,"x_min":131,"x_max":888,"o":"m 888 0 l 700 0 l 389 449 l 293 371 l 293 0 l 131 0 l 131 991 l 293 991 l 293 518 q 425 675 359 600 l 693 991 l 878 991 q 505 557 618 686 l 888 0 z "},"Λ":{"ha":869,"x_min":0,"x_max":869,"o":"m 433 838 q 416 762 427 808 q 394 680 404 716 q 168 0 383 644 l 0 0 l 347 991 l 521 991 l 869 0 l 701 0 l 497 612 q 433 838 453 744 z "},"Μ":{"ha":1282,"x_min":131,"x_max":1152,"o":"m 559 0 l 272 828 l 267 828 q 278 482 278 644 l 278 0 l 131 0 l 131 991 l 359 991 l 635 203 l 639 203 l 922 991 l 1152 991 l 1152 0 l 996 0 l 996 490 q 999 683 996 564 q 1006 827 1003 802 l 1000 827 l 703 0 l 559 0 z "},"Ν":{"ha":1088,"x_min":131,"x_max":957,"o":"m 957 0 l 758 0 l 271 790 l 265 790 l 269 746 q 278 515 278 620 l 278 0 l 131 0 l 131 991 l 328 991 l 814 205 l 818 205 q 812 319 817 221 q 808 472 808 417 l 808 991 l 957 991 l 957 0 z "},"Ξ":{"ha":781,"x_min":52,"x_max":728,"o":"m 135 585 l 644 585 l 644 449 l 135 449 l 135 585 m 79 991 l 700 991 l 700 854 l 79 854 l 79 991 m 728 138 l 728 0 l 52 0 l 52 138 l 728 138 z "},"Ο":{"ha":1093,"x_min":82,"x_max":1011,"o":"m 1011 497 q 890 121 1011 255 q 547 -14 769 -14 q 202 120 323 -14 q 82 498 82 253 q 203 876 82 744 q 549 1007 324 1007 q 890 873 770 1007 q 1011 497 1011 740 m 254 497 q 328 219 254 314 q 547 125 402 125 q 765 218 692 125 q 839 497 839 312 q 766 774 839 680 q 549 868 693 868 q 329 774 403 868 q 254 497 254 680 z "},"Π":{"ha":1023,"x_min":131,"x_max":893,"o":"m 893 0 l 730 0 l 730 852 l 293 852 l 293 0 l 131 0 l 131 991 l 893 991 l 893 0 z "},"Ρ":{"ha":854,"x_min":131,"x_max":787,"o":"m 787 692 q 686 454 787 536 q 396 371 584 371 l 293 371 l 293 0 l 131 0 l 131 991 l 416 991 q 695 916 602 991 q 787 692 787 840 m 293 507 l 379 507 q 562 551 504 507 q 621 686 621 594 q 568 814 621 772 q 406 856 516 856 l 293 856 l 293 507 z "},"Σ":{"ha":806,"x_min":52,"x_max":766,"o":"m 52 0 l 52 131 l 374 518 l 60 863 l 60 991 l 726 991 l 726 852 l 385 852 l 239 857 l 549 519 l 224 134 l 436 138 l 766 138 l 766 0 l 52 0 z "},"Τ":{"ha":786,"x_min":20,"x_max":765,"o":"m 473 0 l 311 0 l 311 852 l 20 852 l 20 991 l 765 991 l 765 852 l 473 852 l 473 0 z "},"Υ":{"ha":822,"x_min":0,"x_max":822,"o":"m 411 539 l 646 991 l 822 991 l 492 385 l 492 0 l 329 0 l 329 379 l 0 991 l 176 991 l 411 539 z "},"Φ":{"ha":1152,"x_min":66,"x_max":1083,"o":"m 652 268 l 665 268 q 856 333 787 268 q 925 515 925 399 q 861 688 925 624 q 685 751 797 751 l 652 751 l 652 268 m 498 -14 l 498 139 l 476 139 q 263 183 355 139 q 119 317 171 228 q 66 514 66 406 q 114 704 66 619 q 250 836 161 788 q 458 884 339 884 l 498 884 l 498 1006 l 652 1006 l 652 884 l 693 884 q 902 836 813 884 q 1037 705 990 789 q 1083 514 1083 621 q 1031 315 1083 404 q 887 183 979 227 q 673 139 796 139 l 652 139 l 652 -14 l 498 -14 m 498 751 l 465 751 q 289 687 353 751 q 225 515 225 623 q 294 334 225 400 q 486 268 362 268 l 498 268 l 498 751 z "},"Χ":{"ha":864,"x_min":3,"x_max":861,"o":"m 861 0 l 675 0 l 427 406 l 176 0 l 3 0 l 332 514 l 24 991 l 204 991 l 433 616 l 663 991 l 838 991 l 528 511 l 861 0 z "},"Ψ":{"ha":1161,"x_min":74,"x_max":1088,"o":"m 1088 665 q 986 393 1088 487 q 689 298 884 298 l 656 298 l 656 0 l 504 0 l 504 298 l 471 298 q 176 391 279 298 q 74 664 74 484 l 74 991 l 231 991 l 231 667 q 293 490 231 547 q 485 433 355 433 l 504 433 l 504 991 l 656 991 l 656 433 l 676 433 q 864 491 800 433 q 929 664 929 549 l 929 991 l 1088 991 l 1088 665 z "},"Ω":{"ha":1089,"x_min":46,"x_max":1043,"o":"m 545 868 q 326 787 401 868 q 252 553 252 706 q 301 311 252 411 q 461 139 351 211 l 461 0 l 46 0 l 46 139 l 294 139 q 137 326 191 212 q 82 575 82 439 q 205 890 82 773 q 545 1007 329 1007 q 884 891 760 1007 q 1007 575 1007 775 q 951 324 1007 437 q 793 139 896 211 l 1043 139 l 1043 0 l 627 0 l 627 139 q 786 308 734 207 q 838 553 838 408 q 763 787 838 707 q 545 868 688 868 z "},"Ϋ":{"ha":822,"x_min":0,"x_max":822,"o":"m 411 539 l 646 991 l 822 991 l 492 385 l 492 0 l 329 0 l 329 379 l 0 991 l 176 991 l 411 539 m 199 1178 q 221 1239 199 1220 q 277 1257 244 1257 q 334 1236 313 1257 q 355 1178 355 1215 q 334 1120 355 1142 q 277 1099 312 1099 q 221 1118 244 1099 q 199 1178 199 1138 m 465 1178 q 488 1239 465 1220 q 543 1257 511 1257 q 601 1236 579 1257 q 623 1178 623 1215 q 600 1120 623 1141 q 543 1099 578 1099 q 488 1118 511 1099 q 465 1178 465 1138 z "},"ά":{"ha":873,"x_min":69,"x_max":848,"o":"m 411 115 q 553 173 510 115 q 597 366 596 230 l 597 374 q 552 573 597 513 q 410 633 507 633 q 233 371 233 633 q 276 179 233 243 q 411 115 319 115 m 372 -14 q 150 88 230 -14 q 69 372 69 190 q 152 662 69 560 q 385 764 235 764 q 519 735 466 764 q 608 650 572 706 l 616 650 q 663 750 635 715 l 791 750 q 762 607 773 694 q 750 452 750 520 l 750 197 q 765 138 750 159 q 807 118 780 118 q 848 125 828 118 l 848 4 q 811 -8 838 -3 q 764 -14 784 -14 q 664 13 699 -14 q 611 100 629 39 l 600 100 q 372 -14 522 -14 m 358 861 q 393 989 376 917 q 416 1112 410 1061 l 575 1112 l 575 1096 q 524 975 559 1048 q 453 842 490 903 l 358 842 l 358 861 z "},"έ":{"ha":715,"x_min":57,"x_max":665,"o":"m 526 450 l 526 330 l 419 330 q 264 302 313 330 q 215 218 215 274 q 406 113 215 113 q 664 171 536 113 l 664 37 q 395 -14 561 -14 q 144 44 231 -14 q 57 205 57 101 q 99 321 57 277 q 231 387 140 366 l 231 395 q 89 567 89 431 q 171 711 89 659 q 395 764 254 764 q 665 710 544 764 l 612 589 q 491 631 537 621 q 396 640 444 640 q 236 550 236 640 q 285 474 236 498 q 437 450 334 450 l 526 450 m 326 861 q 361 989 344 917 q 384 1112 378 1061 l 543 1112 l 543 1096 q 492 975 526 1048 q 420 842 457 903 l 326 842 l 326 861 z "},"ή":{"ha":882,"x_min":114,"x_max":774,"o":"m 774 -334 l 614 -334 l 614 461 q 577 592 614 551 q 464 633 541 633 q 319 572 364 633 q 273 374 273 511 l 273 0 l 114 0 l 114 750 l 239 750 l 261 652 l 269 652 q 366 734 303 705 q 504 764 428 764 q 774 489 774 764 l 774 -334 m 391 861 q 427 989 410 917 q 450 1112 444 1061 l 608 1112 l 608 1096 q 557 975 592 1048 q 486 842 523 903 l 391 842 l 391 861 z "},"ί":{"ha":518,"x_min":111,"x_max":492,"o":"m 271 750 l 271 228 q 370 115 271 115 q 492 134 430 115 l 492 14 q 425 -6 467 2 q 339 -14 384 -14 q 166 46 222 -14 q 111 227 111 106 l 111 750 l 271 750 m 142 861 q 177 989 160 917 q 200 1112 194 1061 l 359 1112 l 359 1096 q 308 975 342 1048 q 237 842 273 903 l 142 842 l 142 861 z "},"ΰ":{"ha":871,"x_min":104,"x_max":796,"o":"m 435 -14 q 187 73 270 -14 q 104 340 104 159 l 104 750 l 264 750 l 264 340 q 307 173 264 230 q 443 115 349 115 q 590 188 543 115 q 636 414 636 260 q 627 562 636 488 q 590 750 617 636 l 751 750 q 787 569 778 647 q 796 408 796 490 q 707 91 796 196 q 435 -14 618 -14 m 382 958 q 413 1069 397 1008 q 435 1164 429 1131 l 587 1164 l 587 1150 q 533 1053 568 1109 q 455 942 497 996 l 382 942 l 382 958 m 201 949 q 222 1009 201 991 q 276 1028 243 1028 q 331 1008 311 1028 q 351 949 351 987 q 330 889 351 909 q 276 869 308 869 q 222 889 243 869 q 201 949 201 909 m 534 949 q 610 1028 534 1028 q 663 1009 641 1028 q 684 949 684 990 q 663 889 684 909 q 610 869 641 869 q 555 889 576 869 q 534 949 534 909 z "},"α":{"ha":873,"x_min":69,"x_max":848,"o":"m 411 115 q 553 173 510 115 q 597 366 596 230 l 597 374 q 552 573 597 513 q 410 633 507 633 q 233 371 233 633 q 276 179 233 243 q 411 115 319 115 m 372 -14 q 150 88 230 -14 q 69 372 69 190 q 152 662 69 560 q 385 764 235 764 q 519 735 466 764 q 608 650 572 706 l 616 650 q 663 750 635 715 l 791 750 q 762 607 773 694 q 750 452 750 520 l 750 197 q 765 138 750 159 q 807 118 780 118 q 848 125 828 118 l 848 4 q 811 -8 838 -3 q 764 -14 784 -14 q 664 13 699 -14 q 611 100 629 39 l 600 100 q 372 -14 522 -14 z "},"β":{"ha":895,"x_min":114,"x_max":838,"o":"m 458 1063 q 700 992 612 1063 q 789 796 789 922 q 583 562 789 597 l 583 558 q 838 286 838 528 q 748 64 838 142 q 501 -14 659 -14 q 273 31 363 -14 l 273 -334 l 114 -334 l 114 743 q 204 979 114 896 q 458 1063 295 1063 m 456 935 q 273 730 273 935 l 273 168 q 472 115 367 115 q 675 298 675 115 q 620 436 675 388 q 463 485 566 485 l 400 485 l 400 614 l 449 614 q 582 657 536 614 q 628 782 628 701 q 582 895 628 856 q 456 935 536 935 z "},"γ":{"ha":750,"x_min":4,"x_max":746,"o":"m 401 -334 l 231 -334 q 250 -178 231 -275 q 300 8 269 -81 l 4 750 l 170 750 l 307 385 q 349 258 326 334 q 379 143 372 182 l 383 143 q 399 213 387 166 q 425 305 411 260 q 581 750 439 350 l 746 750 l 468 16 q 420 -158 439 -58 q 401 -334 401 -257 z "},"δ":{"ha":832,"x_min":69,"x_max":778,"o":"m 349 628 q 182 859 182 726 q 256 1005 182 951 q 457 1059 330 1059 q 594 1043 528 1059 q 755 983 660 1028 l 690 865 q 575 915 633 895 q 452 935 517 935 q 369 912 398 935 q 339 851 339 889 q 378 775 339 812 q 526 682 418 739 q 720 527 661 609 q 778 336 778 446 q 685 78 778 169 q 421 -14 591 -14 q 165 70 261 -14 q 69 297 69 154 q 139 502 69 418 q 349 628 209 587 m 614 329 q 576 463 614 406 q 457 561 538 519 q 291 465 347 532 q 235 300 235 397 q 284 167 235 218 q 421 117 334 117 q 564 171 514 117 q 614 329 614 226 z "},"ε":{"ha":715,"x_min":57,"x_max":665,"o":"m 526 450 l 526 330 l 419 330 q 264 302 313 330 q 215 218 215 274 q 406 113 215 113 q 664 171 536 113 l 664 37 q 395 -14 561 -14 q 144 44 231 -14 q 57 205 57 101 q 99 321 57 277 q 231 387 140 366 l 231 395 q 89 567 89 431 q 171 711 89 659 q 395 764 254 764 q 665 710 544 764 l 612 589 q 491 631 537 621 q 396 640 444 640 q 236 550 236 640 q 285 474 236 498 q 437 450 334 450 l 526 450 z "},"ζ":{"ha":681,"x_min":69,"x_max":657,"o":"m 657 -41 q 567 -264 657 -140 l 407 -264 q 473 -159 447 -212 q 498 -74 498 -107 q 485 -39 498 -52 q 439 -15 471 -26 q 351 5 406 -4 q 138 107 207 31 q 69 314 69 183 q 109 511 69 418 q 223 697 148 605 q 471 940 298 789 q 290 932 441 932 l 110 932 l 110 1055 l 654 1055 l 654 950 q 418 724 511 829 q 280 523 325 618 q 235 322 235 427 q 253 224 235 261 q 312 165 272 187 q 450 123 351 143 q 607 62 557 102 q 657 -41 657 23 z "},"η":{"ha":882,"x_min":114,"x_max":774,"o":"m 774 -334 l 614 -334 l 614 461 q 577 592 614 551 q 464 633 541 633 q 319 572 364 633 q 273 374 273 511 l 273 0 l 114 0 l 114 750 l 239 750 l 261 652 l 269 652 q 366 734 303 705 q 504 764 428 764 q 774 489 774 764 l 774 -334 z "},"θ":{"ha":840,"x_min":69,"x_max":770,"o":"m 770 529 q 683 120 770 254 q 418 -14 596 -14 q 158 124 247 -14 q 69 529 69 262 q 156 938 69 804 q 418 1071 243 1071 q 680 933 591 1071 q 770 529 770 795 m 418 109 q 558 199 514 109 q 607 475 603 290 l 232 475 q 280 197 235 286 q 418 109 325 109 m 419 949 q 282 861 326 949 q 233 600 239 773 l 606 600 q 556 861 600 773 q 419 949 512 949 z "},"ι":{"ha":518,"x_min":111,"x_max":492,"o":"m 271 750 l 271 228 q 370 115 271 115 q 492 134 430 115 l 492 14 q 425 -6 467 2 q 339 -14 384 -14 q 166 46 222 -14 q 111 227 111 106 l 111 750 l 271 750 z "},"κ":{"ha":790,"x_min":114,"x_max":786,"o":"m 271 378 l 587 750 l 768 750 l 478 412 l 786 0 l 600 0 l 372 315 l 278 245 l 278 0 l 114 0 l 114 750 l 278 750 l 278 554 q 271 378 278 467 z "},"λ":{"ha":798,"x_min":-3,"x_max":794,"o":"m -3 0 l 318 724 l 288 810 q 231 904 262 877 q 144 930 199 930 q 71 922 106 930 l 71 1053 q 172 1064 117 1064 q 290 1042 242 1064 q 372 973 338 1020 q 443 827 406 926 l 661 221 q 701 143 681 168 q 750 118 722 118 q 794 125 762 118 l 794 4 q 749 -9 777 -4 q 697 -14 721 -14 q 599 16 636 -14 q 536 117 562 45 q 417 454 439 387 q 389 551 395 522 l 385 551 q 319 363 361 460 l 163 0 l -3 0 z "},"μ":{"ha":888,"x_min":114,"x_max":774,"o":"m 273 286 q 421 115 273 115 q 567 175 520 115 q 614 376 614 235 l 614 750 l 774 750 l 774 0 l 650 0 l 627 100 l 618 100 q 537 15 585 43 q 418 -14 488 -14 q 269 47 323 -14 l 267 47 q 271 -32 269 28 q 273 -117 273 -92 l 273 -334 l 114 -334 l 114 750 l 273 750 l 273 286 z "},"ν":{"ha":789,"x_min":1,"x_max":733,"o":"m 1 750 l 167 750 l 314 340 q 380 139 336 284 l 386 139 q 530 394 487 252 q 574 750 574 536 l 733 750 q 664 330 733 502 q 439 0 595 158 l 282 0 l 1 750 z "},"ξ":{"ha":675,"x_min":69,"x_max":657,"o":"m 69 290 q 120 448 69 380 q 262 549 171 516 l 262 555 q 114 737 114 596 q 162 862 114 813 q 315 940 210 911 q 140 932 185 932 l 110 932 l 110 1055 l 619 1055 l 619 939 l 576 939 q 357 885 443 939 q 271 745 271 831 q 321 642 271 674 q 481 610 372 610 l 595 610 l 595 494 l 478 494 q 298 445 362 494 q 235 302 235 395 q 253 217 235 250 q 308 165 271 185 q 453 123 344 146 q 610 60 562 100 q 657 -41 657 20 q 570 -264 657 -138 l 412 -264 q 477 -159 452 -211 q 503 -72 503 -106 q 467 -25 503 -42 q 354 5 432 -7 q 69 290 69 54 z "},"ο":{"ha":848,"x_min":69,"x_max":779,"o":"m 779 376 q 685 90 779 193 q 422 -14 591 -14 q 237 34 317 -14 q 113 170 156 81 q 69 376 69 259 q 163 661 69 559 q 427 764 256 764 q 684 659 589 764 q 779 376 779 554 m 233 376 q 425 117 233 117 q 615 376 615 117 q 424 633 615 633 q 278 567 323 633 q 233 376 233 500 z "},"π":{"ha":964,"x_min":17,"x_max":918,"o":"m 831 114 q 903 132 867 114 l 903 12 q 854 -6 886 2 q 785 -14 823 -14 q 607 183 607 -14 l 607 624 l 330 624 l 330 0 l 171 0 l 171 624 l 17 624 l 17 693 l 125 750 l 918 750 l 918 624 l 766 624 l 766 192 q 831 114 766 114 z "},"ρ":{"ha":848,"x_min":97,"x_max":778,"o":"m 778 375 q 693 88 778 190 q 456 -14 608 -14 q 258 45 342 -14 l 250 45 q 258 -139 258 -37 l 258 -334 l 97 -334 l 97 380 q 187 664 97 564 q 441 764 277 764 q 687 659 596 764 q 778 375 778 554 m 437 633 q 302 572 347 633 q 258 385 258 511 l 258 180 q 436 117 329 117 q 572 180 530 117 q 614 375 614 243 q 572 571 614 508 q 437 633 531 633 z "},"ς":{"ha":681,"x_min":69,"x_max":657,"o":"m 233 347 q 252 240 233 279 q 313 176 270 200 q 453 132 355 152 q 610 67 563 107 q 657 -37 657 26 q 570 -265 657 -136 l 412 -265 q 479 -152 455 -204 q 503 -68 503 -100 q 470 -20 503 -37 q 354 14 437 -3 q 139 124 209 42 q 69 343 69 207 q 162 658 69 552 q 437 764 256 764 q 657 718 557 764 l 608 591 q 432 631 509 631 q 280 558 327 631 q 233 347 233 486 z "},"σ":{"ha":879,"x_min":69,"x_max":848,"o":"m 783 334 q 740 151 783 231 q 616 29 696 72 q 425 -14 535 -14 q 164 85 258 -14 q 69 361 69 184 q 485 750 69 750 l 848 750 l 848 627 l 663 627 q 783 334 783 503 m 235 361 q 284 180 235 243 q 428 117 334 117 q 569 175 519 117 q 619 346 619 234 q 517 627 619 511 l 478 627 q 291 564 347 627 q 235 361 235 500 z "},"τ":{"ha":701,"x_min":20,"x_max":657,"o":"m 376 625 l 376 232 q 490 114 376 114 q 614 132 551 114 l 614 12 q 460 -16 545 -16 q 274 45 334 -16 q 215 225 215 105 l 215 625 l 20 625 l 20 693 l 129 750 l 657 750 l 657 625 l 376 625 z "},"υ":{"ha":871,"x_min":104,"x_max":796,"o":"m 435 -14 q 187 73 270 -14 q 104 340 104 159 l 104 750 l 264 750 l 264 340 q 307 173 264 230 q 443 115 349 115 q 590 188 543 115 q 636 414 636 260 q 627 562 636 488 q 590 750 617 636 l 751 750 q 787 569 778 647 q 796 408 796 490 q 707 91 796 196 q 435 -14 618 -14 z "},"φ":{"ha":1048,"x_min":69,"x_max":978,"o":"m 437 -334 l 437 -11 q 162 103 255 3 q 69 376 69 202 q 218 761 69 581 l 338 682 q 250 526 275 600 q 224 372 224 453 q 437 114 224 144 l 437 500 q 503 694 437 626 q 681 762 568 762 q 897 664 816 762 q 978 395 978 565 q 930 189 978 277 q 794 49 882 100 q 589 -11 706 -3 l 589 -334 l 437 -334 m 821 393 q 784 574 821 509 q 682 640 747 640 q 589 501 589 640 l 589 114 q 758 198 696 124 q 821 393 821 273 z "},"χ":{"ha":790,"x_min":-24,"x_max":789,"o":"m 142 757 q 222 741 190 757 q 278 693 254 726 q 332 576 302 660 l 407 376 l 608 750 l 774 750 l 475 231 l 606 -94 q 655 -178 629 -154 q 725 -201 682 -201 q 789 -195 755 -201 l 789 -318 q 684 -334 745 -334 q 550 -291 601 -334 q 463 -140 500 -248 l 376 102 l 147 -334 l -24 -334 l 304 250 l 200 519 q 156 600 180 574 q 97 625 132 625 q 37 615 66 625 l 37 742 q 142 757 89 757 z "},"ψ":{"ha":1104,"x_min":104,"x_max":1023,"o":"m 632 1055 l 632 115 q 813 192 754 125 q 872 390 872 259 q 862 548 872 467 q 823 750 852 630 l 977 750 q 1023 392 1023 566 q 925 103 1023 207 q 632 -12 826 -1 l 632 -334 l 481 -334 l 481 -12 q 199 91 294 -6 q 104 375 104 189 l 104 750 l 258 750 l 258 371 q 312 183 258 245 q 481 114 365 121 l 481 1055 l 632 1055 z "},"ω":{"ha":1136,"x_min":75,"x_max":1060,"o":"m 358 -14 q 150 87 225 -14 q 75 364 75 189 q 94 561 75 471 q 155 750 113 652 l 313 750 q 248 562 268 652 q 228 367 228 471 q 265 180 228 247 q 371 114 302 114 q 493 289 493 114 l 493 494 l 643 494 l 643 289 q 764 114 643 114 q 870 179 833 114 q 907 366 907 244 q 886 563 907 471 q 822 750 865 655 l 981 750 q 1042 559 1023 651 q 1060 364 1060 467 q 985 88 1060 189 q 777 -14 910 -14 q 571 119 621 -14 l 564 119 q 358 -14 514 -14 z "},"ϊ":{"ha":518,"x_min":6,"x_max":492,"o":"m 271 750 l 271 228 q 370 115 271 115 q 492 134 430 115 l 492 14 q 425 -6 467 2 q 339 -14 384 -14 q 166 46 222 -14 q 111 227 111 106 l 111 750 l 271 750 m 6 949 q 29 1009 6 991 q 84 1028 52 1028 q 141 1007 120 1028 q 163 949 163 986 q 141 891 163 913 q 84 869 119 869 q 29 889 52 869 q 6 949 6 909 m 273 949 q 295 1009 273 991 q 351 1028 318 1028 q 408 1007 387 1028 q 430 949 430 986 q 408 891 430 912 q 351 869 385 869 q 295 889 318 869 q 273 949 273 909 z "},"ϋ":{"ha":871,"x_min":104,"x_max":796,"o":"m 435 -14 q 187 73 270 -14 q 104 340 104 159 l 104 750 l 264 750 l 264 340 q 307 173 264 230 q 443 115 349 115 q 590 188 543 115 q 636 414 636 260 q 627 562 636 488 q 590 750 617 636 l 751 750 q 787 569 778 647 q 796 408 796 490 q 707 91 796 196 q 435 -14 618 -14 m 231 949 q 253 1009 231 991 q 309 1028 276 1028 q 366 1007 345 1028 q 387 949 387 986 q 366 891 387 913 q 309 869 344 869 q 253 889 276 869 q 231 949 231 909 m 497 949 q 520 1009 497 991 q 575 1028 543 1028 q 633 1007 611 1028 q 654 949 654 986 q 632 891 654 912 q 575 869 610 869 q 520 889 543 869 q 497 949 497 909 z "},"ό":{"ha":848,"x_min":69,"x_max":779,"o":"m 779 376 q 685 90 779 193 q 422 -14 591 -14 q 237 34 317 -14 q 113 170 156 81 q 69 376 69 259 q 163 661 69 559 q 427 764 256 764 q 684 659 589 764 q 779 376 779 554 m 233 376 q 425 117 233 117 q 615 376 615 117 q 424 633 615 633 q 278 567 323 633 q 233 376 233 500 m 365 861 q 400 989 383 917 q 423 1112 417 1061 l 582 1112 l 582 1096 q 531 975 566 1048 q 460 842 496 903 l 365 842 l 365 861 z "},"ύ":{"ha":871,"x_min":104,"x_max":796,"o":"m 435 -14 q 187 73 270 -14 q 104 340 104 159 l 104 750 l 264 750 l 264 340 q 307 173 264 230 q 443 115 349 115 q 590 188 543 115 q 636 414 636 260 q 627 562 636 488 q 590 750 617 636 l 751 750 q 787 569 778 647 q 796 408 796 490 q 707 91 796 196 q 435 -14 618 -14 m 370 861 q 406 989 389 917 q 429 1112 422 1061 l 587 1112 l 587 1096 q 536 975 571 1048 q 465 842 502 903 l 370 842 l 370 861 z "},"ώ":{"ha":1136,"x_min":75,"x_max":1060,"o":"m 358 -14 q 150 87 225 -14 q 75 364 75 189 q 94 561 75 471 q 155 750 113 652 l 313 750 q 248 562 268 652 q 228 367 228 471 q 265 180 228 247 q 371 114 302 114 q 493 289 493 114 l 493 494 l 643 494 l 643 289 q 764 114 643 114 q 870 179 833 114 q 907 366 907 244 q 886 563 907 471 q 822 750 865 655 l 981 750 q 1042 559 1023 651 q 1060 364 1060 467 q 985 88 1060 189 q 777 -14 910 -14 q 571 119 621 -14 l 564 119 q 358 -14 514 -14 m 504 861 q 539 989 522 917 q 562 1112 556 1061 l 721 1112 l 721 1096 q 670 975 705 1048 q 599 842 635 903 l 504 842 l 504 861 z "},"Ё":{"ha":775,"x_min":131,"x_max":692,"o":"m 692 0 l 131 0 l 131 991 l 692 991 l 692 854 l 293 854 l 293 585 l 667 585 l 667 449 l 293 449 l 293 138 l 692 138 l 692 0 m 205 1178 q 228 1239 205 1220 q 283 1257 251 1257 q 341 1236 319 1257 q 362 1178 362 1215 q 340 1120 362 1142 q 283 1099 319 1099 q 228 1118 251 1099 q 205 1178 205 1138 m 472 1178 q 495 1239 472 1220 q 550 1257 517 1257 q 608 1236 586 1257 q 629 1178 629 1215 q 607 1120 629 1141 q 550 1099 585 1099 q 495 1118 517 1099 q 472 1178 472 1138 z "},"Ђ":{"ha":1068,"x_min":20,"x_max":978,"o":"m 714 -14 q 595 7 644 -14 l 595 144 q 703 123 652 123 q 788 157 762 123 q 815 256 815 190 l 815 343 q 780 448 815 416 q 664 479 745 479 l 421 479 l 421 0 l 258 0 l 258 852 l 20 852 l 20 991 l 720 991 l 720 852 l 421 852 l 421 618 l 672 618 q 899 550 820 618 q 978 359 978 482 l 978 267 q 910 59 978 132 q 714 -14 842 -14 z "},"Ѓ":{"ha":750,"x_min":131,"x_max":720,"o":"m 720 991 l 720 852 l 293 852 l 293 0 l 131 0 l 131 991 l 720 991 m 321 1071 l 321 1088 q 400 1194 359 1135 q 465 1293 441 1252 l 650 1293 l 650 1279 q 545 1172 615 1238 q 427 1071 475 1107 l 321 1071 z "},"Є":{"ha":914,"x_min":82,"x_max":869,"o":"m 568 867 q 351 791 433 867 q 256 578 269 716 l 715 578 l 715 440 l 254 440 q 340 207 261 289 q 568 125 418 125 q 832 170 677 125 l 832 31 q 554 -14 710 -14 q 204 117 326 -14 q 82 496 82 247 q 141 766 82 650 q 310 944 199 882 q 574 1006 421 1006 q 869 942 730 1006 l 808 806 q 673 855 724 843 q 568 867 622 867 z "},"Ѕ":{"ha":764,"x_min":68,"x_max":703,"o":"m 703 269 q 607 62 703 137 q 343 -14 511 -14 q 68 39 175 -14 l 68 192 q 212 142 136 160 q 354 123 288 123 q 496 160 450 123 q 542 258 542 197 q 500 353 542 314 q 326 444 458 391 q 135 570 191 499 q 79 739 79 640 q 168 935 79 863 q 404 1006 256 1006 q 688 943 547 1006 l 636 811 q 400 867 504 867 q 281 832 321 867 q 240 742 240 798 q 256 676 240 703 q 310 624 273 648 q 444 559 347 600 q 604 475 553 514 q 679 386 655 435 q 703 269 703 336 z "},"Ј":{"ha":415,"x_min":-106,"x_max":289,"o":"m 5 -277 q -106 -260 -61 -277 l -106 -123 q -7 -138 -49 -138 q 126 31 126 -138 l 126 991 l 289 991 l 289 36 q 217 -196 289 -116 q 5 -277 144 -277 z "},"Љ":{"ha":1339,"x_min":5,"x_max":1282,"o":"m 1282 298 q 1185 76 1282 151 q 903 0 1088 0 l 654 0 l 654 852 l 432 852 l 412 701 q 355 315 378 446 q 301 116 332 184 q 222 17 271 49 q 100 -16 174 -16 q 5 1 50 -16 l 5 136 q 81 119 44 119 q 158 180 130 119 q 220 455 186 241 q 296 991 255 669 l 817 991 l 817 589 l 897 589 q 1183 514 1084 589 q 1282 298 1282 440 m 817 136 l 893 136 q 1060 175 1004 136 q 1116 298 1116 213 q 1061 416 1116 380 q 875 453 1006 453 l 817 453 l 817 136 z "},"Њ":{"ha":1357,"x_min":131,"x_max":1300,"o":"m 1300 298 q 1204 76 1300 151 q 922 0 1108 0 l 672 0 l 672 447 l 293 447 l 293 0 l 131 0 l 131 991 l 293 991 l 293 586 l 672 586 l 672 991 l 836 991 l 836 589 l 916 589 q 1202 514 1104 589 q 1300 298 1300 439 m 836 136 l 913 136 q 1078 175 1022 136 q 1135 298 1135 213 q 1080 416 1135 378 q 895 453 1025 453 l 836 453 l 836 136 z "},"Ћ":{"ha":1068,"x_min":20,"x_max":978,"o":"m 815 0 l 815 345 q 783 447 815 415 q 675 479 751 479 l 421 479 l 421 0 l 258 0 l 258 852 l 20 852 l 20 991 l 742 991 l 742 852 l 421 852 l 421 618 l 686 618 q 902 550 827 618 q 978 359 978 483 l 978 0 l 815 0 z "},"Ќ":{"ha":892,"x_min":131,"x_max":892,"o":"m 892 0 l 701 0 l 293 503 l 293 0 l 131 0 l 131 991 l 293 991 l 293 511 l 694 991 l 872 991 l 472 513 l 892 0 m 385 1071 l 385 1088 q 464 1194 423 1135 q 529 1293 505 1252 l 714 1293 l 714 1279 q 609 1172 679 1238 q 490 1071 538 1107 l 385 1071 z "},"Ў":{"ha":885,"x_min":8,"x_max":885,"o":"m 885 991 l 572 286 q 467 99 515 157 q 355 14 418 41 q 201 -14 292 -14 q 56 7 123 -14 l 56 153 q 195 126 122 126 q 298 156 256 126 q 374 265 340 186 l 8 991 l 183 991 l 425 494 q 465 400 458 424 l 472 400 q 492 456 476 418 l 715 991 l 885 991 m 449 1071 q 238 1123 305 1071 q 164 1296 172 1175 l 309 1296 q 327 1220 313 1247 q 369 1181 342 1193 q 453 1169 397 1169 q 554 1199 519 1169 q 596 1296 589 1228 l 743 1296 q 661 1125 733 1179 q 449 1071 589 1071 z "},"Џ":{"ha":1023,"x_min":131,"x_max":893,"o":"m 893 0 l 590 0 l 590 -273 l 429 -273 l 429 0 l 131 0 l 131 991 l 293 991 l 293 139 l 730 139 l 730 991 l 893 991 l 893 0 z "},"А":{"ha":918,"x_min":0,"x_max":918,"o":"m 746 0 l 647 275 l 268 275 l 171 0 l 0 0 l 371 996 l 547 996 l 918 0 l 746 0 m 604 415 l 511 685 q 483 770 501 712 q 458 856 465 829 q 405 673 440 772 l 315 415 l 604 415 z "},"Б":{"ha":868,"x_min":131,"x_max":802,"o":"m 802 298 q 419 0 802 0 l 131 0 l 131 991 l 736 991 l 736 852 l 293 852 l 293 589 l 411 589 q 802 298 802 589 m 293 136 l 410 136 q 581 175 526 136 q 635 298 635 213 q 580 417 635 380 q 390 453 526 453 l 293 453 l 293 136 z "},"В":{"ha":917,"x_min":131,"x_max":842,"o":"m 131 991 l 425 991 q 721 932 630 991 q 812 743 812 872 q 768 599 812 656 q 639 526 723 541 l 639 519 q 792 442 743 500 q 842 285 842 384 q 748 76 842 151 q 489 0 655 0 l 131 0 l 131 991 m 293 582 l 449 582 q 597 614 551 582 q 644 724 644 646 q 594 825 644 793 q 433 856 543 856 l 293 856 l 293 582 m 293 450 l 293 136 l 465 136 q 619 175 567 136 q 671 298 671 214 q 618 413 671 376 q 457 450 565 450 l 293 450 z "},"Г":{"ha":750,"x_min":131,"x_max":720,"o":"m 720 991 l 720 852 l 293 852 l 293 0 l 131 0 l 131 991 l 720 991 z "},"Д":{"ha":1004,"x_min":8,"x_max":975,"o":"m 8 139 l 85 139 q 250 543 183 319 q 335 991 316 766 l 847 991 l 847 139 l 975 139 l 975 -273 l 819 -273 l 819 0 l 164 0 l 164 -273 l 8 -273 l 8 139 m 471 851 q 395 494 456 697 q 256 139 334 291 l 685 139 l 685 851 l 471 851 z "},"Е":{"ha":775,"x_min":131,"x_max":692,"o":"m 692 0 l 131 0 l 131 991 l 692 991 l 692 854 l 293 854 l 293 585 l 667 585 l 667 449 l 293 449 l 293 138 l 692 138 l 692 0 z "},"Ж":{"ha":1240,"x_min":0,"x_max":1239,"o":"m 379 513 l 17 991 l 191 991 l 543 511 l 543 991 l 697 991 l 697 511 l 1050 991 l 1223 991 l 861 513 l 1239 0 l 1060 0 l 697 503 l 697 0 l 543 0 l 543 503 l 180 0 l 0 0 l 379 513 z "},"З":{"ha":852,"x_min":60,"x_max":785,"o":"m 760 760 q 695 601 760 663 q 518 522 631 539 l 518 518 q 716 441 648 503 q 785 281 785 380 q 676 64 785 142 q 378 -14 568 -14 q 61 40 180 -14 l 61 182 q 209 134 127 151 q 358 117 290 117 q 619 288 619 117 q 541 408 619 366 q 309 449 463 449 l 189 449 l 189 579 l 301 579 q 597 737 597 579 q 547 837 597 800 q 406 873 496 873 q 269 854 334 873 q 134 790 203 836 l 60 900 q 419 1006 212 1006 q 668 939 576 1006 q 760 760 760 871 z "},"И":{"ha":1100,"x_min":131,"x_max":971,"o":"m 131 991 l 279 991 l 279 476 q 275 313 279 395 q 269 201 271 231 l 275 201 l 782 991 l 971 991 l 971 0 l 822 0 l 822 511 q 835 796 822 629 l 829 796 l 321 0 l 131 0 l 131 991 z "},"Й":{"ha":1100,"x_min":131,"x_max":971,"o":"m 131 991 l 279 991 l 279 476 q 275 313 279 395 q 269 201 271 231 l 275 201 l 782 991 l 971 991 l 971 0 l 822 0 l 822 511 q 835 796 822 629 l 829 796 l 321 0 l 131 0 l 131 991 m 556 1071 q 346 1123 412 1071 q 271 1296 279 1175 l 416 1296 q 434 1220 420 1247 q 476 1181 449 1193 q 560 1169 504 1169 q 661 1199 627 1169 q 703 1296 696 1228 l 850 1296 q 768 1125 840 1179 q 556 1071 696 1071 z "},"К":{"ha":892,"x_min":131,"x_max":892,"o":"m 892 0 l 701 0 l 293 503 l 293 0 l 131 0 l 131 991 l 293 991 l 293 511 l 694 991 l 872 991 l 472 513 l 892 0 z "},"Л":{"ha":1006,"x_min":5,"x_max":875,"o":"m 875 0 l 713 0 l 713 852 l 431 852 q 345 262 377 418 q 254 44 313 105 q 100 -16 196 -18 q 5 1 50 -16 l 5 136 q 81 119 44 119 q 157 178 130 119 q 217 437 184 237 q 296 991 250 638 l 875 991 l 875 0 z "},"М":{"ha":1282,"x_min":131,"x_max":1152,"o":"m 559 0 l 272 828 l 267 828 q 278 482 278 644 l 278 0 l 131 0 l 131 991 l 359 991 l 635 203 l 639 203 l 922 991 l 1152 991 l 1152 0 l 996 0 l 996 490 q 999 683 996 564 q 1006 827 1003 802 l 1000 827 l 703 0 l 559 0 z "},"Н":{"ha":1043,"x_min":131,"x_max":913,"o":"m 913 0 l 750 0 l 750 447 l 293 447 l 293 0 l 131 0 l 131 991 l 293 991 l 293 586 l 750 586 l 750 991 l 913 991 l 913 0 z "},"О":{"ha":1093,"x_min":82,"x_max":1011,"o":"m 1011 497 q 890 121 1011 255 q 547 -14 769 -14 q 202 120 323 -14 q 82 498 82 253 q 203 876 82 744 q 549 1007 324 1007 q 890 873 770 1007 q 1011 497 1011 740 m 254 497 q 328 219 254 314 q 547 125 402 125 q 765 218 692 125 q 839 497 839 312 q 766 774 839 680 q 549 868 693 868 q 329 774 403 868 q 254 497 254 680 z "},"П":{"ha":1023,"x_min":131,"x_max":893,"o":"m 893 0 l 730 0 l 730 852 l 293 852 l 293 0 l 131 0 l 131 991 l 893 991 l 893 0 z "},"Р":{"ha":854,"x_min":131,"x_max":787,"o":"m 787 692 q 686 454 787 536 q 396 371 584 371 l 293 371 l 293 0 l 131 0 l 131 991 l 416 991 q 695 916 602 991 q 787 692 787 840 m 293 507 l 379 507 q 562 551 504 507 q 621 686 621 594 q 568 814 621 772 q 406 856 516 856 l 293 856 l 293 507 z "},"С":{"ha":880,"x_min":82,"x_max":835,"o":"m 553 867 q 333 768 413 867 q 253 494 253 669 q 330 218 253 312 q 553 125 407 125 q 675 137 616 125 q 798 170 734 150 l 798 31 q 533 -14 681 -14 q 199 118 315 -14 q 82 496 82 250 q 139 766 82 650 q 302 944 195 882 q 554 1006 410 1006 q 835 942 706 1006 l 777 807 q 670 849 726 831 q 553 867 614 867 z "},"Т":{"ha":786,"x_min":20,"x_max":765,"o":"m 473 0 l 311 0 l 311 852 l 20 852 l 20 991 l 765 991 l 765 852 l 473 852 l 473 0 z "},"У":{"ha":885,"x_min":8,"x_max":885,"o":"m 885 991 l 572 286 q 467 99 515 157 q 355 14 418 41 q 201 -14 292 -14 q 56 7 123 -14 l 56 153 q 195 126 122 126 q 298 156 256 126 q 374 265 340 186 l 8 991 l 183 991 l 425 494 q 465 400 458 424 l 472 400 q 492 456 476 418 l 715 991 l 885 991 z "},"Ф":{"ha":1152,"x_min":66,"x_max":1083,"o":"m 652 268 l 665 268 q 856 333 787 268 q 925 515 925 399 q 861 688 925 624 q 685 751 797 751 l 652 751 l 652 268 m 498 -14 l 498 139 l 476 139 q 263 183 355 139 q 119 317 171 228 q 66 514 66 406 q 114 704 66 619 q 250 836 161 788 q 458 884 339 884 l 498 884 l 498 1006 l 652 1006 l 652 884 l 693 884 q 902 836 813 884 q 1037 705 990 789 q 1083 514 1083 621 q 1031 315 1083 404 q 887 183 979 227 q 673 139 796 139 l 652 139 l 652 -14 l 498 -14 m 498 751 l 465 751 q 289 687 353 751 q 225 515 225 623 q 294 334 225 400 q 486 268 362 268 l 498 268 l 498 751 z "},"Х":{"ha":864,"x_min":3,"x_max":861,"o":"m 861 0 l 675 0 l 427 406 l 176 0 l 3 0 l 332 514 l 24 991 l 204 991 l 433 616 l 663 991 l 838 991 l 528 511 l 861 0 z "},"Ц":{"ha":1054,"x_min":131,"x_max":1025,"o":"m 893 135 l 1025 135 l 1025 -273 l 868 -273 l 868 0 l 131 0 l 131 991 l 293 991 l 293 139 l 730 139 l 730 991 l 893 991 l 893 135 z "},"Ч":{"ha":987,"x_min":94,"x_max":857,"o":"m 857 0 l 694 0 l 694 396 q 531 349 603 363 q 387 335 460 335 q 171 401 247 335 q 94 589 94 467 l 94 991 l 257 991 l 257 627 q 295 511 257 549 q 421 473 334 473 q 547 485 486 473 q 694 526 608 497 l 694 991 l 857 991 l 857 0 z "},"Ш":{"ha":1466,"x_min":131,"x_max":1335,"o":"m 814 139 l 1171 139 l 1171 991 l 1335 991 l 1335 0 l 131 0 l 131 991 l 293 991 l 293 139 l 650 139 l 650 991 l 814 991 l 814 139 z "},"Щ":{"ha":1491,"x_min":131,"x_max":1455,"o":"m 808 139 l 1161 139 l 1161 991 l 1324 991 l 1324 135 l 1455 135 l 1455 -273 l 1299 -273 l 1299 0 l 131 0 l 131 991 l 293 991 l 293 139 l 644 139 l 644 991 l 808 991 l 808 139 z "},"Ъ":{"ha":982,"x_min":5,"x_max":916,"o":"m 916 298 q 820 76 916 151 q 538 0 724 0 l 244 0 l 244 852 l 5 852 l 5 991 l 407 991 l 407 589 l 530 589 q 817 514 718 589 q 916 298 916 440 m 407 136 l 528 136 q 693 175 637 136 q 749 298 749 213 q 694 416 749 378 q 510 453 640 453 l 407 453 l 407 136 z "},"Ы":{"ha":1221,"x_min":131,"x_max":1090,"o":"m 789 298 q 693 76 789 151 q 414 0 598 0 l 131 0 l 131 991 l 293 991 l 293 589 l 408 589 q 691 514 594 589 q 789 298 789 439 m 293 135 l 404 135 q 568 174 513 135 q 624 298 624 213 q 571 415 624 379 q 390 452 517 452 l 293 452 l 293 135 m 1090 0 l 928 0 l 928 991 l 1090 991 l 1090 0 z "},"Ь":{"ha":889,"x_min":131,"x_max":822,"o":"m 822 298 q 724 76 822 153 q 440 0 626 0 l 131 0 l 131 991 l 293 991 l 293 589 l 433 589 q 722 514 622 589 q 822 298 822 439 m 293 136 l 429 136 q 597 175 538 136 q 656 298 656 213 q 600 416 656 378 q 411 453 543 453 l 293 453 l 293 136 z "},"Э":{"ha":897,"x_min":45,"x_max":814,"o":"m 346 867 q 103 808 233 867 l 45 942 q 349 1006 181 1006 q 692 872 570 1006 q 814 504 814 739 q 690 120 814 254 q 334 -14 566 -14 q 57 31 179 -14 l 57 170 q 188 137 125 150 q 318 125 251 125 q 555 205 474 125 q 642 441 636 286 l 183 441 l 183 579 l 640 579 q 552 791 631 715 q 346 867 473 867 z "},"Ю":{"ha":1472,"x_min":131,"x_max":1389,"o":"m 1389 497 q 1274 120 1389 254 q 949 -14 1159 -14 q 634 107 747 -14 q 509 447 520 227 l 293 447 l 293 0 l 131 0 l 131 991 l 293 991 l 293 586 l 511 586 q 643 899 530 790 q 949 1007 755 1007 q 1274 873 1158 1007 q 1389 497 1389 739 m 676 497 q 745 219 676 313 q 947 125 813 125 q 1152 220 1084 125 q 1219 497 1219 315 q 1151 774 1219 681 q 950 868 1082 868 q 745 774 814 868 q 676 497 676 680 z "},"Я":{"ha":903,"x_min":14,"x_max":772,"o":"m 444 397 l 199 0 l 14 0 l 293 435 q 103 711 103 500 q 197 920 103 848 q 475 991 292 991 l 772 991 l 772 0 l 610 0 l 610 397 l 444 397 m 610 856 l 481 856 q 324 820 378 856 q 269 701 269 783 q 322 576 269 621 q 486 532 375 532 l 610 532 l 610 856 z "},"а":{"ha":806,"x_min":61,"x_max":697,"o":"m 583 0 l 551 104 l 546 104 q 437 11 492 36 q 296 -14 382 -14 q 123 46 185 -14 q 61 215 61 106 q 147 390 61 331 q 410 454 233 449 l 539 458 l 539 498 q 506 606 539 570 q 401 642 472 642 q 291 625 344 642 q 189 585 238 608 l 138 699 q 271 747 199 730 q 408 764 344 764 q 624 701 551 764 q 697 505 697 639 l 697 0 l 583 0 m 346 109 q 485 157 433 109 q 538 293 538 205 l 538 358 l 441 354 q 278 316 329 350 q 227 214 227 283 q 256 136 227 163 q 346 109 286 109 z "},"б":{"ha":846,"x_min":71,"x_max":777,"o":"m 71 450 q 156 836 71 701 q 427 1010 241 971 q 750 1065 567 1038 l 772 925 q 447 872 550 891 q 293 785 340 852 q 239 581 246 717 l 249 581 q 350 668 288 637 q 484 699 412 699 q 699 611 622 699 q 777 366 777 524 q 683 85 777 184 q 422 -14 589 -14 q 164 109 258 -14 q 71 450 71 231 m 433 117 q 611 350 611 117 q 450 575 611 575 q 365 556 406 575 q 289 506 323 537 q 235 441 254 475 q 286 199 235 281 q 433 117 336 117 z "},"в":{"ha":839,"x_min":114,"x_max":789,"o":"m 765 558 q 610 397 765 425 l 610 392 q 743 337 696 382 q 789 221 789 292 q 708 57 789 115 q 472 0 627 0 l 114 0 l 114 750 l 471 750 q 765 558 765 750 m 625 231 q 583 308 625 285 q 457 330 541 330 l 273 330 l 273 118 l 461 118 q 625 231 625 118 m 606 545 q 571 609 606 589 q 467 629 536 629 l 273 629 l 273 449 l 443 449 q 564 470 523 449 q 606 545 606 490 z "},"г":{"ha":629,"x_min":114,"x_max":599,"o":"m 599 750 l 599 625 l 273 625 l 273 0 l 114 0 l 114 750 l 599 750 z "},"д":{"ha":859,"x_min":24,"x_max":833,"o":"m 833 -265 l 685 -265 l 685 0 l 171 0 l 171 -265 l 24 -265 l 24 123 l 85 123 q 212 400 165 238 q 268 750 259 563 l 724 750 l 724 123 l 833 123 l 833 -265 m 567 123 l 567 628 l 406 628 q 352 353 393 488 q 252 123 311 217 l 567 123 z "},"е":{"ha":800,"x_min":69,"x_max":733,"o":"m 441 -14 q 168 89 267 -14 q 69 370 69 191 q 161 659 69 553 q 412 764 252 764 q 647 673 561 764 q 733 425 733 583 l 733 339 l 233 339 q 292 171 237 230 q 449 113 348 113 q 573 125 515 113 q 696 167 630 138 l 696 37 q 578 -2 637 9 q 441 -14 518 -14 m 412 643 q 291 595 336 643 q 236 454 245 547 l 576 454 q 532 595 575 547 q 412 643 488 643 z "},"ж":{"ha":1117,"x_min":1,"x_max":1116,"o":"m 484 386 l 484 750 l 632 750 l 632 386 l 921 750 l 1089 750 l 794 387 l 1116 0 l 940 0 l 632 380 l 632 0 l 484 0 l 484 380 l 176 0 l 1 0 l 322 387 l 28 750 l 196 750 l 484 386 z "},"з":{"ha":721,"x_min":49,"x_max":663,"o":"m 279 450 q 440 474 389 450 q 492 549 492 498 q 329 640 492 640 q 107 591 220 640 l 56 710 q 345 764 186 764 q 562 712 484 764 q 639 566 639 661 q 494 400 639 439 l 494 395 q 624 325 585 370 q 663 212 663 279 q 572 48 663 109 q 319 -14 481 -14 q 49 33 142 -14 l 49 171 q 306 113 173 113 q 453 139 401 113 q 505 221 505 166 q 453 304 505 277 q 292 330 401 330 l 200 330 l 200 450 l 279 450 z "},"и":{"ha":940,"x_min":114,"x_max":827,"o":"m 267 750 l 267 366 q 256 168 267 298 l 632 750 l 827 750 l 827 0 l 673 0 l 673 378 q 677 479 673 409 q 684 581 681 549 l 309 0 l 114 0 l 114 750 l 267 750 z "},"й":{"ha":940,"x_min":114,"x_max":827,"o":"m 267 750 l 267 366 q 256 168 267 298 l 632 750 l 827 750 l 827 0 l 673 0 l 673 378 q 677 479 673 409 q 684 581 681 549 l 309 0 l 114 0 l 114 750 l 267 750 m 465 842 q 255 893 321 842 q 180 1067 188 945 l 325 1067 q 343 991 329 1018 q 386 952 358 964 q 469 940 413 940 q 570 969 536 940 q 612 1067 605 999 l 760 1067 q 677 896 749 950 q 465 842 606 842 z "},"к":{"ha":790,"x_min":114,"x_max":781,"o":"m 579 750 l 754 750 l 444 389 l 781 0 l 597 0 l 273 380 l 273 0 l 114 0 l 114 750 l 273 750 l 273 386 l 579 750 z "},"л":{"ha":844,"x_min":5,"x_max":730,"o":"m 730 0 l 570 0 l 570 625 l 363 625 q 312 248 344 384 q 228 50 279 113 q 93 -12 176 -12 q 5 3 41 -12 l 5 127 q 56 118 31 118 q 164 274 125 118 q 227 750 204 429 l 730 750 l 730 0 z "},"м":{"ha":1096,"x_min":114,"x_max":982,"o":"m 545 153 l 553 185 q 602 340 581 286 l 770 750 l 982 750 l 982 0 l 835 0 l 835 606 l 823 565 q 771 404 792 456 l 607 0 l 486 0 l 322 407 q 260 606 288 495 l 260 0 l 114 0 l 114 750 l 325 750 l 488 353 q 545 153 509 298 z "},"н":{"ha":900,"x_min":114,"x_max":786,"o":"m 273 750 l 273 449 l 627 449 l 627 750 l 786 750 l 786 0 l 627 0 l 627 323 l 273 323 l 273 0 l 114 0 l 114 750 l 273 750 z "},"о":{"ha":848,"x_min":69,"x_max":779,"o":"m 779 376 q 685 90 779 193 q 422 -14 591 -14 q 237 34 317 -14 q 113 170 156 81 q 69 376 69 259 q 163 661 69 559 q 427 764 256 764 q 684 659 589 764 q 779 376 779 554 m 233 376 q 425 117 233 117 q 615 376 615 117 q 424 633 615 633 q 278 567 323 633 q 233 376 233 500 z "},"п":{"ha":884,"x_min":114,"x_max":770,"o":"m 770 750 l 770 0 l 610 0 l 610 624 l 273 624 l 273 0 l 114 0 l 114 750 l 770 750 z "},"р":{"ha":865,"x_min":114,"x_max":794,"o":"m 494 -14 q 273 89 352 -14 l 264 89 q 273 -26 273 -6 l 273 -334 l 114 -334 l 114 750 l 243 750 q 265 650 248 729 l 273 650 q 497 764 348 764 q 716 662 637 764 q 794 376 794 560 q 714 90 794 193 q 494 -14 635 -14 m 456 633 q 317 578 361 633 q 273 400 273 522 l 273 376 q 317 178 273 239 q 458 117 360 117 q 586 184 541 117 q 631 378 631 252 q 586 569 631 504 q 456 633 542 633 z "},"с":{"ha":688,"x_min":69,"x_max":643,"o":"m 416 -14 q 158 86 246 -14 q 69 371 69 185 q 162 662 69 560 q 429 764 254 764 q 643 720 548 764 l 595 591 q 428 631 494 631 q 233 372 233 631 q 282 183 233 246 q 424 119 330 119 q 625 172 530 119 l 625 33 q 534 -3 583 8 q 416 -14 486 -14 z "},"т":{"ha":708,"x_min":29,"x_max":677,"o":"m 677 750 l 677 625 l 433 625 l 433 0 l 273 0 l 273 625 l 29 625 l 29 750 l 677 750 z "},"у":{"ha":745,"x_min":0,"x_max":745,"o":"m 0 750 l 174 750 l 326 325 q 372 154 361 234 l 378 154 q 400 244 384 191 q 572 750 416 298 l 745 750 l 424 -100 q 132 -334 336 -334 q 29 -322 79 -334 l 29 -196 q 111 -204 65 -204 q 273 -71 227 -204 l 301 0 l 0 750 z "},"ф":{"ha":1061,"x_min":69,"x_max":991,"o":"m 991 375 q 889 106 991 206 q 607 -8 787 5 l 607 -334 l 456 -334 l 456 -8 q 173 107 277 5 q 69 375 69 210 q 170 646 69 547 q 457 758 271 745 l 457 1055 l 607 1055 l 607 758 q 889 641 787 742 q 991 375 991 540 m 235 375 q 290 196 235 264 q 457 117 346 128 l 457 633 q 290 553 345 621 q 235 375 235 486 m 827 375 q 771 551 827 485 q 607 631 716 618 l 607 117 q 772 197 718 130 q 827 375 827 264 z "},"х":{"ha":765,"x_min":17,"x_max":747,"o":"m 281 383 l 29 750 l 211 750 l 382 488 l 554 750 l 734 750 l 482 383 l 747 0 l 567 0 l 382 281 l 197 0 l 17 0 l 281 383 z "},"ц":{"ha":913,"x_min":114,"x_max":890,"o":"m 782 123 l 890 123 l 890 -264 l 741 -264 l 741 0 l 114 0 l 114 750 l 273 750 l 273 126 l 623 126 l 623 750 l 782 750 l 782 123 z "},"ч":{"ha":878,"x_min":94,"x_max":764,"o":"m 254 750 l 254 476 q 374 361 254 361 q 486 377 431 361 q 604 428 541 393 l 604 750 l 764 750 l 764 0 l 604 0 l 604 318 q 477 258 538 277 q 343 239 416 239 q 160 299 226 239 q 94 469 94 360 l 94 750 l 254 750 z "},"ш":{"ha":1291,"x_min":114,"x_max":1177,"o":"m 1177 0 l 114 0 l 114 750 l 273 750 l 273 126 l 566 126 l 566 750 l 725 750 l 725 126 l 1017 126 l 1017 750 l 1177 750 l 1177 0 z "},"щ":{"ha":1307,"x_min":114,"x_max":1284,"o":"m 1177 123 l 1284 123 l 1284 -264 l 1135 -264 l 1135 0 l 114 0 l 114 750 l 273 750 l 273 126 l 566 126 l 566 750 l 725 750 l 725 126 l 1017 126 l 1017 750 l 1177 750 l 1177 123 z "},"ъ":{"ha":975,"x_min":14,"x_max":913,"o":"m 412 750 l 412 450 l 591 450 q 834 396 755 450 q 913 233 913 342 q 833 59 913 119 q 595 0 753 0 l 253 0 l 253 625 l 14 625 l 14 750 l 412 750 m 753 229 q 712 308 753 286 q 587 330 671 330 l 412 330 l 412 118 l 591 118 q 753 229 753 118 z "},"ы":{"ha":1125,"x_min":114,"x_max":1011,"o":"m 273 450 l 425 450 q 658 396 583 450 q 733 233 733 342 q 655 59 733 117 q 425 0 576 0 l 114 0 l 114 750 l 273 750 l 273 450 m 575 229 q 533 308 575 286 q 414 330 492 330 l 273 330 l 273 118 l 393 118 q 532 145 490 118 q 575 229 575 172 m 1011 0 l 851 0 l 851 750 l 1011 750 l 1011 0 z "},"ь":{"ha":838,"x_min":114,"x_max":775,"o":"m 273 450 l 461 450 q 775 233 775 450 q 695 59 775 119 q 461 0 615 0 l 114 0 l 114 750 l 273 750 l 273 450 m 615 229 q 572 308 615 286 q 452 330 530 330 l 273 330 l 273 118 l 454 118 q 574 146 533 118 q 615 229 615 175 z "},"э":{"ha":697,"x_min":45,"x_max":627,"o":"m 257 -14 q 45 29 132 -14 l 45 160 q 254 113 153 113 q 461 325 448 113 l 131 325 l 131 441 l 461 441 q 406 590 453 543 q 271 637 359 637 q 96 599 204 637 l 52 717 q 156 751 97 738 q 273 764 216 764 q 538 666 450 764 q 627 379 627 568 q 532 88 627 190 q 257 -14 437 -14 z "},"ю":{"ha":1186,"x_min":114,"x_max":1116,"o":"m 1116 376 q 1026 89 1116 192 q 775 -14 936 -14 q 540 74 627 -14 q 439 323 453 161 l 273 323 l 273 0 l 114 0 l 114 750 l 273 750 l 273 449 l 440 449 q 545 681 457 598 q 778 764 633 764 q 1025 659 934 764 q 1116 376 1116 554 m 602 376 q 643 182 602 248 q 777 117 684 117 q 910 182 869 117 q 951 376 951 248 q 910 568 951 503 q 777 633 869 633 q 643 568 684 633 q 602 376 602 503 z "},"я":{"ha":798,"x_min":12,"x_max":684,"o":"m 191 0 l 12 0 l 221 307 q 102 385 145 329 q 58 524 58 441 q 134 690 58 630 q 342 750 210 750 l 684 750 l 684 0 l 524 0 l 524 289 l 372 289 l 191 0 m 214 522 q 257 436 214 465 q 375 407 301 407 l 524 407 l 524 629 l 350 629 q 249 602 285 629 q 214 522 214 574 z "},"ё":{"ha":800,"x_min":69,"x_max":733,"o":"m 441 -14 q 168 89 267 -14 q 69 370 69 191 q 161 659 69 553 q 412 764 252 764 q 647 673 561 764 q 733 425 733 583 l 733 339 l 233 339 q 292 171 237 230 q 449 113 348 113 q 573 125 515 113 q 696 167 630 138 l 696 37 q 578 -2 637 9 q 441 -14 518 -14 m 412 643 q 291 595 336 643 q 236 454 245 547 l 576 454 q 532 595 575 547 q 412 643 488 643 m 201 949 q 224 1009 201 991 q 279 1028 247 1028 q 337 1007 315 1028 q 358 949 358 986 q 336 891 358 913 q 279 869 315 869 q 224 889 247 869 q 201 949 201 909 m 468 949 q 491 1009 468 991 q 546 1028 513 1028 q 604 1007 582 1028 q 625 949 625 986 q 603 891 625 912 q 546 869 581 869 q 491 889 513 869 q 468 949 468 909 z "},"ђ":{"ha":882,"x_min":8,"x_max":774,"o":"m 557 -334 q 450 -317 495 -334 l 450 -189 q 529 -201 490 -201 q 614 -86 614 -201 l 614 435 q 468 600 614 600 q 320 539 368 600 q 273 339 273 478 l 273 0 l 114 0 l 114 827 l 8 827 l 8 937 l 114 937 l 114 1055 l 273 1055 l 273 937 l 517 937 l 517 827 l 273 827 l 273 754 q 272 707 273 734 q 265 616 271 680 l 275 616 q 371 703 312 675 q 503 730 431 730 q 774 456 774 730 l 774 -97 q 718 -272 774 -211 q 557 -334 662 -334 z "},"ѓ":{"ha":629,"x_min":114,"x_max":599,"o":"m 599 750 l 599 625 l 273 625 l 273 0 l 114 0 l 114 750 l 599 750 m 250 842 l 250 859 q 329 964 288 906 q 394 1064 370 1023 l 579 1064 l 579 1050 q 474 943 544 1008 q 355 842 404 878 l 250 842 z "},"є":{"ha":705,"x_min":69,"x_max":660,"o":"m 436 -14 q 163 85 257 -14 q 69 371 69 183 q 161 664 69 564 q 437 764 253 764 q 660 720 562 764 l 612 599 q 433 637 508 637 q 294 589 342 637 q 235 441 246 541 l 566 441 l 566 325 l 235 325 q 290 164 242 216 q 429 113 337 113 q 643 160 532 113 l 643 31 q 436 -14 553 -14 z "},"ѕ":{"ha":676,"x_min":66,"x_max":618,"o":"m 618 214 q 538 45 618 104 q 309 -14 458 -14 q 68 32 159 -14 l 68 170 q 314 109 200 109 q 461 197 461 109 q 445 245 461 226 q 391 284 429 264 q 288 330 354 304 q 112 431 158 380 q 66 561 66 481 q 144 710 66 657 q 355 764 222 764 q 606 710 488 764 l 554 590 q 350 640 433 640 q 224 568 224 640 q 257 509 224 533 q 400 441 290 484 q 535 376 493 406 q 597 307 577 346 q 618 214 618 268 z "},"і":{"ha":387,"x_min":104,"x_max":283,"o":"m 273 0 l 114 0 l 114 750 l 273 750 l 273 0 m 104 949 q 128 1015 104 991 q 195 1038 151 1038 q 260 1015 237 1038 q 283 949 283 991 q 260 885 283 908 q 195 861 237 861 q 128 885 151 861 q 104 949 104 908 z "},"ї":{"ha":387,"x_min":-16,"x_max":408,"o":"m 273 0 l 114 0 l 114 750 l 273 750 l 273 0 m -16 949 q 7 1009 -16 991 q 62 1028 30 1028 q 120 1007 98 1028 q 141 949 141 986 q 119 891 141 913 q 62 869 98 869 q 7 889 30 869 q -16 949 -16 909 m 251 949 q 274 1009 251 991 q 329 1028 296 1028 q 387 1007 365 1028 q 408 949 408 986 q 386 891 408 912 q 329 869 363 869 q 274 889 296 869 q 251 949 251 909 z "},"ј":{"ha":387,"x_min":-82,"x_max":283,"o":"m 37 -334 q -82 -317 -35 -334 l -82 -191 q 12 -203 -36 -203 q 114 -87 114 -203 l 114 750 l 273 750 l 273 -98 q 213 -274 273 -214 q 37 -334 152 -334 m 104 949 q 128 1015 104 991 q 195 1038 151 1038 q 260 1015 237 1038 q 283 949 283 991 q 260 885 283 908 q 195 861 237 861 q 128 885 151 861 q 104 949 104 908 z "},"љ":{"ha":1197,"x_min":5,"x_max":1135,"o":"m 530 0 l 530 625 l 363 625 q 312 247 344 380 q 228 51 280 113 q 94 -11 176 -11 q 5 3 37 -11 l 5 127 q 56 118 31 118 q 164 274 125 118 q 227 750 204 429 l 699 750 l 699 450 l 829 450 q 1060 396 985 450 q 1135 233 1135 342 q 1056 59 1135 117 q 823 0 977 0 l 530 0 m 975 229 q 934 308 975 286 q 814 330 893 330 l 692 330 l 692 118 l 817 118 q 935 146 895 118 q 975 229 975 175 z "},"њ":{"ha":1232,"x_min":114,"x_max":1168,"o":"m 726 450 l 861 450 q 1093 396 1019 450 q 1168 233 1168 342 q 1090 59 1168 118 q 859 0 1013 0 l 564 0 l 564 323 l 275 323 l 275 0 l 114 0 l 114 750 l 275 750 l 275 449 l 566 449 l 566 750 l 726 750 l 726 450 m 1010 229 q 969 308 1010 286 q 848 330 928 330 l 725 330 l 725 118 l 851 118 q 1010 229 1010 118 z "},"ћ":{"ha":882,"x_min":8,"x_max":774,"o":"m 774 0 l 614 0 l 614 428 q 579 557 614 514 q 468 600 544 600 q 320 540 368 600 q 273 339 273 480 l 273 0 l 114 0 l 114 827 l 8 827 l 8 937 l 114 937 l 114 1055 l 273 1055 l 273 937 l 532 937 l 532 827 l 273 827 l 273 754 q 272 707 273 734 q 265 616 271 680 l 275 616 q 371 703 312 675 q 503 730 431 730 q 774 456 774 730 l 774 0 z "},"ќ":{"ha":790,"x_min":114,"x_max":781,"o":"m 579 750 l 754 750 l 444 389 l 781 0 l 597 0 l 273 380 l 273 0 l 114 0 l 114 750 l 273 750 l 273 386 l 579 750 m 322 842 l 322 859 q 402 964 361 906 q 467 1064 443 1023 l 652 1064 l 652 1050 q 546 943 616 1008 q 428 842 476 878 l 322 842 z "},"ў":{"ha":745,"x_min":0,"x_max":745,"o":"m 0 750 l 174 750 l 326 325 q 372 154 361 234 l 378 154 q 400 244 384 191 q 572 750 416 298 l 745 750 l 424 -100 q 132 -334 336 -334 q 29 -322 79 -334 l 29 -196 q 111 -204 65 -204 q 273 -71 227 -204 l 301 0 l 0 750 m 369 842 q 158 893 225 842 q 84 1067 92 945 l 229 1067 q 247 991 233 1018 q 289 952 262 964 q 373 940 317 940 q 474 969 439 940 q 516 1067 509 999 l 663 1067 q 581 896 653 950 q 369 842 509 842 z "},"џ":{"ha":897,"x_min":114,"x_max":783,"o":"m 114 0 l 114 750 l 273 750 l 273 126 l 624 126 l 624 750 l 783 750 l 783 0 l 525 0 l 525 -264 l 376 -264 l 376 0 l 114 0 z "},"Ґ":{"ha":770,"x_min":131,"x_max":739,"o":"m 293 0 l 131 0 l 131 991 l 593 991 l 593 1198 l 739 1198 l 739 852 l 293 852 l 293 0 z "},"ґ":{"ha":653,"x_min":114,"x_max":614,"o":"m 273 0 l 114 0 l 114 750 l 464 750 l 464 962 l 614 962 l 614 629 l 273 629 l 273 0 z "},"Ẁ":{"ha":1314,"x_min":8,"x_max":1304,"o":"m 1046 0 l 869 0 l 701 591 q 674 703 690 630 q 654 804 658 776 q 632 692 648 761 q 607 589 617 623 l 443 0 l 267 0 l 138 496 l 8 991 l 174 991 l 315 414 q 363 168 349 275 q 385 297 370 226 q 412 412 400 368 l 574 991 l 734 991 l 900 410 q 950 168 924 329 q 999 415 960 265 l 1140 991 l 1304 991 l 1046 0 m 647 1071 q 529 1173 600 1106 q 425 1279 457 1240 l 425 1293 l 610 1293 q 680 1184 635 1246 q 754 1088 724 1122 l 754 1071 l 647 1071 z "},"ẁ":{"ha":1135,"x_min":14,"x_max":1120,"o":"m 729 0 l 632 350 q 568 608 614 406 l 562 608 q 500 349 523 425 l 400 0 l 224 0 l 14 750 l 176 750 l 272 380 q 318 146 304 243 l 322 146 q 343 259 329 195 q 367 355 357 323 l 481 750 l 656 750 l 766 355 q 792 254 777 322 q 810 147 807 185 l 815 147 q 863 380 825 231 l 960 750 l 1120 750 l 908 0 l 729 0 m 553 842 q 434 944 506 877 q 330 1050 363 1010 l 330 1064 l 515 1064 q 586 955 541 1017 q 660 859 630 893 l 660 842 l 553 842 z "},"Ẃ":{"ha":1314,"x_min":8,"x_max":1304,"o":"m 1046 0 l 869 0 l 701 591 q 674 703 690 630 q 654 804 658 776 q 632 692 648 761 q 607 589 617 623 l 443 0 l 267 0 l 138 496 l 8 991 l 174 991 l 315 414 q 363 168 349 275 q 385 297 370 226 q 412 412 400 368 l 574 991 l 734 991 l 900 410 q 950 168 924 329 q 999 415 960 265 l 1140 991 l 1304 991 l 1046 0 m 541 1071 l 541 1088 q 621 1194 580 1135 q 686 1293 662 1252 l 871 1293 l 871 1279 q 765 1172 836 1238 q 647 1071 695 1107 l 541 1071 z "},"ẃ":{"ha":1135,"x_min":14,"x_max":1120,"o":"m 729 0 l 632 350 q 568 608 614 406 l 562 608 q 500 349 523 425 l 400 0 l 224 0 l 14 750 l 176 750 l 272 380 q 318 146 304 243 l 322 146 q 343 259 329 195 q 367 355 357 323 l 481 750 l 656 750 l 766 355 q 792 254 777 322 q 810 147 807 185 l 815 147 q 863 380 825 231 l 960 750 l 1120 750 l 908 0 l 729 0 m 462 842 l 462 859 q 542 964 500 906 q 606 1064 583 1023 l 791 1064 l 791 1050 q 686 943 756 1008 q 568 842 616 878 l 462 842 z "},"Ẅ":{"ha":1314,"x_min":8,"x_max":1304,"o":"m 1046 0 l 869 0 l 701 591 q 674 703 690 630 q 654 804 658 776 q 632 692 648 761 q 607 589 617 623 l 443 0 l 267 0 l 138 496 l 8 991 l 174 991 l 315 414 q 363 168 349 275 q 385 297 370 226 q 412 412 400 368 l 574 991 l 734 991 l 900 410 q 950 168 924 329 q 999 415 960 265 l 1140 991 l 1304 991 l 1046 0 m 443 1178 q 466 1239 443 1220 q 521 1257 488 1257 q 578 1236 557 1257 q 600 1178 600 1215 q 578 1120 600 1142 q 521 1099 556 1099 q 466 1118 488 1099 q 443 1178 443 1138 m 709 1178 q 732 1239 709 1220 q 787 1257 755 1257 q 845 1236 823 1257 q 867 1178 867 1215 q 844 1120 867 1141 q 787 1099 822 1099 q 732 1118 755 1099 q 709 1178 709 1138 z "},"ẅ":{"ha":1135,"x_min":14,"x_max":1120,"o":"m 729 0 l 632 350 q 568 608 614 406 l 562 608 q 500 349 523 425 l 400 0 l 224 0 l 14 750 l 176 750 l 272 380 q 318 146 304 243 l 322 146 q 343 259 329 195 q 367 355 357 323 l 481 750 l 656 750 l 766 355 q 792 254 777 322 q 810 147 807 185 l 815 147 q 863 380 825 231 l 960 750 l 1120 750 l 908 0 l 729 0 m 354 949 q 377 1009 354 991 q 432 1028 399 1028 q 489 1007 468 1028 q 511 949 511 986 q 489 891 511 913 q 432 869 467 869 q 377 889 399 869 q 354 949 354 909 m 621 949 q 643 1009 621 991 q 699 1028 666 1028 q 756 1007 734 1028 q 778 949 778 986 q 755 891 778 912 q 699 869 733 869 q 643 889 666 869 q 621 949 621 909 z "},"Ỳ":{"ha":822,"x_min":0,"x_max":822,"o":"m 411 539 l 646 991 l 822 991 l 492 385 l 492 0 l 329 0 l 329 379 l 0 991 l 176 991 l 411 539 m 387 1071 q 268 1173 340 1106 q 164 1279 197 1240 l 164 1293 l 349 1293 q 419 1184 375 1246 q 494 1088 464 1122 l 494 1071 l 387 1071 z "},"ỳ":{"ha":745,"x_min":0,"x_max":745,"o":"m 0 750 l 174 750 l 326 325 q 372 154 361 234 l 378 154 q 400 244 384 191 q 572 750 416 298 l 745 750 l 424 -100 q 132 -334 336 -334 q 29 -322 79 -334 l 29 -196 q 111 -204 65 -204 q 273 -71 227 -204 l 301 0 l 0 750 m 357 842 q 239 944 311 877 q 135 1050 168 1010 l 135 1064 l 320 1064 q 390 955 346 1017 q 465 859 435 893 l 465 842 l 357 842 z "},"–":{"ha":694,"x_min":56,"x_max":639,"o":"m 56 309 l 56 437 l 639 437 l 639 309 l 56 309 z "},"—":{"ha":1389,"x_min":56,"x_max":1333,"o":"m 56 309 l 56 437 l 1333 437 l 1333 309 l 56 309 z "},"―":{"ha":1389,"x_min":56,"x_max":1333,"o":"m 56 309 l 56 437 l 1333 437 l 1333 309 l 56 309 z "},"‗":{"ha":571,"x_min":-3,"x_max":574,"o":"m 574 -314 l -3 -314 l -3 -220 l 574 -220 l 574 -314 m 574 -125 l -3 -125 l -3 -31 l 574 -31 l 574 -125 z "},"‘":{"ha":268,"x_min":17,"x_max":252,"o":"m 25 652 l 17 667 q 65 819 31 723 q 136 991 100 914 l 252 991 q 183 652 208 818 l 25 652 z "},"’":{"ha":268,"x_min":17,"x_max":252,"o":"m 241 991 l 252 977 q 132 652 216 835 l 17 652 q 85 991 64 848 l 241 991 z "},"‚":{"ha":372,"x_min":43,"x_max":279,"o":"m 279 146 q 160 -179 247 20 l 43 -179 q 113 161 90 4 l 269 161 l 279 146 z "},"‛":{"ha":268,"x_min":17,"x_max":253,"o":"m 183 991 q 253 652 206 836 l 136 652 q 66 821 100 728 q 17 977 32 914 l 26 991 l 183 991 z "},"“":{"ha":551,"x_min":17,"x_max":534,"o":"m 298 667 q 419 991 334 804 l 534 991 q 467 652 488 791 l 309 652 l 298 667 m 17 667 q 65 819 31 723 q 136 991 100 914 l 252 991 q 183 652 208 818 l 25 652 l 17 667 z "},"”":{"ha":551,"x_min":17,"x_max":534,"o":"m 252 977 q 132 652 216 835 l 17 652 q 85 991 64 848 l 241 991 l 252 977 m 534 977 q 415 652 498 835 l 298 652 q 368 991 345 836 l 525 991 l 534 977 z "},"„":{"ha":640,"x_min":29,"x_max":549,"o":"m 265 146 q 146 -179 228 1 l 29 -179 q 98 161 74 -3 l 256 161 l 265 146 m 549 146 q 429 -179 516 20 l 313 -179 q 382 161 357 -3 l 539 161 l 549 146 z "},"†":{"ha":707,"x_min":83,"x_max":624,"o":"m 624 653 l 392 673 l 427 0 l 265 0 l 301 673 l 83 653 l 83 793 l 301 772 l 265 1055 l 427 1055 l 392 772 l 624 793 l 624 653 z "},"‡":{"ha":720,"x_min":83,"x_max":636,"o":"m 404 354 l 636 375 l 636 236 l 404 256 l 439 0 l 278 0 l 313 256 l 83 236 l 83 375 l 313 354 l 282 533 l 313 701 l 83 681 l 83 819 l 313 799 l 278 1055 l 439 1055 l 404 799 l 636 819 l 636 681 l 404 701 l 435 533 l 404 354 z "},"•":{"ha":522,"x_min":89,"x_max":433,"o":"m 89 507 q 134 650 89 601 q 261 699 178 699 q 388 649 343 699 q 433 507 433 600 q 388 366 433 416 q 261 315 342 315 q 134 365 180 315 q 89 507 89 414 z "},"…":{"ha":1137,"x_min":90,"x_max":1047,"o":"m 90 85 q 116 161 90 134 q 191 187 142 187 q 266 160 240 187 q 292 85 292 132 q 266 8 292 37 q 191 -20 239 -20 q 116 8 142 -20 q 90 85 90 36 m 468 85 q 494 161 468 134 q 568 187 519 187 q 644 160 618 187 q 669 85 669 132 q 643 8 669 37 q 568 -20 617 -20 q 494 8 519 -20 q 468 85 468 36 m 846 85 q 871 161 846 134 q 946 187 897 187 q 1021 160 996 187 q 1047 85 1047 132 q 1021 8 1047 37 q 946 -20 995 -20 q 871 8 897 -20 q 846 85 846 36 z "},"‰":{"ha":1724,"x_min":56,"x_max":1670,"o":"m 186 694 q 208 544 186 593 q 278 494 229 494 q 349 544 326 494 q 372 694 372 593 q 278 895 372 895 q 208 845 229 895 q 186 694 186 795 m 504 696 q 446 461 504 540 q 278 383 389 383 q 114 464 172 383 q 56 696 56 544 q 278 1006 56 1006 q 445 925 387 1006 q 504 696 504 845 m 946 991 l 396 0 l 265 0 l 815 991 l 946 991 m 1352 298 q 1373 147 1352 197 q 1443 97 1395 97 q 1514 146 1491 97 q 1537 298 1537 196 q 1443 497 1537 497 q 1373 448 1395 497 q 1352 298 1352 399 m 1670 298 q 1612 64 1670 142 q 1443 -14 1554 -14 q 1279 67 1337 -14 q 1221 298 1221 147 q 1443 608 1221 608 q 1610 528 1551 608 q 1670 298 1670 448 m 840 298 q 861 147 840 197 q 930 97 882 97 q 1002 146 979 97 q 1025 298 1025 196 q 930 497 1025 497 q 861 448 882 497 q 840 298 840 399 m 1157 298 q 1099 64 1157 142 q 930 -14 1042 -14 q 766 67 825 -14 q 708 298 708 147 q 930 608 708 608 q 1098 528 1038 608 q 1157 298 1157 448 z "},"′":{"ha":338,"x_min":90,"x_max":248,"o":"m 248 991 l 220 633 l 118 633 l 90 991 l 248 991 z "},"″":{"ha":606,"x_min":90,"x_max":515,"o":"m 248 991 l 220 633 l 118 633 l 90 991 l 248 991 m 515 991 l 488 633 l 386 633 l 358 991 l 515 991 z "},"‹":{"ha":467,"x_min":56,"x_max":411,"o":"m 56 380 l 297 673 l 411 610 l 220 372 l 411 136 l 297 71 l 56 363 l 56 380 z "},"›":{"ha":467,"x_min":54,"x_max":411,"o":"m 411 363 l 168 71 l 54 136 l 245 372 l 54 610 l 168 673 l 411 380 l 411 363 z "},"‼":{"ha":765,"x_min":90,"x_max":675,"o":"m 252 301 l 134 301 l 98 991 l 286 991 l 252 301 m 90 85 q 117 161 90 135 q 192 187 143 187 q 266 160 240 187 q 292 85 292 133 q 266 8 292 37 q 192 -20 239 -20 q 117 7 144 -20 q 90 85 90 35 m 635 301 l 517 301 l 482 991 l 670 991 l 635 301 m 474 85 q 500 161 474 135 q 576 187 527 187 q 650 160 624 187 q 675 85 675 133 q 649 8 675 37 q 576 -20 623 -20 q 501 7 528 -20 q 474 85 474 35 z "},"⁄":{"ha":180,"x_min":-267,"x_max":444,"o":"m 444 991 l -136 0 l -267 0 l 315 991 l 444 991 z "},"ⁿ":{"ha":567,"x_min":71,"x_max":503,"o":"m 396 530 l 396 808 q 373 885 396 863 q 302 908 349 908 q 205 873 233 908 q 178 761 178 839 l 178 530 l 71 530 l 71 993 l 158 993 l 172 935 l 180 935 q 328 1003 230 1003 q 503 833 503 1003 l 503 530 l 396 530 z "},"₣":{"ha":793,"x_min":45,"x_max":720,"o":"m 315 283 l 526 283 l 526 179 l 315 179 l 315 0 l 155 0 l 155 179 l 45 179 l 45 283 l 155 283 l 155 991 l 720 991 l 720 854 l 315 854 l 315 558 l 693 558 l 693 421 l 315 421 l 315 283 z "},"₤":{"ha":793,"x_min":50,"x_max":754,"o":"m 472 1004 q 724 950 606 1004 l 672 828 q 476 873 564 873 q 340 725 340 873 l 340 624 l 604 624 l 604 521 l 340 521 l 340 425 l 604 425 l 604 321 l 339 321 q 241 140 339 197 l 754 140 l 754 0 l 50 0 l 50 132 q 145 195 116 151 q 182 321 174 238 l 53 321 l 53 425 l 182 425 l 182 521 l 53 521 l 53 624 l 182 624 l 182 710 q 256 931 182 857 q 472 1004 331 1004 z "},"₧":{"ha":1149,"x_min":114,"x_max":1104,"o":"m 1006 109 q 1104 126 1059 109 l 1104 14 q 966 -14 1055 -14 q 781 195 781 -14 l 781 458 l 677 458 l 677 522 l 787 581 l 839 725 l 924 725 l 924 574 l 1092 574 l 1092 458 l 924 458 l 924 205 q 945 134 924 159 q 1006 109 966 109 m 690 692 q 593 453 690 536 q 309 371 495 371 l 268 371 l 268 0 l 114 0 l 114 991 l 329 991 q 690 692 690 991 m 268 507 l 309 507 q 477 549 421 507 q 533 686 533 590 q 483 814 533 772 q 325 856 433 856 l 268 856 l 268 507 z "},"€":{"ha":806,"x_min":43,"x_max":785,"o":"m 542 867 q 386 810 446 867 q 304 637 325 753 l 614 637 l 614 533 l 294 533 l 293 503 l 293 465 l 294 439 l 571 439 l 571 335 l 306 335 q 553 123 349 123 q 751 165 650 123 l 751 28 q 545 -14 663 -14 q 279 76 381 -14 q 146 335 177 165 l 43 335 l 43 439 l 135 439 l 134 464 l 134 489 l 135 533 l 43 533 l 43 637 l 144 637 q 274 905 170 808 q 542 1002 378 1002 q 785 942 677 1002 l 728 815 q 542 867 623 867 z "},"℅":{"ha":1124,"x_min":69,"x_max":1054,"o":"m 889 991 l 339 0 l 207 0 l 757 991 l 889 991 m 1054 229 q 995 55 1054 119 q 832 -9 936 -9 q 674 55 733 -9 q 615 229 615 120 q 673 405 615 341 q 836 468 732 468 q 995 403 935 468 q 1054 229 1054 338 m 729 229 q 835 81 729 81 q 939 229 939 81 q 835 376 939 376 q 753 338 777 376 q 729 229 729 299 m 309 524 q 132 585 195 524 q 69 758 69 647 q 132 937 69 876 q 311 999 194 999 q 450 970 386 999 l 419 882 q 309 907 359 907 q 183 760 183 907 q 306 615 183 615 q 439 640 380 615 l 439 551 q 309 524 387 524 z "},"ℓ":{"ha":722,"x_min":54,"x_max":648,"o":"m 433 102 q 513 137 484 102 q 547 241 543 172 l 648 241 q 584 48 642 111 q 416 -14 526 -14 q 242 53 303 -14 q 180 241 180 119 l 180 368 q 54 332 134 353 l 54 436 q 180 475 126 456 l 180 783 q 236 946 180 888 q 408 1004 292 1004 q 557 949 503 1004 q 612 793 612 893 q 334 416 612 543 l 334 241 q 433 102 334 102 m 482 789 q 408 903 482 903 q 351 877 369 903 q 334 789 334 852 l 334 530 q 446 634 409 567 q 482 789 482 701 z "},"№":{"ha":1421,"x_min":114,"x_max":1361,"o":"m 832 0 l 657 0 l 250 771 l 241 771 q 256 494 256 598 l 256 0 l 114 0 l 114 991 l 292 991 l 694 224 l 703 224 q 690 490 690 392 l 690 991 l 832 991 l 832 0 m 1361 427 q 1303 249 1361 313 q 1141 186 1245 186 q 984 250 1043 186 q 925 427 925 313 q 983 603 925 540 q 1145 667 1041 667 q 1302 601 1244 667 q 1361 427 1361 535 m 1038 427 q 1062 317 1038 354 q 1143 281 1086 281 q 1223 317 1198 281 q 1247 427 1247 354 q 1223 535 1247 500 q 1143 571 1198 571 q 1063 535 1088 571 q 1038 427 1038 500 m 947 0 l 947 110 l 1337 110 l 1337 0 l 947 0 z "},"™":{"ha":1059,"x_min":18,"x_max":968,"o":"m 254 503 l 155 503 l 155 904 l 18 904 l 18 991 l 393 991 l 393 904 l 254 904 l 254 503 m 653 503 l 528 871 l 524 871 l 526 790 l 526 503 l 431 503 l 431 991 l 578 991 l 699 629 l 825 991 l 968 991 l 968 503 l 868 503 l 868 783 l 871 871 l 867 871 l 736 503 l 653 503 z "},"Ω":{"ha":1089,"x_min":46,"x_max":1043,"o":"m 545 868 q 326 787 401 868 q 252 553 252 706 q 301 311 252 411 q 461 139 351 211 l 461 0 l 46 0 l 46 139 l 294 139 q 137 326 191 212 q 82 575 82 439 q 205 890 82 773 q 545 1007 329 1007 q 884 891 760 1007 q 1007 575 1007 775 q 951 324 1007 437 q 793 139 896 211 l 1043 139 l 1043 0 l 627 0 l 627 139 q 786 308 734 207 q 838 553 838 408 q 763 787 838 707 q 545 868 688 868 z "},"℮":{"ha":860,"x_min":69,"x_max":789,"o":"m 429 -24 q 241 26 323 -24 q 114 164 159 76 q 69 359 69 253 q 116 562 69 475 q 245 696 163 648 q 429 743 328 743 q 615 695 532 743 q 743 559 697 647 q 789 359 789 471 l 228 359 l 228 118 q 317 58 261 82 q 429 35 374 35 q 580 70 518 35 q 697 193 642 106 l 746 165 q 606 18 680 60 q 429 -24 532 -24 m 632 418 l 632 606 q 543 664 598 642 q 428 686 488 686 q 228 607 311 686 l 228 418 l 632 418 z "},"⅛":{"ha":1153,"x_min":44,"x_max":1096,"o":"m 883 991 l 302 0 l 172 0 l 754 991 l 883 991 m 348 397 l 222 397 l 222 745 l 224 814 l 227 876 q 200 849 216 864 q 104 774 184 834 l 44 850 l 235 991 l 348 991 l 348 397 m 878 605 q 1021 564 967 605 q 1076 453 1076 523 q 977 313 1076 364 q 1068 245 1040 283 q 1096 160 1096 208 q 1035 34 1096 82 q 878 -15 974 -15 q 716 31 774 -15 q 657 156 657 77 q 682 240 657 203 q 764 307 707 277 q 696 372 716 340 q 677 450 677 404 q 733 563 677 520 q 878 605 789 605 m 778 156 q 802 98 778 121 q 876 75 826 75 q 950 98 926 75 q 974 156 974 121 q 941 220 974 195 q 860 259 909 245 q 799 216 820 240 q 778 156 778 192 m 877 515 q 818 497 839 515 q 798 449 798 479 q 817 400 798 421 q 880 359 836 379 q 934 395 913 374 q 956 449 956 415 q 936 497 956 479 q 877 515 916 515 z "},"⅜":{"ha":1153,"x_min":31,"x_max":1114,"o":"m 930 991 l 350 0 l 220 0 l 802 991 l 930 991 m 896 605 q 1039 564 985 605 q 1093 453 1093 523 q 994 313 1093 364 q 1085 245 1057 283 q 1114 160 1114 208 q 1053 34 1114 82 q 896 -15 991 -15 q 733 31 792 -15 q 675 156 675 77 q 700 240 675 203 q 782 307 725 277 q 714 372 734 340 q 694 450 694 404 q 751 563 694 520 q 896 605 807 605 m 795 156 q 820 98 795 121 q 893 75 844 75 q 967 98 943 75 q 991 156 991 121 q 959 220 991 195 q 878 259 926 245 q 817 216 838 240 q 795 156 795 192 m 895 515 q 836 497 857 515 q 815 449 815 479 q 834 400 815 421 q 897 359 853 379 q 952 395 930 374 q 973 449 973 415 q 953 497 973 479 q 895 515 933 515 m 437 848 q 410 765 437 798 q 329 707 382 733 q 425 655 393 692 q 457 566 457 618 q 394 433 457 479 q 214 386 331 386 q 31 428 113 386 l 31 534 q 214 481 129 481 q 335 572 335 481 q 200 657 335 657 l 122 657 l 122 747 l 193 747 q 318 835 318 747 q 295 889 318 870 q 233 908 271 908 q 162 895 195 908 q 90 856 129 881 l 33 933 q 124 984 75 964 q 240 1004 174 1004 q 384 963 331 1004 q 437 848 437 921 z "},"⅝":{"ha":1153,"x_min":54,"x_max":1112,"o":"m 928 991 l 347 0 l 217 0 l 799 991 l 928 991 m 251 772 q 409 722 350 772 q 468 589 468 672 q 407 438 468 492 q 228 385 346 385 q 130 395 177 385 q 54 421 83 405 l 54 530 q 133 495 87 509 q 219 481 179 481 q 347 583 347 481 q 312 657 347 631 q 218 684 277 684 q 122 668 176 684 l 65 697 l 89 987 l 433 987 l 433 889 l 183 889 l 181 863 l 171 765 q 251 772 205 772 m 895 605 q 1038 564 983 605 q 1092 453 1092 523 q 993 313 1092 364 q 1084 245 1056 283 q 1112 160 1112 208 q 1051 34 1112 82 q 895 -15 990 -15 q 732 31 791 -15 q 673 156 673 77 q 699 240 673 203 q 781 307 724 277 q 713 372 732 340 q 693 450 693 404 q 749 563 693 520 q 895 605 806 605 m 794 156 q 818 98 794 121 q 892 75 842 75 q 966 98 942 75 q 990 156 990 121 q 958 220 990 195 q 876 259 925 245 q 815 216 836 240 q 794 156 794 192 m 893 515 q 834 497 855 515 q 814 449 814 479 q 833 400 814 421 q 896 359 852 379 q 950 395 929 374 q 972 449 972 415 q 952 497 972 479 q 893 515 932 515 z "},"⅞":{"ha":1153,"x_min":58,"x_max":1093,"o":"m 868 991 l 288 0 l 157 0 l 739 991 l 868 991 m 876 605 q 1019 564 964 605 q 1073 453 1073 523 q 974 313 1073 364 q 1065 245 1037 283 q 1093 160 1093 208 q 1032 34 1093 82 q 876 -15 971 -15 q 713 31 772 -15 q 654 156 654 77 q 680 240 654 203 q 762 307 705 277 q 694 372 713 340 q 674 450 674 404 q 730 563 674 520 q 876 605 787 605 m 775 156 q 799 98 775 121 q 873 75 823 75 q 947 98 923 75 q 971 156 971 121 q 939 220 971 195 q 857 259 906 245 q 796 216 817 240 q 775 156 775 192 m 874 515 q 815 497 836 515 q 795 449 795 479 q 814 400 795 421 q 877 359 833 379 q 931 395 910 374 q 953 449 953 415 q 933 497 953 479 q 874 515 913 515 m 127 397 l 360 889 l 58 889 l 58 991 l 488 991 l 488 908 l 260 397 l 127 397 z "},"∂":{"ha":807,"x_min":54,"x_max":746,"o":"m 581 637 l 582 646 q 541 814 582 758 q 418 871 500 871 q 232 807 330 871 l 232 953 q 440 1004 330 1004 q 669 910 593 1004 q 746 628 746 815 q 630 179 746 371 q 315 -14 514 -14 q 119 55 184 -14 q 54 261 54 123 q 150 562 54 429 q 419 694 245 694 q 581 637 514 694 m 562 468 q 433 572 539 572 q 281 475 339 572 q 224 264 224 378 q 248 154 224 191 q 322 117 272 117 q 469 211 404 117 q 562 468 534 306 z "},"∆":{"ha":854,"x_min":32,"x_max":821,"o":"m 32 96 l 339 993 l 514 993 l 821 94 l 821 0 l 32 0 l 32 96 m 427 842 q 375 660 397 724 l 201 139 l 650 139 l 478 657 q 447 758 463 701 q 427 842 431 814 z "},"∏":{"ha":1028,"x_min":123,"x_max":903,"o":"m 737 -323 l 737 851 l 289 851 l 289 -323 l 123 -323 l 123 991 l 903 991 l 903 -323 l 737 -323 z "},"∑":{"ha":876,"x_min":39,"x_max":857,"o":"m 39 -323 l 39 -229 l 449 367 l 50 899 l 50 991 l 814 991 l 814 854 l 271 854 l 635 370 l 254 -186 l 857 -186 l 857 -323 l 39 -323 z "},"−":{"ha":793,"x_min":65,"x_max":728,"o":"m 65 429 l 65 550 l 728 550 l 728 429 l 65 429 z "},"√":{"ha":762,"x_min":25,"x_max":843,"o":"m 436 -9 l 330 -9 l 146 505 l 25 505 l 25 624 l 233 624 l 382 199 l 722 1168 l 843 1168 l 436 -9 z "},"∞":{"ha":981,"x_min":78,"x_max":901,"o":"m 901 486 q 842 330 901 394 q 694 265 783 265 q 488 400 570 265 q 289 268 400 268 q 136 330 195 268 q 78 490 78 391 q 138 648 78 587 q 289 710 198 710 q 490 576 409 710 q 694 707 574 707 q 845 645 788 707 q 901 486 901 584 m 294 379 q 365 406 332 379 q 429 490 397 433 q 367 573 399 545 q 293 600 335 600 q 219 568 246 600 q 192 489 192 536 q 220 410 192 440 q 294 379 248 379 m 685 597 q 616 571 648 597 q 550 488 584 544 q 613 404 581 432 q 686 376 646 376 q 760 408 732 376 q 789 488 789 439 q 760 567 789 536 q 685 597 730 597 z "},"∫":{"ha":553,"x_min":4,"x_max":543,"o":"m 436 1055 q 543 1036 501 1055 l 543 903 q 453 924 498 924 q 378 888 401 924 q 355 794 355 852 l 355 -82 q 294 -270 355 -205 q 115 -334 233 -334 q 4 -314 49 -334 l 4 -182 q 97 -203 58 -203 q 197 -72 197 -203 l 197 804 q 258 991 197 927 q 436 1055 318 1055 z "},"≈":{"ha":793,"x_min":62,"x_max":729,"o":"m 222 332 q 143 310 186 332 q 62 250 100 288 l 62 379 q 236 454 136 454 q 329 443 285 454 q 421 410 372 431 q 570 372 507 372 q 648 394 606 372 q 729 454 691 415 l 729 325 q 555 252 660 252 q 471 260 510 252 q 372 294 432 269 q 291 323 324 314 q 222 332 257 332 m 222 606 q 144 584 187 606 q 62 524 101 562 l 62 653 q 236 726 134 726 q 325 716 283 726 q 421 682 366 705 q 504 653 471 661 q 570 644 537 644 q 648 666 606 644 q 729 726 690 687 l 729 597 q 555 524 661 524 q 469 533 509 524 q 372 567 429 543 q 282 598 315 591 q 222 606 250 606 z "},"≠":{"ha":793,"x_min":65,"x_max":728,"o":"m 370 293 l 282 104 l 172 151 l 237 293 l 65 293 l 65 414 l 294 414 l 364 564 l 65 564 l 65 685 l 419 685 l 510 876 l 621 828 l 553 685 l 728 685 l 728 564 l 497 564 l 427 414 l 728 414 l 728 293 l 370 293 z "},"≤":{"ha":793,"x_min":64,"x_max":728,"o":"m 728 171 l 65 463 l 65 545 l 728 875 l 728 743 l 231 510 l 728 304 l 728 171 m 64 0 l 64 121 l 726 121 l 726 0 l 64 0 z "},"≥":{"ha":793,"x_min":65,"x_max":728,"o":"m 65 304 l 562 510 l 65 743 l 65 875 l 728 545 l 728 463 l 65 171 l 65 304 m 65 0 l 65 121 l 728 121 l 728 0 l 65 0 z "},"◊":{"ha":810,"x_min":66,"x_max":742,"o":"m 66 498 l 372 999 l 436 999 l 742 498 l 436 0 l 372 0 l 66 498 m 595 498 l 404 818 l 214 498 l 404 179 l 595 498 z "}}}
